<?xml version="1.0" encoding="utf-8"?>
<!-- Generator: Adobe Illustrator 24.3.0, SVG Export Plug-In . SVG Version: 6.00 Build 0)  -->
<svg version="1.1" id="Слой_1" xmlns="http://www.w3.org/2000/svg" xmlns:xlink="http://www.w3.org/1999/xlink" x="0px" y="0px"
	 viewBox="0 0 115 115" style="enable-background:new 0 0 115 115;" xml:space="preserve">
<style type="text/css">
	.st0{fill:#E52328;}
	.st1{fill:#1C4990;}
</style>
<g>
	<path class="st0" d="M20.9,70.7c0-10.3,0-20.7,0-31c0-1.7-0.5-2.7-1.9-3.7c-6.9-4.8-9.6-11.7-8.5-19.7C11.2,11,14,6.3,18.6,3.2
		c1.8-1.2,2.6-0.8,2.7,1.4c0.1,3.7,0.1,7.4,0.1,11.1c0,1.5,0.5,2.6,1.9,3.2c0.4,0.2,0.7,0.4,1.1,0.7c6.4,3.9,8.2,3.7,14.2-1
		c1-0.8,1.1-1.8,1.1-2.9c0.2-3.5-0.3-7,0.4-10.6c0.5-2.8,1.3-3.2,3.5-1.4c4,3.5,6.7,7.6,7.2,13.1c0.7,8.1-1.7,14.7-8.7,19.3
		c-1.5,0.9-1.2,2.3-1.2,3.6c0,15.1,0,30.3,0,45.4c0,5.7-0.1,11.4,0,17.1c0.1,6.4-4.5,10.1-9.6,10.3c-4.9,0.2-9.8-3.2-10.1-9.8
		c-0.3-6.4-0.1-12.8-0.1-19.2C20.9,79.3,20.9,75,20.9,70.7C20.9,70.7,20.9,70.7,20.9,70.7L20.9,70.7z M27.9,104.2
		c0,2.1,0.8,3.1,2.7,3c1.8,0,2.5-1,2.5-2.7c0-1.8-0.8-3.2-2.7-3.1C28.6,101.4,27.8,102.7,27.9,104.2L27.9,104.2z"/>
	<path class="st1" d="M89.1,55.8c0.1-0.3,0.2-0.4,0.2-0.6c0.8-6.4,5.7-9.7,12-7.9c2.8,0.8,4.5,6.4,2.6,8.5c-0.6,0.7-1.5,0.7-2.3,0.7
		c-2.9,0.1-5.9,0.2-8.8,0.3c-0.6,0-1.3-0.2-1.5,0.5c-0.2,0.6,0.4,0.8,0.7,1.2c1.7,2.3,2.9,4.7,2.7,7.7c-0.3,4.4,0.3,8.7-0.5,13.1
		c-0.5,2.8-1.9,5-4.4,6.3c-1.4,0.7-1.9,1.7-1.8,3.2c0.1,1,0,2,0,3c0,6.7-5.6,10.6-12.1,8.4c-4.2-1.4-5.3-3-5.3-7.7
		c0-4.7,0-4.8-4.5-4.8c-6.5-0.1-13.1,0.1-19.6,0c-3.9,0-3.9-0.1-3.9-3.9c0-2.3,0.1-4.5-0.1-6.8c-0.1-1.8,0.6-2.3,2.3-2.3
		c6.7,0.1,13.4,0,20.2-0.1c1,0,2.9,0.8,2.9-0.9c0-1.8-2-1.1-3-1.1c-6.5,0-12.9,0-19.4,0.1c-0.7,0-1.3,0-2-0.1
		c-0.7-0.1-0.9-0.7-0.9-1.3c0-1,0.8-1.2,1.6-1.2c3.9,0,7.9,0,11.8,0c3.2,0,6.4,0,9.6,0c0.9,0,2.4,0.5,2.3-1
		c-0.1-1.3-1.4-0.9-2.3-0.9c-6.6,0-13.3,0-19.9,0c-3.2,0-3.2,0-3.1-3.2c0-2.6,0.2-5.2,0-7.8c-0.2-2.5,0.8-3,3-3
		c12.3,0.1,24.7,0,37,0.1c1.9,0,2.4-0.4,2.1-2.2c-0.9-5.6-2.8-10.8-5.1-16c-1.5-3.3-4.7-3.5-7.7-3.9c-6.4-0.8-12.9,0-19.4-0.2
		c-0.9,0-2.3,0.5-2.4-1.1c-0.1-1.7,1.4-1.4,2.4-1.4c7-0.6,14.1-0.6,21.1,0.4c6.8,1,9.4,5,11,11.1c1.2,4.5,2.1,9.1,3.2,13.7
		C88.2,55.2,88.3,55.7,89.1,55.8L89.1,55.8z M80.8,74.9L80.8,74.9c1,0,2,0,3,0c3.3,0,4.8-1.6,4.5-4.8c0-0.1,0-0.2,0-0.3
		c0-1-0.4-1.6-1.5-1.6c-4.1,0-8.2,0-12.3,0.1c-1.1,0-1.6,0.6-1.7,1.7c-0.4,4.8-0.4,4.9,4.5,4.9C78.4,74.9,79.6,74.9,80.8,74.9
		L80.8,74.9z"/>
</g>
</svg>
