<svg width="257" height="115" viewBox="0 0 257 115" fill="none" xmlns="http://www.w3.org/2000/svg">
<g clip-path="url(#clip0_43_623)">
<path d="M169.371 71.2746C169.371 60.4658 169.35 49.6571 169.392 38.8483C169.397 37.1189 168.886 35.98 167.384 34.9466C160.174 29.9693 157.355 22.7511 158.498 14.373C159.252 8.8421 162.114 3.97552 166.973 0.685439C168.818 -0.56416 169.698 -0.121264 169.75 2.15649C169.845 6.02128 169.84 9.88607 169.808 13.7561C169.798 15.3274 170.288 16.4821 171.801 17.1095C172.201 17.2729 172.544 17.5682 172.918 17.8002C179.595 21.8864 181.524 21.7124 187.727 16.7773C188.808 15.9179 188.871 14.9003 188.919 13.7614C189.077 10.0812 188.623 6.4009 189.298 2.72065C189.83 -0.168717 190.652 -0.664339 192.919 1.30233C197.087 4.91404 199.954 9.29027 200.413 15.011C201.093 23.4366 198.653 30.428 191.311 35.168C189.778 36.1593 190.031 37.546 190.025 38.8957C190.015 54.7135 190.036 70.5259 190.046 86.3436C190.046 92.3174 189.978 98.2965 190.057 104.27C190.146 110.94 185.308 114.842 180.064 115.005C174.973 115.163 169.793 111.647 169.508 104.755C169.234 98.0856 169.413 91.4 169.403 84.7249C169.397 80.2432 169.403 75.7616 169.403 71.2799C169.387 71.2799 169.376 71.2799 169.36 71.2799L169.371 71.2746ZM176.702 106.279C176.67 108.462 177.561 109.485 179.522 109.443C181.356 109.406 182.183 108.388 182.136 106.617C182.088 104.75 181.345 103.269 179.284 103.327C177.403 103.379 176.623 104.724 176.702 106.274V106.279Z" fill="#E52328"/>
<path d="M240.704 55.6837C240.815 55.42 240.92 55.2619 240.941 55.0984C241.779 48.3706 246.939 44.9804 253.448 46.889C256.341 47.7379 258.128 53.5483 256.199 55.8155C255.545 56.58 254.628 56.5484 253.769 56.5853C250.697 56.7013 247.624 56.7698 244.557 56.8595C243.961 56.8753 243.213 56.6696 242.949 57.4025C242.739 57.9878 243.403 58.262 243.714 58.6679C245.532 61.0248 246.697 63.5978 246.491 66.677C246.191 71.2272 246.802 75.8091 246.011 80.3488C245.495 83.3172 243.993 85.558 241.363 86.9711C239.945 87.7303 239.329 88.7585 239.497 90.3666C239.603 91.4106 239.524 92.4757 239.524 93.5302C239.524 100.553 233.684 104.618 226.917 102.325C222.49 100.822 221.383 99.2087 221.41 94.2736C221.436 89.3596 221.436 89.2752 216.735 89.2383C209.889 89.1856 203.038 89.3121 196.191 89.2805C192.081 89.2594 192.102 89.1908 192.16 85.2101C192.191 82.8374 192.228 80.4595 192.091 78.0974C191.986 76.2309 192.708 75.672 194.521 75.6878C201.546 75.7458 208.577 75.7089 215.602 75.6087C216.656 75.5929 218.606 76.4049 218.606 74.686C218.606 72.809 216.561 73.5524 215.428 73.5471C208.666 73.4997 201.904 73.584 195.143 73.6104C194.442 73.6104 193.736 73.5946 193.045 73.4786C192.302 73.3573 192.118 72.7615 192.149 72.0866C192.197 70.9899 192.982 70.8739 193.82 70.8687C197.946 70.8476 202.073 70.8318 206.205 70.8212C209.541 70.8107 212.882 70.8476 216.219 70.779C217.136 70.758 218.717 71.3379 218.648 69.6876C218.595 68.38 217.167 68.7755 216.271 68.7702C209.33 68.7438 202.395 68.7702 195.454 68.7544C192.102 68.7438 192.123 68.7175 192.17 65.3641C192.207 62.6382 192.36 59.9017 192.123 57.1969C191.901 54.6344 192.992 54.0545 195.285 54.065C208.197 54.123 221.109 54.0228 234.022 54.1335C235.966 54.1494 236.562 53.7434 236.246 51.8347C235.276 46.0032 233.315 40.4987 230.886 35.1418C229.315 31.6777 225.942 31.4457 222.88 31.0766C216.15 30.2752 209.372 31.0502 202.621 30.8182C201.694 30.7866 200.228 31.3455 200.155 29.6846C200.081 27.9289 201.588 28.261 202.658 28.1714C210.026 27.5545 217.389 27.5703 224.725 28.6301C231.797 29.653 234.554 33.8552 236.256 40.2456C237.516 44.9751 238.475 49.7889 239.582 54.5606C239.698 55.0615 239.856 55.594 240.715 55.6942L240.704 55.6837ZM231.95 75.6878V75.6773C233.004 75.6773 234.053 75.6773 235.107 75.6773C238.515 75.6702 240.093 73.9953 239.84 70.6525C239.835 70.5629 239.829 70.4785 239.829 70.3889C239.808 69.3502 239.366 68.7333 238.248 68.7386C233.948 68.7596 229.652 68.7755 225.352 68.7913C224.161 68.7913 223.697 69.3713 223.597 70.5629C223.159 75.5771 223.228 75.6825 228.266 75.6825C229.494 75.6825 230.722 75.6825 231.95 75.6825V75.6878Z" fill="#1C4990"/>
<path d="M12.3799 40.2929H9.08069L2.5719 59.2425L0 59.6168V61.3357H6.88826V59.6168L4.43231 59.2267L5.7288 55.2301H12.1691L13.4814 59.3532L11.0149 59.6801V61.3251H20.8598V59.6801L18.9256 59.4534L12.3799 40.2876V40.2929ZM6.33488 53.3688L8.98583 45.2174L11.5788 53.3688H6.34015H6.33488Z" fill="#1C4990"/>
<path d="M41.0186 55.4356C41.0186 52.5726 39.1002 50.6428 34.3306 50.0945C38.531 49.3352 39.7801 47.4529 39.7801 45.2754C39.7801 42.4598 37.7563 40.335 32.3437 40.335H22.0139V42.0538L24.4172 42.3016C24.4646 44.9959 24.4699 47.6955 24.4699 50.3792V51.3072C24.4699 54.0331 24.4699 56.7168 24.4172 59.3637L22.0087 59.6115V61.3303H31.1052C39.0528 61.3303 41.0133 58.1141 41.0133 55.4356H41.0186ZM30.9313 42.1751C33.4399 42.1751 34.5994 43.314 34.5994 45.6761C34.5994 48.2016 33.345 49.5145 30.6361 49.5145H29.7402C29.7402 47.0364 29.7454 44.5847 29.7929 42.1751H30.926H30.9313ZM30.8522 59.4902H29.7981C29.7454 56.7801 29.7454 54.0436 29.7454 51.2175H30.8258C34.0091 51.2175 35.5164 52.4882 35.5164 55.3934C35.5164 58.0877 33.8036 59.4955 30.8522 59.4955V59.4902Z" fill="#1C4990"/>
<path d="M60.7294 46.2771L60.6346 40.335H41.8829L41.767 46.2771H44.4337L45.0187 42.1382H48.5182C48.5709 44.8377 48.5709 47.5478 48.5709 50.2368V51.4179C48.5709 54.0858 48.5709 56.7327 48.5182 59.332L45.7935 59.6062V61.3251H56.7346V59.6062L53.9835 59.332C53.936 56.6957 53.9308 54.0384 53.9308 51.3915V50.2316C53.9308 47.4951 53.9308 44.7903 53.9835 42.1329H57.504L58.089 46.2719H60.7294V46.2771Z" fill="#1C4990"/>
<path d="M72.0501 39.7393C66.8062 39.7393 61.9048 43.4617 61.9048 50.8327C61.9048 58.2038 66.7745 61.9262 72.0501 61.9262C77.3256 61.9262 82.1848 58.1985 82.1848 50.8327C82.1848 43.467 77.294 39.7393 72.0501 39.7393ZM72.0501 60.0756C68.8352 60.0756 67.5651 56.1369 67.5651 50.8327C67.5651 45.5285 68.8352 41.5688 72.0501 41.5688C75.265 41.5688 76.5245 45.5549 76.5245 50.8327C76.5245 56.1106 75.2597 60.0756 72.0501 60.0756Z" fill="#1C4990"/>
<path d="M107.935 51.4232V50.2421C107.935 47.59 107.935 44.9326 107.988 42.2964L110.281 42.0538V40.335H102.217L97.3052 54.4127L92.0982 40.335H83.6763V42.0538L86.4801 42.3807V59.216L83.397 59.6115V61.3303H91.1864V59.6115L88.546 59.2108V51.4021L88.4037 44.9906L94.4856 61.3303H96.9469L102.649 45.075L102.581 52.0875C102.56 54.1913 102.57 56.7327 102.528 59.3373L100.193 59.6115V61.3303H110.386V59.6115L107.978 59.3637C107.93 56.7485 107.925 54.0911 107.925 51.4232H107.935Z" fill="#1C4990"/>
<path d="M127.868 40.3351H125.201V42.0539L127.825 42.3281L127.794 43.8044L120.02 54.6606L120.11 50.2422C120.11 47.5637 120.11 44.9064 120.162 42.2965L122.545 42.0486V40.3298H112.473V42.0486L114.834 42.3017C114.882 44.9486 114.887 47.6007 114.887 50.2369V51.418C114.887 54.0965 114.887 56.7486 114.834 59.3532L112.473 59.6063V61.3252H122.545V59.6063L119.92 59.3374L119.952 57.84L127.72 47.0049L127.63 51.2124C127.63 54.0543 127.63 56.7433 127.578 59.3532L125.195 59.601V61.3199H135.267V59.601L132.906 59.3532C132.858 56.7064 132.853 54.049 132.853 51.4075V50.2264C132.853 47.5479 132.853 44.8906 132.906 42.2806L135.267 42.0328V40.314H127.862L127.868 40.3351Z" fill="#1C4990"/>
<path d="M146.076 53.3002C153.007 53.3002 155.352 50.2948 155.352 46.6462C155.352 42.9976 152.706 40.335 146.045 40.335H137.359V42.0538L139.768 42.3016C139.815 44.9485 139.821 47.6058 139.821 50.2421V51.4232C139.821 54.1016 139.821 56.759 139.768 59.3637L137.359 59.6115V61.3303H148.1V59.6115L145.228 59.3162C145.186 57.1808 145.18 55.1245 145.18 53.3002H146.076ZM145.992 42.1751C148.775 42.1751 150.34 43.6883 150.34 46.6251C150.34 49.562 148.943 51.5075 146.124 51.5075H145.186V50.2421C145.186 47.5215 145.186 44.8219 145.238 42.1751H145.992Z" fill="#1C4990"/>
<path d="M42.2307 79.3364V70.5576H39.5956V79.3364C39.5956 80.9235 38.3044 82.2153 36.718 82.2153C35.1317 82.2153 33.8405 80.9235 33.8405 79.3364V70.5576H31.2053V79.3364C31.2053 82.3787 33.6771 84.8515 36.718 84.8515C38.2991 84.8515 39.7274 84.1767 40.734 83.1011L42.626 84.5721L44.244 82.4894L42.0358 80.7706C42.1622 80.3119 42.2307 79.8321 42.2307 79.3312V79.3364Z" fill="#1C4990"/>
<path d="M92.5303 79.3364C92.5303 80.9235 91.2391 82.2153 89.6527 82.2153C88.0664 82.2153 86.7752 80.9235 86.7752 79.3364V70.5576H84.14V79.3364C84.14 82.3787 86.6118 84.8515 89.6527 84.8515C92.6937 84.8515 95.1655 82.3787 95.1655 79.3364V73.1939H97.2367V70.5576H92.5303V79.3364Z" fill="#1C4990"/>
<path d="M76.456 70.5576C73.415 70.5576 70.9432 73.0304 70.9432 76.0727V84.8515H73.5784V76.0727C73.5784 74.4857 74.8696 73.1939 76.456 73.1939C78.0423 73.1939 79.3335 74.4857 79.3335 76.0727V84.8515H81.9687V76.0727C81.9687 73.0304 79.4969 70.5576 76.456 70.5576Z" fill="#1C4990"/>
<path d="M123.462 76.0727C123.462 73.0304 120.99 70.5576 117.949 70.5576C114.908 70.5576 112.436 73.0304 112.436 76.0727V84.8515H115.071V76.0727C115.071 74.4857 116.363 73.1939 117.949 73.1939C119.535 73.1939 120.826 74.4857 120.826 76.0727V84.8515H123.462V80.5597H125.512V77.9234H123.462V76.0727Z" fill="#1C4990"/>
<path d="M55.7068 75.4927V70.5576H53.0717V75.4927C53.0717 77.0798 51.7805 78.3716 50.1941 78.3716C48.6078 78.3716 47.3165 77.0798 47.3165 75.4927V74.085H44.6814V75.4927C44.6814 78.535 47.1532 81.0078 50.1941 81.0078C51.2482 81.0078 52.2337 80.702 53.0717 80.1906V84.3032H57.2774V81.6669H55.7068V75.498V75.4927Z" fill="#1C4990"/>
<path d="M104.315 73.853C103.261 73.853 102.275 74.1535 101.437 74.6702V70.5576H98.802V84.3032H101.437V79.3681C101.437 77.781 102.728 76.4893 104.315 76.4893C105.901 76.4893 107.192 77.781 107.192 79.3681V80.7759H109.827V79.3681C109.827 76.3258 107.356 73.853 104.315 73.853Z" fill="#1C4990"/>
<path d="M64.5135 76.4467C63.4753 76.1303 61.91 75.6558 61.6359 75.1602C61.2354 74.1531 61.5621 73.8051 61.6728 73.6891C62.2262 73.0986 63.6913 72.9404 64.8613 73.3411C65.3936 73.5257 66.3001 73.9686 66.3844 74.8754L69.009 74.6276C68.8457 72.9141 67.6177 71.501 65.7151 70.8472C63.4911 70.0827 61.0404 70.5098 59.7492 71.8806C59.1484 72.5186 58.2735 73.9317 59.2116 76.2041L59.2379 76.2674C59.9758 77.8228 61.8889 78.4081 63.7388 78.967C64.7928 79.2886 66.3844 79.7737 66.6111 80.2693C66.6532 80.3695 66.6216 80.5751 66.5109 80.8282C66.0682 81.5663 65.1723 81.9618 64.113 81.8985C62.9957 81.8247 61.4515 81.1656 60.7979 79.5364L58.3525 80.5224C59.2643 82.7949 61.4567 84.3661 63.939 84.5295C64.0813 84.5401 64.2184 84.5453 64.3554 84.5453C66.2949 84.5453 67.9497 83.6437 68.8351 82.0778L68.8878 81.9723C69.3463 80.96 69.3832 80.0215 69.009 79.1884C68.2923 77.6066 66.3686 77.0214 64.503 76.4572L64.5135 76.4467Z" fill="#1C4990"/>
</g>
<defs>
<clipPath id="clip0_43_623">
<rect width="257" height="115" fill="white"/>
</clipPath>
</defs>
</svg>
