<svg width="81" height="72" viewBox="0 0 81 72" fill="none" xmlns="http://www.w3.org/2000/svg">
<g clip-path="url(#clip0_11_87)">
<path d="M80.7539 33.7928C79.9657 31.0797 78.0385 29.5616 74.893 29.3426C74.0578 29.2852 73.4034 28.9909 72.7272 28.5926C66.7362 25.0396 60.7416 21.4974 54.7469 17.9515C54.3275 17.7039 50.1949 15.1809 49.0488 14.5314C49.1862 12.5036 49.8587 12.4821 53.0765 12.378C55.9582 12.2883 57.831 10.5728 57.9865 7.71608C58.0914 5.8068 57.9973 3.89034 58.0299 1.97747C58.0552 0.50603 57.3212 -0.021535 55.9003 0.0107649C53.6116 0.064598 51.3194 0.0825424 49.0343 0.00358714C47.5483 -0.0466571 46.7709 0.509619 46.648 1.999C46.5287 3.45608 45.6465 4.07337 44.2183 4.0626C41.8067 4.04825 39.3988 4.0303 36.9872 4.06978C35.418 4.0949 34.4562 3.52427 34.2972 1.8698C34.1995 0.832617 33.7946 0.0215315 32.5328 0.0287093C29.8825 0.0394759 27.2323 0.0322981 24.5785 0.035887C23.548 0.035887 22.9804 0.570629 22.9804 1.56834C22.9768 3.84009 22.8936 6.11903 23.0888 8.37643C23.2877 10.6518 25.1642 12.2309 27.4854 12.3529C28.5665 12.4103 29.6584 12.4354 30.7358 12.3673C31.9 12.2919 31.976 12.9415 31.9687 13.8208C31.9651 14.6605 31.3505 14.9046 30.79 15.2384C23.1973 19.7424 15.6082 24.2428 8.01546 28.7469C7.4442 29.0878 6.86209 29.2888 6.1679 29.3462C2.91748 29.6082 0.997607 31.1227 0.21664 33.922C-0.481169 36.4271 0.444422 38.7563 2.92833 40.5866C6.84401 43.472 10.7778 46.3324 14.7043 49.2035C19.4552 52.6739 24.1916 56.1659 28.9786 59.5897C30.0055 60.3218 30.7864 61.1078 30.3056 62.3567C29.9042 63.3975 28.8195 62.8161 28.0675 62.8376C25.4787 62.9166 22.8864 62.8555 20.2976 62.8699C16.7507 62.895 14.8236 64.7935 14.7947 68.2676C14.7911 68.8669 14.8236 69.4663 14.7875 70.062C14.7043 71.4509 15.3949 72.0144 16.7399 72C18.7248 71.9785 27.7674 71.9928 31.2926 71.9928C31.3468 71.9928 31.4047 71.9928 31.4589 71.9928C41.7634 71.9928 52.0642 71.9928 62.3686 71.9928C64.9381 71.9928 66.2047 70.7044 66.1686 68.1276C66.1252 64.8581 64.1836 62.9022 60.8898 62.8699C57.9395 62.8412 54.9856 62.8771 52.0316 62.8484C51.5471 62.8448 50.7915 63.1462 50.6685 62.3998C50.5492 61.6892 50.2708 60.8422 51.0952 60.268C51.5869 59.9234 52.0678 59.5645 52.5523 59.2092C61.0851 52.9754 69.6287 46.7487 78.147 40.4969C80.5767 38.7168 81.4697 36.2871 80.743 33.7821L80.7539 33.7928ZM70.7531 30.7997C69.2418 31.9015 67.8787 32.8633 66.5554 33.8754C66.0095 34.2917 65.5937 34.123 65.0947 33.8287C59.5593 30.57 54.013 27.3257 48.4703 24.0778C47.993 23.7978 47.5085 23.5753 47.9424 22.854C48.8716 21.2928 49.0054 19.5881 49.0198 17.8618C50.6975 18.899 53.0259 20.3058 53.3694 20.5104C59.1001 23.9055 64.8308 27.297 70.7568 30.8033L70.7531 30.7997ZM33.3101 54.8918C33.4511 50.8615 36.5316 47.8648 40.4509 47.8505C44.3919 47.8361 47.4941 50.7826 47.664 54.8129C47.758 57.0739 47.6387 59.3456 47.7074 61.6102C47.7435 62.712 47.2301 62.8914 46.2937 62.8699C44.3123 62.8232 42.3274 62.8555 40.346 62.8555C38.484 62.8555 36.6184 62.8161 34.76 62.8735C33.7367 62.9058 33.2197 62.6869 33.2667 61.5097C33.3535 59.3061 33.2342 57.0954 33.3101 54.8918ZM46.6661 47.0609C42.5443 44.2113 38.3864 44.2257 34.2791 47.086C33.6861 47.4988 33.2956 47.5454 32.7063 47.1112C27.7746 43.5007 22.8213 39.9155 17.6582 36.1651C23.4757 32.7521 29.116 29.4539 34.7383 26.1306C35.3276 25.7825 35.7796 25.8004 36.3797 26.1091C39.1312 27.5267 41.908 27.5231 44.6594 26.0839C45.1801 25.8112 45.6067 25.7394 46.1454 26.0588C51.8183 29.4108 57.5056 32.7449 63.3267 36.1687C58.2107 39.8867 53.2139 43.4972 48.2425 47.147C47.6206 47.6028 47.2337 47.4521 46.6697 47.0609H46.6661ZM34.9299 13.3973C34.9118 12.6185 35.2987 12.3637 36.0399 12.378C37.544 12.4067 39.048 12.3852 40.8595 12.3852C42.3238 12.5969 44.7318 11.5526 45.7297 12.7764C46.8071 14.0971 46.0587 16.455 46.037 18.3535C45.99 22.1505 43.488 24.4797 39.8905 24.2034C37.5331 24.0203 35.3276 22.1685 35.089 19.8393C34.8684 17.7111 34.9769 15.547 34.9299 13.4009V13.3973ZM28.5484 9.47822C26.4152 9.47104 25.9705 9.03678 25.9018 6.9983C25.7608 2.89263 25.7608 2.91416 29.8753 2.91775C30.8515 2.91775 31.4734 3.04336 31.9217 4.1272C32.6918 5.99701 34.2972 6.92294 36.3544 6.93729C39.124 6.95524 41.8935 6.95883 44.6667 6.93729C46.5685 6.92294 48.1666 6.1298 48.9041 4.40714C49.4682 3.08643 50.2419 2.88186 51.5074 2.90699C55.1157 2.97518 55.1157 2.92852 55.0832 6.49586C55.0615 9.14086 54.7216 9.47822 52.0389 9.4818C48.1846 9.48539 44.3304 9.4818 40.4762 9.4818C36.5027 9.4818 32.5255 9.49257 28.552 9.47822H28.5484ZM31.7554 18.0556C32.1242 19.8285 32.2074 21.5189 33.1076 22.9724C33.4909 23.5933 32.9594 23.8122 32.5545 24.049C26.9756 27.3221 21.3859 30.5808 15.8143 33.8718C15.2683 34.1948 14.8598 34.2056 14.3572 33.8287C13.0701 32.8597 11.7576 31.9302 10.221 30.8141C17.5389 26.4787 24.5893 22.3013 31.7518 18.0556H31.7554ZM30.4285 57.0595C25.9054 53.7613 21.7511 50.7359 17.5968 47.7069C13.2834 44.5595 8.96275 41.4228 4.66743 38.2538C2.78732 36.8649 2.40407 35.2392 3.48152 33.6385C4.57704 32.0128 6.59454 31.8225 8.54334 33.2114C14.6464 37.5683 20.7351 41.9432 26.831 46.3108C28.1977 47.2906 29.5499 48.2811 30.9238 49.2501C31.383 49.5731 31.8096 49.8208 31.4517 50.5098C30.4538 52.4191 30.2622 54.4935 30.4285 57.0595ZM60.4306 65.7697C60.7922 65.7697 61.161 65.741 61.5117 65.8092C62.788 66.0568 63.2616 66.9038 63.2725 68.1348C63.2869 69.6672 62.1191 69.0607 61.4538 69.0643C51.7243 69.1002 41.9911 69.0894 32.258 69.093C30.6997 69.0858 20.3591 69.0356 18.8622 69.1074C17.8571 69.154 17.6148 68.7234 17.7052 67.8369C17.8788 66.1322 18.9707 65.7554 20.482 65.7589C33.7982 65.7805 47.1108 65.7697 60.427 65.7733L60.4306 65.7697ZM76.1548 38.383C69.137 43.5187 62.1083 48.64 55.0796 53.7649C53.6912 54.777 52.2992 55.7819 50.5998 57.0129C50.7372 54.5114 50.4552 52.5088 49.5405 50.6498C48.9837 49.5157 49.9816 49.3147 50.5239 48.9199C57.1404 44.1467 63.7751 39.4022 70.406 34.6542C71.0388 34.1984 71.6751 33.7462 72.3115 33.2976C74.3181 31.88 76.2524 31.9625 77.4094 33.5129C78.6387 35.1638 78.2229 36.8685 76.1512 38.383H76.1548Z" fill="#E52328"/>
<path d="M74.2099 38.1927C72.7998 38.0492 72.0116 37.2453 72.0586 35.9569C72.1056 34.6756 72.9444 33.8179 74.3039 33.8933C75.5368 33.9615 76.2925 34.7259 76.2961 36.0071C76.2961 37.3852 75.479 38.0348 74.2099 38.1927Z" fill="#E52328"/>
<path d="M6.67077 38.1962C5.39085 37.9594 4.60627 37.256 4.68943 35.885C4.76536 34.6145 5.55355 33.8824 6.80093 33.8932C8.15678 33.904 8.95221 34.794 8.9269 36.0788C8.90159 37.3744 8.05554 38.1137 6.67077 38.1962Z" fill="#E52328"/>
<path d="M40.4331 60.0526C37.8588 60.0203 35.7871 57.9065 35.7907 55.3153C35.7907 52.6344 37.9311 50.578 40.6428 50.6462C43.2497 50.7108 45.2491 52.8139 45.1949 55.4337C45.1442 58.007 43.0002 60.0849 40.4331 60.0526ZM40.4657 57.1743C41.525 56.9805 42.2771 56.4458 42.2698 55.3081C42.2626 54.2781 41.6769 53.6285 40.6067 53.5711C39.4497 53.5101 38.7663 54.1346 38.7121 55.2543C38.6543 56.3956 39.4099 56.9411 40.4657 57.1743Z" fill="#E52328"/>
<path d="M44.8224 17.7216C44.8622 20.1118 42.964 22.057 40.5597 22.0893C38.1444 22.1216 36.1956 20.2446 36.1595 17.8616C36.1233 15.5324 38.1011 13.4796 40.4223 13.4329C42.729 13.3863 44.7863 15.3925 44.8224 17.7252V17.7216ZM40.415 16.3291C39.6304 16.5517 38.9977 16.9823 39.0881 17.9047C39.164 18.6942 39.6774 19.1859 40.5307 19.1608C41.3804 19.1356 41.8721 18.626 41.901 17.8293C41.93 16.9177 41.3153 16.4799 40.4186 16.3256L40.415 16.3291Z" fill="#E52328"/>
</g>
<defs>
<clipPath id="clip0_11_87">
<rect width="81" height="72" fill="white"/>
</clipPath>
</defs>
</svg>
