<svg width="49" height="49" viewBox="0 0 49 49" fill="none" xmlns="http://www.w3.org/2000/svg">
<g clip-path="url(#clip0_27_292)">
<path d="M0.001664 24.427C0.001664 18.0946 -0.00026422 11.7642 0.001664 5.43184C0.00359223 2.1509 2.14778 0.00410787 5.4219 0.00217904C14.7391 0.000250214 24.0582 0.000250214 33.3754 0.00217904C36.6013 0.00217904 38.7609 2.14704 38.7647 5.36047C38.7724 10.4699 38.7667 15.5813 38.7647 20.6908C38.7647 20.8837 38.7802 21.0785 38.7532 21.2695C38.676 21.8115 38.3714 22.149 37.8103 22.1837C37.2491 22.2184 36.8809 21.9349 36.7787 21.3852C36.715 21.0419 36.715 20.6831 36.715 20.332C36.7112 15.4791 36.715 10.6262 36.7112 5.77324C36.7112 3.15389 35.641 2.06796 33.0572 2.06796C23.9328 2.06603 14.8066 2.06603 5.68221 2.06796C3.15238 2.06796 2.06679 3.1616 2.06679 5.70959C2.06486 18.2451 2.06486 30.7786 2.06679 43.3141C2.06679 45.8428 3.16009 46.921 5.71499 46.921C14.8393 46.9229 23.9656 46.9229 33.09 46.921C35.6198 46.921 36.7035 45.8273 36.7112 43.2813C36.715 42.2841 36.7112 41.2888 36.717 40.2916C36.7208 39.5953 37.0023 39.0417 37.7543 39.0494C38.4909 39.0571 38.7859 39.5644 38.7705 40.2935C38.7493 41.4508 38.7705 42.6081 38.7628 43.7654C38.7416 46.7879 36.5569 48.9887 33.5257 48.9945C25.3964 49.006 17.267 48.9983 9.13951 48.9983C7.82254 48.9983 6.50556 49.008 5.18666 48.9964C2.22683 48.9675 0.0113051 46.7609 0.00552045 43.8078C-0.00604889 37.3482 0.001664 30.8866 0.001664 24.427Z" fill="#E52328"/>
<path d="M24.2319 45.2483C23.5474 45.1904 23.0557 44.8625 23.1502 44.0987C23.3642 42.3801 23.64 40.6693 23.8887 38.9545C23.9446 38.5707 24.2377 38.3527 24.4845 38.1039C30.5064 32.0821 36.5301 26.0584 42.5558 20.0385C43.3946 19.2014 43.8362 19.1917 44.6557 20.0018C45.9129 21.244 47.1623 22.4958 48.4061 23.7515C49.1793 24.5327 49.2024 24.9493 48.4523 25.6996C42.3456 31.8198 36.2313 37.9323 30.1207 44.0486C29.9125 44.2569 29.6946 44.4671 29.4034 44.5115C27.6892 44.7661 25.9731 45.0014 24.2319 45.2464V45.2483ZM25.4968 42.2181C25.3194 42.9376 25.5605 43.0533 26.1274 42.926C26.781 42.7794 27.4559 42.7022 28.125 42.6386C28.4991 42.6039 28.7902 42.4785 29.0544 42.2123C33.2714 37.9843 37.4923 33.7563 41.7248 29.5418C42.0738 29.1947 42.1181 28.9651 41.7363 28.6141C41.0981 28.0277 40.4695 27.4259 39.9007 26.772C39.4591 26.2628 39.1891 26.2783 38.709 26.7643C34.9162 30.6008 31.1446 34.4623 27.2438 38.1869C25.9847 39.3885 25.5065 40.7136 25.4949 42.2181H25.4968ZM46.4547 24.7506C46.3216 24.6002 46.2233 24.4748 46.1115 24.3629C45.4327 23.6801 44.7309 23.0185 44.0791 22.3126C43.7243 21.9268 43.4891 21.9712 43.1555 22.3299C42.5211 23.0108 41.8578 23.6647 41.1829 24.3051C40.8628 24.6079 40.805 24.8297 41.1598 25.1615C41.8848 25.8404 42.5886 26.5464 43.2712 27.2697C43.5816 27.5995 43.7667 27.5127 44.0367 27.2311C44.7231 26.5117 45.4385 25.8192 46.1385 25.1132C46.2445 25.0052 46.3409 24.8856 46.4566 24.7545L46.4547 24.7506Z" fill="#E52328"/>
<path d="M19.342 20.4361C15.5183 20.4361 11.6947 20.4361 7.87293 20.4361C7.5837 20.4361 7.28482 20.4669 7.00908 20.4014C6.49618 20.2798 6.15488 19.9693 6.15295 19.3926C6.15295 18.8159 6.49618 18.5034 7.00716 18.3819C7.28289 18.3163 7.58177 18.3452 7.871 18.3452C15.5492 18.3452 23.2274 18.3452 30.9075 18.3452C31.1967 18.3452 31.4956 18.3182 31.7713 18.3819C32.2862 18.5015 32.6255 18.8159 32.6275 19.3906C32.6275 19.9654 32.29 20.2818 31.7752 20.4033C31.4994 20.4669 31.2006 20.4361 30.9113 20.438C27.0568 20.438 23.2004 20.438 19.3459 20.438L19.342 20.4361Z" fill="#E52328"/>
<path d="M19.3999 24.4982C23.2544 24.4982 27.1109 24.4982 30.9654 24.4982C31.2218 24.4982 31.4841 24.475 31.7347 24.5136C32.2746 24.5965 32.6005 24.909 32.6198 25.478C32.6391 26.047 32.346 26.3942 31.8061 26.5022C31.4956 26.5639 31.1678 26.5601 30.8478 26.5601C23.2024 26.562 15.555 26.562 7.90962 26.5601C7.62038 26.5601 7.32729 26.5717 7.04577 26.5196C6.47116 26.4135 6.1183 26.0817 6.15879 25.4568C6.19735 24.8415 6.57143 24.5406 7.15954 24.502C7.5124 24.4789 7.86527 24.4962 8.22006 24.4962C11.9473 24.4962 15.6726 24.4962 19.3999 24.4962V24.4982Z" fill="#E52328"/>
<path d="M19.3864 14.2849C15.4355 14.2849 11.4846 14.2811 7.53363 14.2888C6.99372 14.2888 6.44997 14.2695 6.23593 13.6928C6.00647 13.0736 6.16266 12.522 6.87225 12.3271C7.2039 12.2346 7.57219 12.2519 7.92313 12.2519C15.5685 12.2481 23.212 12.25 30.8574 12.25C31.0175 12.25 31.1794 12.25 31.3395 12.25C32.0606 12.2577 32.6468 12.4622 32.6121 13.3244C32.5793 14.1248 32.0221 14.2888 31.3356 14.2868C27.3519 14.2791 23.3701 14.283 19.3864 14.283V14.2849Z" fill="#E52328"/>
<path d="M15.2889 36.8059C15.3101 37.155 15.0614 37.4443 14.7818 37.722C12.896 39.6046 11.0198 41.4968 9.12629 43.3697C8.40899 44.0795 7.94236 44.0737 7.23663 43.3928C6.63502 42.8142 6.04306 42.2259 5.46845 41.6202C5.00375 41.1303 4.94011 40.5767 5.45109 40.0926C5.92736 39.6412 6.41906 39.7627 6.91269 40.1582C7.36968 40.5246 7.63963 41.3521 8.26244 41.2074C8.7445 41.0936 9.11086 40.4687 9.51964 40.0636C10.8385 38.7501 12.1517 37.4289 13.4744 36.1192C13.808 35.7894 14.1879 35.5753 14.6854 35.8221C15.0691 36.0131 15.2735 36.3024 15.287 36.8078L15.2889 36.8059Z" fill="#E52328"/>
<path d="M27.0337 8.15701C25.6241 8.15701 24.2127 8.14737 22.8031 8.16087C22.0839 8.16858 21.4553 7.98727 21.4457 7.16559C21.436 6.35355 22.028 6.1356 22.7665 6.13945C25.6183 6.15296 28.4721 6.15103 31.324 6.14138C32.0509 6.13945 32.6294 6.31305 32.6159 7.17716C32.6043 7.98534 32.0393 8.15894 31.3606 8.15701C29.9183 8.15508 28.476 8.15701 27.0337 8.15701Z" fill="#E52328"/>
</g>
<defs>
<clipPath id="clip0_27_292">
<rect width="49" height="49" fill="white"/>
</clipPath>
</defs>
</svg>
