<svg width="72" height="71" viewBox="0 0 72 71" fill="none" xmlns="http://www.w3.org/2000/svg">
<g clip-path="url(#clip0_32_613)">
<path d="M35.492 71C15.8613 71 0.00261894 55.0715 0.0117227 35.368C0.0208264 15.8557 15.9857 -0.00606741 35.6073 1.74109e-06C55.2137 0.0060709 71.033 15.9588 71.0148 35.7079C70.9966 55.1231 55.0134 71.003 35.495 71H35.492ZM67.9863 35.5319C67.9984 17.6279 53.4385 3.04065 35.5436 3.02851C17.6396 3.01637 3.05237 17.5793 3.04023 35.4681C3.02809 53.3661 17.6062 67.9715 35.4799 67.9745C53.3899 67.9745 67.9741 53.4237 67.9832 35.5319H67.9863Z" fill="#E52328"/>
<path d="M54.9982 20.5776C54.4429 23.251 53.7814 26.5102 53.0895 29.7602C51.5934 36.8095 50.0944 43.8558 48.571 50.8991C47.8215 54.3524 45.7124 55.1839 42.8478 53.1477C40.3807 51.3907 37.9348 49.6003 35.5284 47.7583C34.8001 47.1999 34.3479 47.1241 33.6379 47.8038C32.2511 49.1299 30.7429 50.3256 29.2954 51.5879C27.8357 52.8625 26.5976 52.7047 25.8663 50.896C25.0166 48.8022 22.9561 41.8985 22.2764 39.7652C21.8 38.2752 21.3053 38.5939 17.5242 38.0355C16.0494 37.817 14.6323 37.1798 13.206 36.6821C12.2107 36.3361 11.3974 35.7414 11.2487 34.5943C11.1 33.4503 11.713 32.6552 12.6052 32.0756C13.1484 31.7206 13.7462 31.4353 14.3531 31.1986C26.1819 26.5891 38.0168 21.9917 49.8516 17.3943C50.7498 17.0453 51.6602 16.7449 52.6434 16.8663C54.2699 17.0696 55.0468 18.0953 55.0043 20.5806L54.9982 20.5776ZM15.1603 34.1148C17.7974 34.9645 20.0581 35.6625 22.2946 36.4363C22.9926 36.6791 23.4933 36.588 24.0971 36.1783C26.6523 34.4577 29.2286 32.7705 31.8292 31.1197C36.0473 28.4432 40.1804 25.6241 44.6503 23.3664C45.5759 22.899 46.6441 22.5743 47.3906 23.6122C48.1371 24.65 47.4998 25.5361 46.7442 26.2735C44.975 28.0062 43.1998 29.7359 41.3851 31.4232C38.0228 34.5457 34.6332 37.6349 31.1738 40.8091C35.4738 43.9651 39.6645 47.0452 43.8553 50.1222C45.4302 51.2784 45.4181 51.2754 45.8095 49.4091C47.7729 40.0869 49.7454 30.7677 51.7209 21.4485C51.815 21.0085 52.1124 20.4865 51.7725 20.1558C51.3932 19.7825 50.9258 20.2499 50.5404 20.3985C43.6277 23.0629 36.7301 25.7606 29.8234 28.4432C25.0834 30.2822 20.3403 32.109 15.1512 34.1148H15.1603ZM35.2674 32.9465C35.0702 32.8707 34.9458 32.7827 34.9002 32.813C31.8566 34.7703 28.8189 36.7337 25.7813 38.7031C25.5204 38.8731 25.3019 39.0764 25.4141 39.4436C25.8542 40.8819 26.9739 43.7527 27.0983 43.7466C26.7918 41.4251 27.4837 39.659 29.3864 38.2146C31.459 36.6396 33.2919 34.743 35.2674 32.9496V32.9465ZM29.8052 43.5767C29.6444 44.6479 29.2316 46.7235 29.0526 47.9434C31.1343 46.3442 31.7261 46.1318 31.8232 45.2912C31.8808 44.7996 30.5396 44.0531 29.8052 43.5767Z" fill="#E52328"/>
</g>
<defs>
<clipPath id="clip0_32_613">
<rect width="71" height="71" fill="white" transform="translate(0.0117188)"/>
</clipPath>
</defs>
</svg>
