<svg width="58" height="54" viewBox="0 0 58 54" fill="none" xmlns="http://www.w3.org/2000/svg">
<g clip-path="url(#clip0_28_327)">
<path d="M24.7663 51.3314C24.9038 51.3642 24.6847 51.3689 24.5355 51.2657C23.552 50.5903 22.6593 50.8413 21.6268 51.2798C20.8157 51.6245 20.3496 52.0583 20.1445 52.8627C19.9394 53.6694 19.4266 54.0118 18.5992 53.9461C18.0981 53.9086 17.5807 53.8805 17.0866 53.9508C15.6578 54.1525 14.7162 53.7374 14.3363 52.1967C14.1429 51.4111 11.7888 50.5036 11.0896 50.9233C9.88697 51.6433 8.98731 51.3994 8.19253 50.3183C7.98743 50.0392 7.73105 49.7813 7.45369 49.5726C6.39555 48.7823 6.09955 47.8982 6.82673 46.6694C7.28355 45.9002 6.33961 43.5692 5.4819 43.3417C4.07648 42.9688 3.62199 42.1176 3.81777 40.7504C3.87837 40.3283 3.86904 39.8874 3.81777 39.463C3.68492 38.3514 4.13242 37.7346 5.20921 37.3923C6.4375 37.003 7.32084 34.8244 6.71486 33.673C6.20676 32.7045 6.32096 31.9892 7.16002 31.3279C7.49332 31.0652 7.80563 30.7534 8.06434 30.418C8.90573 29.3252 9.81938 28.9031 11.1386 29.7262C11.8494 30.1694 14.2011 29.1118 14.4086 28.2605C14.7395 26.9074 15.5599 26.5486 16.8069 26.7034C17.266 26.7597 17.7462 26.7667 18.203 26.7034C19.3637 26.5369 19.9883 27.0177 20.3286 28.1386C20.6549 29.2126 22.8737 30.1483 23.8457 29.6183C24.9318 29.0274 25.7382 29.2009 26.4607 30.1671C26.6915 30.4766 26.9758 30.7627 27.2835 30.9949C28.3649 31.8157 28.6866 32.7209 27.9267 33.9896C27.4839 34.7329 28.5048 37.0639 29.3531 37.3008C30.6327 37.6596 31.1105 38.4171 30.9101 39.7068C30.8448 40.1266 30.8518 40.5722 30.9101 40.9943C31.0732 42.2301 30.6397 42.9618 29.3811 43.3042C28.4045 43.5715 27.5119 45.8885 28.0107 46.8077C28.6003 47.8935 28.4279 48.6932 27.4862 49.4459C26.9432 49.8798 26.4887 50.4285 25.9922 50.9257C25.7429 51.1766 25.4911 51.4299 24.764 51.3361L24.7663 51.3314ZM17.4035 52.0114C18.1447 52.2483 18.6039 51.9528 18.7833 51.1367C18.9488 50.3793 19.4499 49.9665 20.2051 49.7766C20.7644 49.6359 21.3425 49.4506 21.8179 49.1387C22.6174 48.6181 23.3795 48.4821 24.1836 49.0309C24.8106 49.4577 25.1742 49.0707 25.5517 48.6533C25.92 48.2406 26.5633 47.9216 26.0948 47.2087C25.5238 46.3434 25.6729 45.5437 26.1857 44.7065C26.4654 44.2469 26.7031 43.724 26.8033 43.201C26.9642 42.3615 27.4047 41.8596 28.2134 41.7048C29.0595 41.543 29.0059 40.938 29.0222 40.2908C29.0385 39.6107 28.9919 39.0643 28.1715 38.9095C27.3534 38.7547 26.9525 38.199 26.7917 37.3805C26.6961 36.8928 26.491 36.4003 26.2253 35.9782C25.6799 35.1128 25.5121 34.278 26.1088 33.3705C26.5353 32.7232 25.9969 32.3879 25.6263 32.0056C25.2464 31.614 24.8945 31.1379 24.2535 31.5483C23.4005 32.0947 22.6011 32.008 21.762 31.4498C21.3192 31.1544 20.7831 30.9433 20.261 30.8401C19.4313 30.6783 18.9255 30.2304 18.7647 29.4237C18.6155 28.6803 18.1517 28.5677 17.4968 28.5889C16.8232 28.6123 16.1636 28.5279 15.9911 29.4378C15.835 30.2632 15.2966 30.6689 14.4878 30.8518C13.9284 30.9785 13.3574 31.1966 12.8819 31.5108C12.1035 32.0244 11.3577 32.0736 10.6025 31.5812C9.82404 31.0723 9.50706 31.7219 9.05723 32.1111C8.6074 32.5004 8.31839 32.8944 8.72161 33.4901C9.23903 34.2569 9.15978 34.9909 8.66334 35.7624C8.37433 36.2127 8.14592 36.738 8.02938 37.2609C7.8336 38.1497 7.41407 38.7641 6.49577 38.9447C5.74061 39.0924 5.69866 39.6224 5.70099 40.2579C5.70099 40.9216 5.69167 41.5219 6.52141 41.6814C7.38843 41.8479 7.81729 42.4107 8.01074 43.2596C8.1296 43.7826 8.33238 44.3196 8.62139 44.7652C9.14114 45.5672 9.26466 46.334 8.71228 47.1431C8.24148 47.8302 8.74025 48.1866 9.15046 48.6064C9.56999 49.0355 9.94524 49.4764 10.6188 49.0238C11.3786 48.5149 12.1105 48.59 12.8819 49.0871C13.3621 49.3967 13.9308 49.5984 14.4878 49.7438C15.2686 49.9454 15.828 50.316 15.9981 51.1555C16.1473 51.9036 16.5971 52.2108 17.4035 52.0068V52.0114Z" fill="#E52328"/>
<path d="M41.8295 23.0404C41.8039 22.4564 41.7829 21.8702 41.7503 21.2863C41.7153 20.6695 41.8645 20.1747 42.58 20.1301C43.2699 20.0879 43.5706 20.5476 43.6195 21.1455C43.743 22.6652 43.792 24.1918 43.5822 25.7044C43.2699 27.9627 42.5893 30.1131 41.4216 32.0783C41.086 32.6434 41.0604 33.0163 41.5918 33.4642C42.2444 34.0153 42.841 34.6344 43.4284 35.2582C44.2511 36.1282 44.997 37.01 46.4373 36.5832C47.0923 36.3885 47.6936 36.874 48.1807 37.3477C51.1617 40.2555 54.1544 43.1517 57.1144 46.0807C58.303 47.2579 58.2797 48.6767 57.1214 49.9055C56.1331 50.9538 55.1356 51.9926 54.1171 53.0104C52.8818 54.2439 51.5766 54.2721 50.3343 53.0714C47.344 50.1729 44.377 47.2509 41.3913 44.3477C40.762 43.7356 40.3798 42.9993 40.5826 42.148C40.7667 41.3741 40.4893 40.9192 39.9603 40.4385C39.0979 39.6529 38.2658 38.8321 37.4641 37.9832C37.0399 37.5329 36.7299 37.4743 36.1985 37.8589C35.4177 38.4264 34.553 38.8813 33.7116 39.3597C33.1359 39.688 32.4787 39.9014 32.0918 39.1721C31.6792 38.3912 32.2199 37.9832 32.8772 37.6478C37.3638 35.3731 40.233 31.7851 41.4403 26.8699C41.7503 25.6129 41.8691 24.3348 41.8295 23.038V23.0404ZM52.3201 52.0137C52.4226 51.941 52.5998 51.8543 52.7303 51.7206C53.7372 50.6935 54.7324 49.6546 55.7369 48.6275C56.2543 48.0998 56.0516 47.6918 55.5947 47.2462C52.7233 44.4603 49.8588 41.6649 47.006 38.8555C46.5166 38.3748 46.1227 38.3279 45.6402 38.8462C44.7103 39.8381 43.7617 40.8137 42.8037 41.7798C42.298 42.2887 42.4005 42.7038 42.876 43.1658C45.7731 45.9822 48.6609 48.8104 51.5533 51.6315C51.7467 51.8191 51.9402 52.0208 52.3224 52.0137H52.3201ZM43.7314 38.2575C43.4703 37.9668 43.3328 37.7932 43.1767 37.6384C42.4005 36.8716 41.5522 36.1704 40.8623 35.3332C40.1048 34.4116 39.6433 34.557 38.9511 35.427C38.457 36.0461 38.3777 36.3627 39.007 36.8904C39.8111 37.5634 40.5173 38.3514 41.2934 39.0596C41.5545 39.2988 41.7712 39.8592 42.2001 39.5919C42.7525 39.2495 43.1976 38.7359 43.7337 38.2575H43.7314Z" fill="#E52328"/>
<path d="M27.4932 19.8581C26.8802 21.2276 26.3884 22.2805 25.9386 23.3522C25.6776 23.9713 25.272 24.2433 24.5961 24.2269C23.2769 24.1964 21.9554 24.2152 20.6362 24.2176C19.9813 24.2176 19.4312 24.0276 19.4452 23.2655C19.4592 22.5197 20.0209 22.3204 20.6665 22.3157C21.5988 22.3087 22.5334 22.2735 23.461 22.3251C24.1067 22.3626 24.4306 22.1234 24.6777 21.5301C25.3349 19.9495 26.0645 18.3971 26.7567 16.8306C26.9851 16.317 27.2205 15.787 27.8847 15.8245C28.6352 15.8691 28.7471 16.4976 28.8683 17.0792C29.3228 19.2741 29.7773 21.4691 30.3064 24.0276C31.2433 21.9147 32.1057 20.1489 32.8049 18.3173C33.2361 17.1917 33.8537 16.8001 35.0564 16.8306C38.394 16.915 41.7339 16.84 45.0738 16.8751C45.7684 16.8822 46.1599 16.718 46.5189 16.0637C47.3603 14.5254 49.1013 13.8899 50.7212 14.3894C52.2921 14.8724 53.2943 16.324 53.2453 18.0453C53.1987 19.6986 52.0846 21.047 50.4158 21.4644C48.8542 21.8561 47.1901 21.115 46.4396 19.5509C46.1343 18.9177 45.794 18.7324 45.1321 18.7395C41.9879 18.7723 38.8415 18.7887 35.6973 18.7301C34.8862 18.716 34.5623 19.0209 34.2686 19.722C33.2454 22.1633 32.15 24.574 31.0848 26.9965C30.8471 27.5382 30.6257 28.162 29.9008 28.0846C29.1946 28.0095 29.0664 27.4115 28.9452 26.8018C28.5047 24.5881 28.0246 22.3814 27.4932 19.8534V19.8581ZM49.6723 16.1693C48.6934 16.1528 47.859 16.9666 47.8753 17.921C47.8917 18.8192 48.7074 19.647 49.5977 19.6705C50.551 19.6939 51.3691 18.8637 51.3598 17.8788C51.3528 16.9173 50.6279 16.1857 49.6723 16.1693Z" fill="#E52328"/>
<path d="M6.59128 0.0140411C8.2997 0.0140411 10.0105 0.042182 11.7165 0.00231578C12.4764 -0.0164448 12.9355 0.274344 13.2874 0.940345C15.8326 5.76416 18.3964 10.5763 20.9602 15.3883C21.2935 16.0145 21.5801 16.6805 20.7504 17.0815C19.944 17.4708 19.5711 16.8329 19.2448 16.2162C16.8721 11.7418 14.4808 7.27908 12.1384 2.79061C11.7818 2.10819 11.3786 1.87368 10.6141 1.88541C7.54688 1.93231 4.47732 1.90183 1.41009 1.90886C0.710873 1.90886 -0.0163124 1.89713 0.0163177 0.949725C0.0466171 0.0374919 0.76681 0.00700593 1.4637 0.009351C3.17211 0.0187313 4.88053 0.0116961 6.59128 0.0116961V0.0140411Z" fill="#E52328"/>
<path d="M26.2836 5.40771C32.3411 5.66333 37.3545 8.29684 40.9065 13.6225C40.9718 13.7187 41.03 13.8195 41.093 13.9203C41.4309 14.4691 41.5801 15.0413 40.9601 15.4634C40.3215 15.8972 39.86 15.515 39.5174 14.9709C38.6201 13.5404 37.5782 12.2342 36.2661 11.1672C31.3482 7.16886 25.9176 6.32464 20.0023 8.52901C19.8205 8.59701 19.6457 8.67909 19.4685 8.76117C18.8346 9.05665 18.2169 9.11293 17.9023 8.35547C17.604 7.63788 18.1214 7.29784 18.6901 7.0352C21.0161 5.95881 23.4751 5.48979 26.2812 5.40771H26.2836Z" fill="#E52328"/>
<path d="M39.8484 23.4718C39.564 29.1961 36.8511 33.4806 31.5254 36.0437C31.2154 36.1938 30.8774 36.304 30.5395 36.3721C30.0687 36.4659 29.6771 36.2806 29.507 35.821C29.3182 35.3191 29.4813 34.9017 29.9661 34.6437C30.1013 34.571 30.2481 34.5194 30.3903 34.4585C35.7999 32.0313 38.4709 27.3271 37.788 21.3823C37.7041 20.6601 37.6389 19.973 38.5502 19.8745C39.4591 19.776 39.585 20.5287 39.6712 21.1971C39.7621 21.8912 39.7831 22.5947 39.8484 23.4741V23.4718Z" fill="#E52328"/>
<path d="M8.23915 23.2984C8.35801 18.4582 10.0082 14.2511 13.3854 10.757C13.467 10.6725 13.5532 10.5928 13.6348 10.5107C14.1056 10.0441 14.637 9.62898 15.229 10.2364C15.7907 10.8109 15.4784 11.3503 14.9912 11.8521C14.4249 12.4384 13.8608 13.0364 13.3761 13.693C10.5722 17.499 9.59097 21.7366 10.4766 26.3986C10.6165 27.1326 10.726 27.9159 9.77975 28.0753C8.90573 28.2231 8.75424 27.4797 8.62139 26.7902C8.39997 25.6388 8.27178 24.478 8.23682 23.2984H8.23915Z" fill="#E52328"/>
<path d="M26.0482 9.37567C29.9917 9.47885 33.3596 10.907 36.0912 13.8008C36.569 14.3074 37.0515 14.8725 36.3896 15.4987C35.7323 16.1201 35.2242 15.6065 34.7231 15.107C31.0848 11.4628 26.8126 10.4169 21.9181 12.0068C21.8086 12.042 21.706 12.1077 21.5965 12.1429C20.9742 12.3351 20.3915 12.307 20.1631 11.5894C19.958 10.9422 20.3659 10.567 20.9322 10.3512C22.5777 9.72508 24.2745 9.36629 26.0482 9.37567Z" fill="#E52328"/>
<path d="M12.1663 23.6852C12.2316 19.9424 13.2687 16.997 15.3571 14.4315C15.7976 13.8898 16.2964 13.3434 16.9932 13.9179C17.6785 14.4831 17.2823 15.0717 16.8324 15.6322C14.3968 18.6667 13.5694 22.1093 14.3642 25.9224C14.5087 26.6165 14.5413 27.2215 13.7605 27.4185C12.8632 27.646 12.6255 26.9331 12.4973 26.2624C12.3085 25.2704 12.1081 24.2714 12.1617 23.6828L12.1663 23.6852Z" fill="#E52328"/>
<path d="M4.68478 11.5613C3.48446 11.5613 2.28181 11.5589 1.08149 11.5613C0.454526 11.5636 -0.00462627 11.3385 3.51742e-05 10.642C0.00469662 9.96426 0.463849 9.67347 1.0745 9.66878C3.51476 9.65236 5.95736 9.65471 8.39762 9.66409C9.06188 9.66643 9.58163 9.98302 9.55832 10.6865C9.53735 11.3361 9.02925 11.5706 8.40462 11.5636C7.16467 11.5519 5.92473 11.5613 4.68478 11.5589V11.5613Z" fill="#E52328"/>
<path d="M4.81526 4.88237C6.01559 4.88237 7.21591 4.89175 8.41856 4.88003C9.04552 4.87299 9.5443 5.11923 9.55828 5.76647C9.5746 6.46999 9.06184 6.77719 8.39292 6.77954C5.99228 6.78423 3.5893 6.78423 1.18866 6.77954C0.531399 6.77954 0.0116479 6.54034 0.00698646 5.79695C0.00232502 5.01135 0.571021 4.87768 1.21197 4.88003C2.41229 4.88472 3.61261 4.88003 4.81526 4.88237Z" fill="#E52328"/>
<path d="M10.5302 40.2697C10.5442 36.4449 13.6627 33.3166 17.4291 33.3541C21.1886 33.3893 24.3211 36.5786 24.2978 40.3448C24.2768 44.1438 21.1583 47.2252 17.3522 47.2135C13.5228 47.2018 10.5162 44.1438 10.5302 40.2697ZM17.4315 45.3022C20.1771 45.2858 22.3889 43.0721 22.4052 40.326C22.4192 37.5799 20.0768 35.2395 17.3476 35.2747C14.5484 35.3122 12.3878 37.5612 12.4181 40.4081C12.4461 43.1635 14.6556 45.3187 17.4338 45.3022H17.4315Z" fill="#E52328"/>
</g>
<defs>
<clipPath id="clip0_28_327">
<rect width="58" height="54" fill="white"/>
</clipPath>
</defs>
</svg>
