<svg width="73" height="72" viewBox="0 0 73 72" fill="none" xmlns="http://www.w3.org/2000/svg">
<g clip-path="url(#clip0_10_84)">
<path d="M70.0486 48.757C66.5618 44.0792 61.739 42.1222 55.8622 42.9365C55.0703 43.046 54.5404 42.914 53.9764 42.3468C51.555 39.9041 49.1222 37.4697 46.6182 35.1112C45.8235 34.3615 45.9061 33.974 46.6439 33.258C51.0422 28.993 55.4463 24.728 59.7193 20.3422C61.192 18.8288 62.6363 17.8152 64.8526 18.2111C65.9066 18.3992 66.6017 17.8714 67.0973 16.8999C68.8379 13.48 70.6069 10.0686 72.4557 6.70202C73.071 5.58452 72.9029 4.81519 71.997 3.99812C70.9146 3.0182 69.8719 1.99056 68.8749 0.923598C68.0716 0.061608 67.3024 -0.0394722 66.2427 0.524892C63.2004 2.14218 60.1722 3.81281 57.0159 5.18862C54.9876 6.07307 54.2128 7.30569 54.4863 9.40591C54.5746 10.0882 54.6885 10.8154 54.0077 11.4752C49.0026 16.3355 44.0374 21.2323 39.0949 26.1515C38.4625 26.7805 38.1235 26.7384 37.5224 26.1319C35.1068 23.6863 32.6598 21.2632 30.17 18.8906C29.475 18.228 29.3012 17.5906 29.4208 16.6668C30.1558 10.9305 28.1703 6.22189 23.4557 2.83851C18.7725 -0.513988 13.6449 -0.822844 8.38057 1.51604C6.78531 2.2236 6.66567 3.16421 7.93333 4.43052C9.86757 6.35947 11.8218 8.27157 13.7674 10.1921C15.4766 11.8768 15.7187 13.2526 14.5138 14.4094C13.3344 15.5437 11.9613 15.277 10.2351 13.5755C8.32075 11.6914 6.41499 9.79619 4.49214 7.92059C3.10768 6.57005 2.23029 6.73852 1.38709 8.50461C0.469815 10.4336 -0.000215644 12.4664 -0.000215644 14.6003C-0.00591298 23.6526 8.06152 30.4362 17.1972 29.0492C17.7812 28.9593 18.2768 28.9509 18.7497 29.4338C20.2652 30.9837 21.8234 32.4915 23.3703 34.0077C23.752 34.3811 24.0596 34.6675 23.2905 34.9932C22.4957 35.3302 21.9117 35.9704 21.305 36.5656C15.3655 42.4226 9.42318 48.2741 3.48656 54.1339C3.01937 54.5972 2.56359 55.0773 2.15623 55.594C-1.04568 59.6456 -0.644015 65.3679 3.0792 69.0095C6.74828 72.5979 12.5396 72.991 16.5733 69.8294C17.9037 68.7877 28.7115 58.0002 29.9478 56.8406C30.1529 56.6497 30.3381 56.4503 30.4891 56.2426C32.8791 53.9121 35.4686 51.7641 37.4427 49.0546C37.9327 48.3808 38.1121 48.524 38.5565 48.9676C39.9865 50.4024 41.4052 51.8512 42.8979 53.2242C43.5388 53.8166 43.6385 54.4147 43.5303 55.2177C42.7498 60.9568 44.7096 65.6683 49.3986 69.0882C54.0533 72.4828 59.178 72.8281 64.4623 70.5286C66.1573 69.7901 66.2997 68.8551 64.9836 67.5411C62.9468 65.511 60.8872 63.5063 58.8476 61.4819C57.4375 60.0836 57.2979 58.6292 58.4402 57.565C59.5512 56.5318 60.93 56.6918 62.3144 58.0452C64.4025 60.0892 66.4678 62.1557 68.5644 64.1914C69.7694 65.3622 70.7408 65.2275 71.4359 63.7281C73.8629 58.486 73.504 53.3955 70.0457 48.7542L70.0486 48.757ZM57.4603 8.68431C57.4717 7.76336 58.5086 7.71563 59.1325 7.3815C61.4627 6.14046 63.8442 4.99208 66.1687 3.74261C66.9321 3.33268 67.3907 3.42252 67.9947 4.03462C69.6868 5.74737 69.721 5.71648 68.6128 7.83355C67.6585 9.65581 66.6188 11.4416 65.7699 13.3115C65.052 14.8895 64.1632 15.9228 62.2859 15.2966C59.9386 16.0042 58.765 14.3223 57.7338 12.9213C56.8649 11.7448 57.4403 10.1107 57.4574 8.68712L57.4603 8.68431ZM20.1513 26.817C19.4249 26.087 18.7355 25.8371 17.6359 26.087C8.956 28.0552 1.38993 20.7606 3.14756 12.18C3.22163 11.8262 3.35552 11.4837 3.53498 10.894C5.44929 12.8089 7.20977 14.6284 9.04146 16.3776C10.6453 17.9079 12.5681 18.3431 14.679 17.5738C16.7443 16.8213 17.8695 15.277 18.1031 13.1487C18.2854 11.4696 17.6644 10.0292 16.4508 8.84716C14.6989 7.14003 12.9384 5.44413 11.0013 3.57134C13.4996 2.65038 15.7757 2.68127 18.0717 3.33548C24.279 5.10439 27.8626 11.1552 26.3756 17.4643C26.1363 18.4779 26.3614 19.1433 27.0707 19.8312C29.8738 22.5548 32.6199 25.3401 35.4458 28.0384C36.1779 28.7375 36.1409 29.1081 35.4287 29.7764C33.7736 31.3291 33.8106 31.3684 32.1698 29.7539C31.0275 28.6308 29.8852 27.5077 28.7486 26.3818C28.0706 25.7135 27.2929 25.3682 26.5067 26.101C25.6577 26.89 25.9967 27.693 26.7231 28.4062C28.1332 29.7932 29.5034 31.2224 30.9648 32.5533C31.677 33.2019 31.5773 33.5809 30.9363 34.1986C29.2585 35.8131 29.2869 35.8412 27.5863 34.165C25.1051 31.7194 22.6097 29.285 20.1484 26.8198L20.1513 26.817ZM15.2487 67.2463C12.1807 69.9052 7.78235 69.7283 4.97641 66.8784C2.2189 64.0791 2.06222 59.7186 4.86531 56.8631C9.71659 51.9214 14.7075 47.1116 19.6243 42.2317C20.0971 41.7628 20.3963 41.7347 20.8862 42.2233C23.9542 45.2866 27.0394 48.333 30.1529 51.3514C30.7284 51.9073 30.603 52.233 30.0931 52.6963C29.4208 53.3084 28.7827 53.9542 28.1475 54.6056C28.0848 54.6618 28.025 54.7207 27.9623 54.7825C26.9624 55.7821 16.3198 66.3197 15.2544 67.2435L15.2487 67.2463ZM32.9646 49.779C32.5458 49.8801 32.3749 49.5516 32.1556 49.3382C29.0733 46.3114 26.0053 43.2706 22.9116 40.2522C22.4416 39.7946 22.3704 39.4632 22.8974 39.0084C23.7377 38.284 24.3673 37.2563 25.7631 37.2451C26.4098 37.2844 27.0166 37.6017 27.5379 38.1183C29.8054 40.3645 32.11 42.5799 34.349 44.857C35.7905 46.3227 34.9159 49.3017 32.9617 49.779H32.9646ZM34.0955 40.6032C31.1186 38.0004 31.1044 38.0172 33.9189 35.2431C40.6304 28.6308 47.3561 22.0325 54.0276 15.3809C54.8765 14.5357 55.3722 14.4936 56.0986 15.4146C56.5886 16.0379 57.2267 16.5489 57.7936 17.1133C57.9588 17.2761 58.1069 17.453 58.3006 17.6636C58.1069 17.8967 57.9474 18.1269 57.7537 18.3206C50.2418 25.7304 42.7241 33.1373 35.2179 40.5555C34.8134 40.9542 34.5883 41.0356 34.0955 40.606V40.6032ZM69.7865 59.8646C69.7124 60.21 69.5643 60.5385 69.3563 61.1562C67.4335 59.202 65.6929 57.3601 63.8641 55.5996C62.3087 54.1002 60.4058 53.665 58.3491 54.3866C56.2895 55.1082 55.1101 56.6244 54.8452 58.7611C54.6287 60.4992 55.2725 61.9704 56.5202 63.1946C58.2665 64.9046 60.0155 66.6117 61.9042 68.4564C59.1182 69.4532 56.5544 69.3212 54.0105 68.3946C48.3104 66.3169 45.1512 60.5385 46.547 54.6197C46.7977 53.5527 46.5784 52.8564 45.8292 52.1263C43.0546 49.4365 40.3369 46.6905 37.5481 44.0118C36.8787 43.3689 36.7106 43.001 37.4883 42.2794C39.1946 40.6959 39.149 40.6481 40.8525 42.3272C41.992 43.4531 43.1315 44.5818 44.2795 45.6993C44.9831 46.3844 45.7807 46.5922 46.5185 45.8285C47.2022 45.1209 46.9772 44.3656 46.3305 43.7198C44.8948 42.2907 43.4847 40.8306 41.9892 39.4632C41.277 38.8146 41.3739 38.4412 42.0177 37.8263C43.6984 36.2118 43.6699 36.1809 45.3648 37.8544C47.8489 40.3028 50.3472 42.7371 52.8084 45.208C53.5434 45.9464 54.2441 46.1598 55.3323 45.9155C64.0265 43.9669 71.5925 51.298 69.7865 59.8702V59.8646Z" fill="#E52328"/>
</g>
<defs>
<clipPath id="clip0_10_84">
<rect width="73" height="72" fill="white"/>
</clipPath>
</defs>
</svg>
