<svg width="56" height="53" viewBox="0 0 56 53" fill="none" xmlns="http://www.w3.org/2000/svg">
<g clip-path="url(#clip0_27_301)">
<path d="M17.4678 4.80631C21.0855 4.80631 24.7032 4.79466 28.3209 4.80864C32.2164 4.82495 34.7535 7.35275 34.7628 11.2132C34.7721 15.3672 34.7745 19.5212 34.7628 23.6775C34.7511 27.2071 32.3051 29.7978 28.7784 29.9748C27.8518 30.0214 27.1562 30.3872 26.5284 31.0163C24.1944 33.353 21.8464 35.6781 19.5053 38.0079C19.0899 38.4226 18.6908 38.8955 18.0046 38.616C17.3417 38.3457 17.4654 37.7446 17.4631 37.2134C17.4561 35.3892 17.4701 33.5627 17.4561 31.7385C17.4467 30.3826 17.064 29.9981 15.7359 29.9935C12.662 29.9865 9.59046 30.0005 6.51656 29.9888C2.69811 29.9748 0.060676 27.3888 0.0303338 23.5633C-0.00467642 19.4489 -0.0023424 15.3322 0.0303338 11.2178C0.060676 7.37372 2.6491 4.82728 6.50489 4.81097C10.1623 4.79466 13.8174 4.80864 17.4748 4.80631H17.4678ZM19.3303 35.1842C19.426 35.2192 19.5217 35.2564 19.6197 35.2914C21.5033 33.388 23.3845 31.4822 25.268 29.5788C26.1783 28.6609 27.2519 28.1623 28.573 28.097C31.2151 27.9666 32.8722 26.2123 32.8816 23.5819C32.8956 19.4303 32.8979 15.281 32.8816 11.1293C32.8699 8.43842 31.1194 6.68644 28.4306 6.68411C21.1252 6.67246 13.8174 6.67246 6.51189 6.68411C3.6854 6.68876 1.93722 8.40814 1.91622 11.2458C1.88354 15.3182 1.88821 19.393 1.91622 23.4655C1.93489 26.3614 3.6994 28.0994 6.58191 28.111C9.69082 28.1227 12.7997 28.1064 15.9086 28.118C18.0629 28.125 19.2953 29.3505 19.328 31.5008C19.3466 32.7286 19.3303 33.9564 19.3303 35.1819V35.1842Z" fill="#E52328"/>
<path d="M40.7799 49.5659C42.6611 47.6625 44.5447 45.7637 46.4212 43.8556C47.3315 42.9284 48.4145 42.4112 49.7239 42.3483C52.2423 42.2248 53.9624 40.6871 54.0161 38.2013C54.1141 33.8166 54.1188 29.4273 54.0114 25.045C53.9484 22.5312 52.1022 20.933 49.5722 20.9237C45.6837 20.9074 41.7952 20.919 37.9068 20.919C37.6337 20.919 37.3606 20.9307 37.0898 20.912C36.5017 20.8701 36.1329 20.5742 36.1492 19.9591C36.1632 19.3441 36.5554 19.0552 37.1412 19.0552C41.6132 19.0552 46.0898 18.9317 50.5548 19.1251C53.561 19.2556 55.853 21.8742 55.9277 25.0311C56.0304 29.4157 56.0304 33.805 55.9323 38.1896C55.8553 41.64 53.3929 44.0187 49.9199 44.2144C48.9583 44.268 48.2394 44.7037 47.5859 45.3607C45.2846 47.6741 42.9716 49.9759 40.6516 52.2731C40.2548 52.6668 39.8953 53.2376 39.1811 52.9021C38.5229 52.5923 38.5673 51.9795 38.5673 51.3948C38.5673 49.6474 38.5719 47.9001 38.5673 46.1551C38.5603 44.5266 38.2779 44.24 36.6814 44.2377C33.5702 44.233 30.4589 44.254 27.3477 44.2261C24.3158 44.1981 21.9188 42.2038 21.3072 39.2497C21.2536 38.9864 21.2419 38.7115 21.2256 38.4412C21.1882 37.7819 21.3819 37.2507 22.1428 37.2344C22.8244 37.2204 23.0251 37.6887 23.1044 38.3038C23.3775 40.4472 24.4652 41.7682 26.3394 42.2318C26.7852 42.3413 27.2613 42.3506 27.7258 42.3506C30.7973 42.3599 33.8712 42.3506 36.9428 42.3576C39.2115 42.3646 40.4088 43.5248 40.4485 45.7684C40.4695 46.9962 40.4532 48.2263 40.4532 49.4564C40.5652 49.4937 40.6749 49.531 40.7869 49.5706L40.7799 49.5659Z" fill="#E52328"/>
<path d="M8.04533 41.6703C7.51551 42.7024 7.03237 43.6203 6.57023 44.5499C6.29715 45.0974 5.92838 45.4678 5.29119 45.1859C4.61666 44.8877 4.56531 44.3612 4.88041 43.7391C5.73699 42.0454 6.58657 40.3493 7.42915 38.6486C7.8306 37.8378 8.38376 37.7353 9.13298 38.2036C10.5474 39.0866 11.9805 39.9439 13.4042 40.8153C13.9434 41.1438 14.3822 41.5608 13.9877 42.2295C13.5653 42.9447 12.9794 42.7723 12.3889 42.4019C11.6374 41.9312 10.8695 41.4886 10.0619 41.0063C10.419 44.508 14.0741 48.6876 17.6591 49.7686C17.8062 49.8129 17.9649 49.8222 18.1143 49.8664C18.7258 50.0435 19.0525 50.4303 18.8892 51.0803C18.7304 51.7163 18.217 51.7885 17.6848 51.6837C15.7686 51.3039 14.1371 50.3534 12.683 49.0883C10.7971 47.4481 9.49709 45.4026 8.60082 43.0891C8.43278 42.6581 8.26473 42.2295 8.04533 41.6726V41.6703Z" fill="#E52328"/>
<path d="M46.9627 9.94108C47.4529 8.96957 47.901 8.07494 48.3561 7.18263C48.6315 6.64679 49.0377 6.26703 49.6609 6.56058C50.3284 6.87743 50.319 7.45988 50.0273 8.04931C49.1847 9.75004 48.3375 11.4508 47.4785 13.1422C47.1098 13.8668 46.5729 14.0368 45.8517 13.5895C44.4023 12.6879 42.9412 11.8026 41.4825 10.9149C40.9223 10.5725 40.5605 10.1205 40.9573 9.48212C41.3541 8.84376 41.9189 8.96724 42.4768 9.31438C43.2633 9.80363 44.0592 10.2766 45.1049 10.9103C43.7231 6.68173 41.5782 3.51091 37.4446 2.05014C37.1879 1.95928 36.9195 1.91036 36.6627 1.8195C36.1656 1.64243 35.8575 1.29064 35.9952 0.75945C36.1376 0.207294 36.5577 -0.118874 37.1389 0.0348911C37.8857 0.230592 38.635 0.46124 39.3328 0.785078C42.8875 2.44155 45.0372 5.33745 46.4166 8.89735C46.5286 9.18624 46.6313 9.47746 46.741 9.76635C46.7527 9.79431 46.7923 9.80829 46.9604 9.93876L46.9627 9.94108Z" fill="#E52328"/>
<path d="M39.865 31.8386C43.0906 31.8386 46.3162 31.8409 49.5418 31.8363C50.2443 31.8363 50.9609 31.8619 50.9212 32.8055C50.8862 33.6279 50.2396 33.7187 49.5651 33.7187C43.0369 33.7141 36.5063 33.7117 29.9781 33.7187C29.2429 33.7187 28.5753 33.5766 28.5917 32.7076C28.6057 31.8736 29.2872 31.8293 29.9547 31.8316C33.2574 31.8409 36.5623 31.8363 39.865 31.8363V31.8386Z" fill="#E52328"/>
<path d="M44.2739 26.839C42.4861 26.839 40.6982 26.8436 38.908 26.839C38.2545 26.839 37.5776 26.7668 37.5776 25.9094C37.5776 25.073 38.2335 24.9519 38.8964 24.9495C42.5117 24.9449 46.1271 24.9449 49.7425 24.9495C50.4007 24.9495 51.0636 25.0614 51.0729 25.8978C51.0822 26.7551 50.41 26.8343 49.7542 26.8367C47.9267 26.8436 46.0991 26.8367 44.2739 26.8367V26.839Z" fill="#E52328"/>
<path d="M32.5198 38.6906C31.1241 38.6906 29.7284 38.6882 28.3326 38.6906C27.6978 38.6906 27.1003 38.5601 27.0793 37.8076C27.0536 36.9898 27.6768 36.8081 28.356 36.8081C31.1474 36.8035 33.9389 36.8011 36.7304 36.8081C37.4166 36.8081 38.0281 37.0271 37.9861 37.8309C37.9464 38.5694 37.3419 38.6976 36.7071 38.6929C35.3113 38.6859 33.9156 38.6929 32.5198 38.6906Z" fill="#E52328"/>
<path d="M15.8526 12.5108C12.9771 12.5108 10.1016 12.5108 7.22846 12.5108C6.53059 12.5108 5.81405 12.4642 5.81171 11.5462C5.80938 10.5887 6.56326 10.6306 7.24013 10.6306C12.9515 10.6306 18.6628 10.6306 24.3741 10.6306C25.0557 10.6306 25.8282 10.598 25.8586 11.5066C25.8912 12.4851 25.1 12.5131 24.3648 12.5131C21.529 12.5108 18.6931 12.5131 15.855 12.5131L15.8526 12.5108Z" fill="#E52328"/>
<path d="M12.4683 15.9823C14.3355 15.9823 16.2027 15.9916 18.07 15.9776C18.7328 15.973 19.2906 16.1547 19.3023 16.8839C19.314 17.6015 18.7678 17.8601 18.1073 17.8601C14.4126 17.8624 10.7178 17.8647 7.02307 17.8601C6.38589 17.8601 5.82105 17.6877 5.80705 16.9212C5.79305 16.0475 6.43023 15.9776 7.10009 15.98C8.89028 15.9846 10.6781 15.98 12.4683 15.98V15.9823Z" fill="#E52328"/>
<path d="M18.9802 21.2778C20.7237 21.2778 22.4696 21.2802 24.2131 21.2778C24.8876 21.2778 25.5434 21.4013 25.5318 22.2167C25.5201 23.0089 24.8806 23.1719 24.2014 23.1719C20.6747 23.1719 17.1457 23.1743 13.619 23.1673C12.9608 23.1673 12.3166 23.0601 12.3166 22.2051C12.3166 21.3291 12.9818 21.2825 13.6306 21.2802C15.4138 21.2755 17.197 21.2802 18.9802 21.2802V21.2778Z" fill="#E52328"/>
</g>
<defs>
<clipPath id="clip0_27_301">
<rect width="56" height="53" fill="white"/>
</clipPath>
</defs>
</svg>
