<svg width="78" height="74" viewBox="0 0 78 74" fill="none" xmlns="http://www.w3.org/2000/svg">
<g clip-path="url(#clip0_10_73)">
<path d="M3.43807 32.0196C2.82596 35.548 3.48071 36.9321 6.45295 38.5373C7.97866 39.3611 9.614 39.8972 11.295 40.2879C12.4005 40.5453 13.0887 41.1026 12.8268 42.2808C12.5497 43.5225 11.5782 43.5861 10.5459 43.3529C8.3106 42.8471 6.1606 42.1021 4.2055 40.8966C3.46853 40.4423 3.34367 40.618 3.23708 41.4206C2.88687 44.0162 3.91924 45.791 6.21846 46.9692C7.85076 47.8051 9.55309 48.429 11.3377 48.8318C12.4522 49.0832 13.3445 49.6072 13.0095 50.8732C12.6867 52.0877 11.7305 52.2028 10.5702 51.909C7.69544 51.1821 4.93942 50.2341 2.62497 48.3048C0.895225 46.8632 0.0120799 45.0672 0.0212159 42.7654C0.0608052 32.0196 0.10344 21.2707 -0.000101397 10.5249C-0.0305547 7.38721 1.30634 5.23684 3.8157 3.61952C6.50472 1.88711 9.51046 0.993648 12.635 0.518143C18.8962 -0.435894 25.066 -0.172398 31.0348 2.17484C32.5057 2.75332 33.8731 3.51655 35.076 4.5463C36.7387 5.96979 37.6158 7.71431 37.5853 9.97069C37.5153 15.0649 37.4544 20.1653 37.5945 25.2565C37.6828 28.4033 36.3002 30.5416 33.7726 32.1498C30.9404 33.9488 27.7794 34.8302 24.4965 35.3057C18.214 36.2143 12.0594 35.8175 6.13928 33.3552C5.22264 32.9736 4.35472 32.4769 3.43807 32.0196ZM18.4211 15.286C22.4927 15.3345 26.2902 14.8378 29.9081 13.3568C31.3211 12.7783 32.6519 12.0453 33.663 10.8642C34.5948 9.77382 34.5796 8.67744 33.6416 7.59922C32.655 6.46649 31.3942 5.70629 30.0086 5.19141C22.4897 2.39896 14.9616 2.42319 7.46095 5.25502C6.13015 5.75778 4.92115 6.51495 3.98014 7.62042C3.05436 8.71075 3.0635 9.80411 3.99537 10.8884C4.97597 12.0302 6.25805 12.751 7.61931 13.3144C11.1336 14.7681 14.8215 15.3103 18.418 15.286H18.4211ZM34.3147 23.4423C23.924 28.3609 13.6582 28.3246 3.37717 23.4998C2.88992 27.3402 3.55989 28.8546 7.08942 30.2902C14.852 33.4491 22.7181 33.4521 30.4897 30.3144C34.0771 28.8667 34.7562 27.3705 34.3177 23.4423H34.3147ZM3.40762 14.8953C2.82901 18.4389 3.5203 19.8624 6.67526 21.4525C7.48532 21.8583 8.33496 22.2066 9.19984 22.4792C13.3537 23.7906 17.6049 24.1783 21.9445 23.7573C25.5563 23.409 29.0645 22.7366 32.1647 20.7377C34.4456 19.2688 35.009 17.4576 34.1837 14.9105C23.9149 19.7927 13.6673 19.7776 3.40762 14.8984V14.8953Z" fill="#E52328"/>
<path d="M74.5861 51.4421C69.8598 54.2255 64.8411 55.1553 59.6001 55.1977C58.7748 55.2038 58.0804 55.0402 57.7181 54.2255C57.4683 53.6652 57.5932 53.1352 57.9617 52.6627C58.4276 52.063 59.1098 52.1054 59.7676 52.0782C62.8129 51.9449 65.8369 51.6511 68.7391 50.6486C69.6466 50.3367 70.5511 49.9884 71.4007 49.5522C74.4917 47.9652 75.1617 46.5629 74.5557 42.9164C72.1133 44.352 69.5492 45.3605 66.8084 45.9057C64.4178 46.3812 62.0089 46.675 59.5635 46.6841C58.5068 46.6871 57.7089 46.3146 57.6297 45.2182C57.5384 43.9916 58.3972 43.5463 59.4874 43.516C62.5388 43.4312 65.5567 43.1435 68.4802 42.1986C69.8354 41.7624 71.151 41.2445 72.3509 40.4722C74.6349 39.0033 75.1647 37.6222 74.5039 34.7359C69.3938 37.7585 63.7843 38.6005 57.9891 38.4491C54.0149 38.3461 50.126 37.6889 46.4503 36.0776C45.1439 35.5052 43.9227 34.7964 42.8477 33.8515C41.2885 32.4825 40.381 30.8349 40.4297 28.6936C40.4845 26.3222 40.5272 23.9477 40.4145 21.5792C40.2927 19.0049 41.3829 17.0998 43.3502 15.6006C45.9479 13.6168 48.981 12.6446 52.1451 12.0661C58.2297 10.9516 64.2533 11.1484 70.1643 13.0959C71.5621 13.5562 72.896 14.1711 74.1385 14.9676C76.7057 16.6213 78.0365 18.814 77.9999 22.0093C77.8903 32.4038 77.8934 42.7983 77.9999 53.1927C78.0334 56.391 76.6844 58.5959 74.0928 60.2072C70.5206 62.4302 66.516 63.248 62.3926 63.6266C61.5339 63.7053 60.669 63.6841 59.8071 63.7265C58.6895 63.778 57.6602 63.572 57.6328 62.2303C57.6054 60.925 58.5586 60.6221 59.7127 60.6039C62.5114 60.5615 65.2766 60.2344 67.9625 59.4258C69.0254 59.1078 70.079 58.7231 71.081 58.2476C74.4339 56.6485 75.1008 55.3582 74.5861 51.4391V51.4421ZM59.2407 14.5587C56.1284 14.5315 53.0709 14.9191 50.0926 15.8126C48.0948 16.4123 46.161 17.1755 44.6475 18.6899C43.2741 20.0649 43.2832 21.2309 44.6658 22.609C45.9509 23.8901 47.5588 24.6412 49.252 25.1894C54.9255 27.0309 60.6842 27.1793 66.4947 25.9224C68.8366 25.4166 71.0901 24.6624 73.0239 23.1966C75.2652 21.5005 75.247 19.7772 73.0056 18.0569C72.2412 17.4693 71.3977 17.015 70.5084 16.6364C66.9089 15.0918 63.1144 14.6011 59.2377 14.5587H59.2407ZM43.676 26.2434C43.268 30.1959 43.9806 31.4679 47.571 33.0943C48.3506 33.4487 49.1607 33.7425 49.9768 34.0029C54.2007 35.3507 58.5464 35.493 62.9073 35.1054C65.8887 34.8389 68.8061 34.1725 71.489 32.7581C74.4856 31.1772 75.2013 29.6537 74.574 26.3101C64.3051 31.1651 54.0545 31.1438 43.676 26.2434Z" fill="#E52328"/>
<path d="M16.3961 56.1487C16.3961 53.7287 16.5179 51.2997 16.3626 48.8889C16.1646 45.7996 17.5685 43.6735 20.0261 42.0743C23.1963 40.0088 26.7715 39.0881 30.4777 38.6883C36.2912 38.0583 42.0164 38.3733 47.5072 40.6266C48.8745 41.1869 50.1566 41.8987 51.2864 42.8497C52.9979 44.2883 53.9511 46.054 53.9206 48.371C53.8567 53.4138 53.8049 58.4596 53.9359 63.5023C54.015 66.5734 52.6903 68.7087 50.2388 70.3169C47.565 72.0705 44.5684 72.9791 41.4439 73.4667C35.0792 74.4632 28.8149 74.1694 22.7608 71.7676C21.3417 71.2043 20.0231 70.4471 18.8659 69.4477C17.2549 68.0575 16.326 66.3735 16.3809 64.1717C16.4479 61.5004 16.3961 58.826 16.3961 56.1517V56.1487ZM35.7674 53.6924C37.4149 53.7681 39.6259 53.5016 41.8154 53.0564C44.2091 52.5718 46.5327 51.8722 48.5761 50.482C51.3291 48.6103 51.3412 46.6992 48.6339 44.8092C47.5041 44.0218 46.2647 43.4554 44.9582 43.0375C39.3274 41.2415 33.6205 41.087 27.8618 42.3348C25.5717 42.8315 23.3577 43.5493 21.4452 44.9486C18.9998 46.7355 18.9968 48.4346 21.3843 50.2609C22.3162 50.9726 23.3608 51.4754 24.454 51.8934C27.9044 53.2199 31.4979 53.6985 35.7674 53.6894V53.6924ZM50.5251 53.3017C40.2167 58.1779 29.9204 58.1537 19.6272 53.2411C19.2161 57.1421 19.9104 58.399 23.379 60.0345C23.6531 60.1647 23.9363 60.2677 24.2195 60.3828C28.4404 62.091 32.853 62.4271 37.3449 62.197C40.9201 62.0152 44.3857 61.352 47.5772 59.6771C50.4885 58.1476 51.1829 56.5454 50.5251 53.3017ZM19.7185 61.6457C19.0973 65.2408 19.7399 66.6158 22.703 68.221C23.1476 68.4603 23.6105 68.6662 24.0764 68.8631C27.0487 70.1382 30.1945 70.647 33.3951 70.7833C38.359 70.9953 43.2011 70.4501 47.7173 68.1574C50.0165 66.9914 51.0672 65.2226 50.723 62.6301C50.6225 61.888 50.5769 61.6306 49.7638 62.0667C42.7321 65.8556 35.2528 66.0828 27.5999 64.6926C24.8073 64.1838 22.1853 63.154 19.7185 61.6427V61.6457Z" fill="#E52328"/>
</g>
<defs>
<clipPath id="clip0_10_73">
<rect width="78" height="74" fill="white"/>
</clipPath>
</defs>
</svg>
