<svg width="73" height="72" viewBox="0 0 73 72" fill="none" xmlns="http://www.w3.org/2000/svg">
<g clip-path="url(#clip0_10_78)">
<path d="M4.91791 62.7033C3.93791 62.7033 2.95496 62.6946 1.97496 62.7033C1.23039 62.712 0.435793 62.7934 0.0944099 61.9395C-0.252859 61.0682 0.462279 60.6151 0.965524 60.1127C3.90848 57.1968 6.82789 54.2577 9.82676 51.4028C10.7067 50.5663 10.845 50.0116 10.1446 48.9196C3.45232 38.502 0.0679233 27.1056 0.00612121 14.7595C-0.00270765 12.9385 0.185642 12.7817 2.01616 12.7352C14.2206 12.4186 25.1331 8.57335 34.6947 1.05998C36.5105 -0.36602 36.4899 -0.360212 38.3852 1.12388C47.9174 8.58787 58.7916 12.4099 70.9402 12.7352C72.8413 12.7875 73.0032 12.9153 72.9914 14.8669C72.9031 27.2101 69.504 38.6007 62.797 49.0125C62.176 49.9768 62.2025 50.4792 63.0413 51.2779C66.1137 54.1996 69.0979 57.2113 72.1144 60.1911C72.597 60.6674 73.221 61.1176 72.9208 61.9104C72.597 62.7672 71.8113 62.712 71.0608 62.7091C69.0008 62.6975 66.9377 62.7556 64.8806 62.683C63.88 62.6481 63.5063 62.8863 63.5533 63.9434C63.6416 65.9735 63.5739 68.0094 63.5798 70.0424C63.5798 70.7743 63.6769 71.5585 62.8117 71.9041C61.9259 72.2584 61.4668 71.5527 60.9606 71.0531C58.1795 68.3202 55.3808 65.6047 52.6526 62.8224C51.9316 62.0876 51.499 62.1312 50.7633 62.7788C46.8285 66.2349 42.473 69.0927 37.8054 71.5033C36.8784 71.9825 36.1544 72.0028 35.2186 71.5178C30.6452 69.1421 26.3397 66.3801 22.4903 62.9734C21.4691 62.0702 20.9276 62.2096 20.0535 63.1128C17.4078 65.837 14.665 68.4712 11.9575 71.1403C11.4748 71.6166 11.0157 72.2264 10.2123 71.9215C9.34706 71.5933 9.41475 70.815 9.41769 70.0744C9.42946 67.9455 9.39415 65.8138 9.43535 63.685C9.45006 62.9386 9.23523 62.6481 8.44652 62.6888C7.27228 62.7469 6.09215 62.7033 4.91497 62.7033H4.91791ZM70.6223 17.0539C70.9931 15.4652 70.431 14.9976 68.8389 14.9802C66.7935 14.957 64.7394 14.6462 62.7117 14.318C53.3001 12.7846 44.8303 9.10484 37.3316 3.27885C36.7224 2.80545 36.3075 2.78512 35.6836 3.26723C26.1749 10.6151 15.3477 14.4807 3.29929 15.0383C2.47526 15.076 2.33694 15.3868 2.36931 16.0867C2.49586 18.8894 2.70187 21.6833 3.20217 24.4511C6.78669 44.264 17.5138 59.0468 35.2833 68.8894C36.1515 69.3715 36.8137 69.4035 37.7024 68.9069C58.206 57.4756 68.8536 39.9744 70.6223 17.0539ZM68.9713 60.3741C66.1873 57.6266 63.6799 55.1841 61.2166 52.701C60.6575 52.1376 60.4309 52.4657 60.1101 52.8869C58.2531 55.3265 56.2489 57.6383 54.0505 59.7874C53.7827 60.0488 53.3913 60.2928 53.8357 60.7284C56.2136 63.0634 58.5886 65.4043 61.2166 67.992C61.2166 65.8138 61.2608 63.9957 61.2019 62.1776C61.1578 60.8852 61.6522 60.3131 63.003 60.3567C64.8541 60.4177 66.7052 60.3712 68.9713 60.3712V60.3741ZM4.04974 60.3741C6.26284 60.3741 8.0757 60.4264 9.87973 60.3567C11.26 60.3044 11.8545 60.8097 11.7985 62.2096C11.7279 64.019 11.7809 65.837 11.7809 68.0472C14.4031 65.4508 16.7339 63.1302 19.0824 60.8272C19.4591 60.4583 19.3855 60.2027 19.0441 59.8716C16.7604 57.6731 14.6944 55.2829 12.7903 52.7591C12.4195 52.2682 12.1752 52.3234 11.7721 52.7242C9.30292 55.1928 6.81318 57.6412 4.04974 60.3712V60.3741Z" fill="#E52328"/>
<path d="M65.9045 22.7203C65.0452 36.7625 58.6619 49.2451 46.4457 58.7595C43.5234 61.0364 40.5981 63.3134 37.6875 65.6049C37.0194 66.1305 36.3808 66.4587 35.598 65.814C30.0299 61.2455 23.8791 57.3422 19.1321 51.8328C11.3539 42.8063 7.32501 32.3683 7.07486 20.5217C7.03955 18.785 7.27204 18.5904 8.97895 18.541C17.0544 18.2971 24.3235 15.782 30.7686 10.9696C32.1753 9.91822 33.6291 8.91624 34.9388 7.76034C36.0983 6.73803 37.0077 6.87453 38.123 7.80971C39.6151 9.05855 41.2043 10.1999 42.7788 11.35C49.115 15.9707 56.2487 18.3087 64.1064 18.5468C65.8781 18.5991 65.9693 18.7414 65.9045 22.7232V22.7203ZM9.46748 22.122C9.96484 31.9704 13.8142 41.6707 20.018 49.2451C24.5472 54.7719 30.5126 58.6549 35.9717 63.1246C36.4868 63.5457 36.8487 63.2698 37.2549 62.9504C38.5145 61.9513 39.7829 60.9609 41.0572 59.9793C45.7806 56.3518 50.454 52.6866 54.065 47.883C59.7979 40.2592 62.8851 31.709 63.5443 22.2614C63.6149 21.2391 63.4413 20.7802 62.2641 20.8064C61.1487 20.8325 60.0245 20.6031 58.9121 20.4404C51.2427 19.3223 44.5946 16.0259 38.641 11.2222C36.5456 9.53195 36.4632 9.52323 34.3708 11.2222C27.4872 16.8217 19.6884 20.2081 10.7447 20.8064C9.62346 20.8819 9.22911 21.1984 9.47043 22.1249L9.46748 22.122Z" fill="#E52328"/>
<path d="M18.8408 35.9232C18.8556 26.3159 26.7868 18.544 36.5633 18.5527C46.2986 18.5615 54.171 26.3856 54.1592 36.0394C54.1475 45.6468 46.2192 53.4186 36.4397 53.407C26.7044 53.3954 18.8261 45.5683 18.8408 35.9203V35.9232ZM36.5103 20.882C28.1494 20.8645 21.2158 27.6635 21.2011 35.8942C21.1864 44.2556 28.0493 51.072 36.4897 51.072C44.8772 51.072 51.7696 44.3166 51.7961 36.0597C51.8225 27.7041 44.9684 20.8994 36.5103 20.8791V20.882Z" fill="#E52328"/>
<path d="M48.2645 30.1813C48.2851 30.675 47.9496 30.9741 47.6406 31.282C42.7259 36.135 37.8023 40.9823 32.8964 45.8469C32.093 46.6427 31.419 46.5759 30.6509 45.8034C28.5232 43.6658 26.3777 41.5457 24.2088 39.4488C23.3465 38.6153 23.3936 37.9154 24.247 37.1254C25.2476 36.1989 26.2129 35.2376 27.1606 34.2589C27.9434 33.4457 28.6644 33.4834 29.4002 34.2908C29.4325 34.3257 29.4678 34.3605 29.5032 34.3925C30.3184 35.0633 30.9334 36.4748 31.8575 36.3528C32.7169 36.2367 33.4408 35.0314 34.2001 34.285C36.9076 31.6247 39.6299 28.9789 42.2932 26.2779C43.2291 25.3282 43.9737 25.334 44.8624 26.2982C45.7512 27.2625 46.7224 28.1512 47.6553 29.0776C47.9643 29.3855 48.2939 29.6904 48.2674 30.1813H48.2645ZM45.3009 30.2364C44.9507 29.5365 44.368 29.0776 43.8177 28.6362C43.2938 28.2151 43.0555 28.8598 42.7877 29.1183C39.521 32.313 36.2602 35.5135 33.0318 38.746C32.1606 39.6202 31.419 39.7015 30.5714 38.7634C30.0505 38.1884 29.4208 37.7062 28.9293 37.108C28.1847 36.2047 27.7874 36.9163 27.343 37.3781C26.9192 37.8195 26.1335 38.1419 27.0193 38.9493C28.4584 40.2562 29.8269 41.6415 31.1748 43.0414C31.7045 43.5903 32.0076 43.4306 32.4638 42.9775C36.5662 38.9028 40.6893 34.8455 44.8036 30.7795C44.9713 30.614 45.1244 30.4281 45.298 30.2335L45.3009 30.2364Z" fill="#E52328"/>
</g>
<defs>
<clipPath id="clip0_10_78">
<rect width="73" height="72" fill="white"/>
</clipPath>
</defs>
</svg>
