<svg width="71" height="70" viewBox="0 0 71 70" fill="none" xmlns="http://www.w3.org/2000/svg">
<path d="M70.0656 31.6981C69.0357 20.9301 63.1689 11.4226 53.967 5.6158C44.7461 -0.20181 33.6057 -1.41381 23.3981 2.29222C13.6812 5.82318 6.07535 13.4049 2.52992 23.0955C-1.01551 32.7889 -0.0934271 43.4895 5.0616 52.4556C5.45524 53.137 5.52534 53.6865 5.31504 54.411C4.55742 57.0316 3.82137 59.7034 3.11229 62.289C2.74292 63.6383 2.37085 64.9877 1.99608 66.3344L1.94755 66.5014C1.75343 67.1774 1.51078 68.0204 2.23335 68.7503C3.00983 69.5313 3.89417 69.2512 4.60595 69.0223L4.7839 68.9658C5.98368 68.5968 7.18347 68.2278 8.38325 67.8615C10.9958 67.0616 13.6973 66.2347 16.3477 65.3917C17.1484 65.1385 17.7308 65.1924 18.4264 65.5829C23.5976 68.4971 29.1247 69.895 35.8165 69.9811C35.9864 69.9946 36.1697 70 36.3638 70C37.5124 70 39.0195 69.8007 40.2625 69.6175C49.2298 68.2924 57.2266 63.6707 62.7806 56.598C68.3347 49.5279 70.9203 40.683 70.0602 31.6927L70.0656 31.6981ZM6.68737 62.4587C7.41803 59.7788 8.11094 57.247 8.86316 54.7072C9.24062 53.4387 9.10042 52.3937 8.39403 51.2167C3.09881 42.3906 2.42477 31.9243 6.54178 22.5084C10.6696 13.0629 18.8443 6.42649 28.9656 4.29875C37.5232 2.49961 46.5553 4.46305 53.7486 9.68273C60.9419 14.9051 65.6035 22.8828 66.5337 31.5715C68.3428 48.4425 56.717 63.6222 40.0629 66.127C32.8238 67.2151 25.9756 65.925 19.7044 62.2917C18.9198 61.8365 18.1918 61.6129 17.4342 61.6129C16.9597 61.6129 16.4744 61.6991 15.954 61.8715C13.5059 62.6768 11.0605 63.4202 8.47222 64.2039C7.66068 64.4517 6.83566 64.6995 6.00255 64.9554C6.23442 64.1124 6.4609 63.2801 6.68737 62.456V62.4587Z" fill="#E52328"/>
<path d="M22.1853 45.1299C29.0147 52.5204 36.4722 56.186 44.9812 56.3369C45.1457 56.3396 45.3101 56.3423 45.4719 56.3423C52.7596 56.3423 57.5021 52.3911 58.8502 45.1757C58.9499 44.6478 59.1548 43.5516 58.1708 42.9456C57.5776 42.5793 56.9844 42.2103 56.3913 41.8413C54.0133 40.36 51.5544 38.8302 49.0713 37.4323C47.4859 36.5382 45.968 36.9448 44.8006 38.5716C43.5145 40.3627 42.4388 41.6501 41.3091 42.7409C40.8076 43.2257 40.5568 43.293 40.1362 43.0614C34.4501 39.8941 30.4787 36.5947 27.645 32.6759C26.7247 31.4047 26.7822 30.1675 27.8176 28.9645C29.8585 26.5971 30.2064 24.1865 28.8798 21.5955C28.6884 21.2212 28.497 20.8468 28.3083 20.4697C27.3943 18.6706 26.4506 16.8095 25.3695 15.0507C24.7197 13.9949 23.2988 13.2435 21.6623 13.0846C20.1255 12.9365 18.7423 13.3539 17.9632 14.1996C12.9376 19.6536 11.487 26.4974 14.0861 32.5035C16.1702 37.3219 18.896 41.5693 22.1826 45.1272L22.1853 45.1299ZM22.738 17.4209C23.9055 19.3654 24.9165 21.4447 25.9006 23.4674C26.3643 24.4208 26.2781 25.21 25.6229 26.0261C25.4962 26.1823 25.3749 26.3466 25.2535 26.5082C24.9435 26.9203 24.6496 27.3108 24.2937 27.6124C22.579 29.0615 22.9456 30.7771 23.3689 31.9433C23.9459 33.527 24.8599 35.0245 26.1702 36.522C29.4757 40.3007 33.4444 43.4062 38.3056 46.016C40.263 47.0664 41.9642 46.8375 43.6601 45.2969C45.0998 43.9906 46.2403 42.6682 47.1543 41.2542C47.3727 40.9175 47.5587 40.7371 47.7232 40.7021C47.885 40.667 48.1141 40.7505 48.4242 40.9552C50.5784 42.38 52.765 43.7186 54.8195 44.971C55.1619 45.1784 55.2266 45.3346 55.143 45.7628C54.4177 49.5389 51.4843 52.2618 47.672 52.7009C47.5048 52.7197 47.3376 52.7413 47.1705 52.7601C46.2457 52.8732 45.3722 52.9783 44.7467 52.8948H44.717C35.7496 52.3723 28.6075 48.1626 22.2473 39.6463C19.7561 36.3119 17.3377 32.6409 16.5234 28.3854C15.7901 24.5663 16.9386 20.9653 20.1309 17.0546C20.3789 16.7529 20.7645 16.5832 21.2012 16.5832C21.2444 16.5832 21.2848 16.5832 21.328 16.5886C21.9184 16.6317 22.4603 16.9495 22.7434 17.4209H22.738Z" fill="#E52328"/>
</svg>
