<svg width="53" height="55" viewBox="0 0 53 55" fill="none" xmlns="http://www.w3.org/2000/svg">
<g clip-path="url(#clip0_28_313)">
<path d="M26.4757 18.3483C18.6021 18.3483 10.7285 18.362 2.8549 18.33C2.01808 18.3277 1.74429 18.5132 1.74871 19.4433C1.78624 28.3747 1.76858 37.3062 1.773 46.2377C1.773 48.462 2.79087 49.4951 4.97234 49.4951C12.7355 49.4974 20.4988 49.4951 28.262 49.4951C28.5932 49.4951 28.9288 49.4722 29.2533 49.518C29.7038 49.5822 29.9908 49.8822 30.0151 50.3564C30.0438 50.8902 29.7501 51.22 29.2533 51.3094C28.9663 51.3597 28.666 51.3323 28.3724 51.3323C20.5363 51.3323 12.7002 51.3345 4.86194 51.3323C1.79287 51.3323 0 49.4745 0 46.295C0 34.3856 0 22.4762 0 10.5667C0 7.37807 1.78624 5.5226 4.84869 5.51572C5.91514 5.51572 6.98379 5.47678 8.04803 5.52947C8.69497 5.56154 8.87602 5.31414 8.84069 4.67961C8.80757 4.07487 8.79653 3.44492 8.92239 2.8585C9.32424 1.01676 11.0111 -0.183569 12.7974 0.031758C14.5174 0.240213 15.8399 1.77041 15.9018 3.62818C15.943 4.88654 16.5642 5.51572 17.7653 5.51572C19.1629 5.51572 20.565 5.45846 21.9582 5.53634C22.8061 5.58444 23.0512 5.29811 22.9739 4.45283C22.8083 2.6111 23.3956 1.11985 25.0957 0.322678C27.3898 -0.753956 29.9422 0.977822 30.0305 3.62359C30.0732 4.88349 30.6937 5.51343 31.8919 5.51343C33.3646 5.51343 34.8351 5.48365 36.3056 5.52718C36.9437 5.5455 37.1358 5.32559 37.1049 4.6819C37.0695 3.92597 37.0298 3.16316 37.3036 2.42097C37.9086 0.785402 39.5115 -0.22022 41.1609 0.0409209C42.797 0.299771 44.0666 1.76812 44.1571 3.50448C44.2263 4.84378 44.9203 5.51343 46.2392 5.51343C47.0495 5.51343 47.8577 5.4974 48.668 5.51801C51.046 5.57986 52.9713 7.50635 52.9801 9.96429C53.0088 17.8283 52.989 25.69 52.9956 33.554C52.9956 34.2435 52.8432 34.8391 52.0704 34.8094C51.2932 34.7796 51.216 34.1428 51.2182 33.4784C51.227 28.8214 51.1939 24.1644 51.2469 19.5074C51.2579 18.5453 51.004 18.3185 50.0943 18.3231C42.2207 18.362 34.3471 18.346 26.4735 18.346L26.4757 18.3483ZM26.4978 16.5111C28.9243 16.5111 31.3509 16.5111 33.7797 16.5111C39.2598 16.5111 44.7378 16.4905 50.2158 16.5318C51.0482 16.5386 51.2778 16.3073 51.2447 15.4551C51.1784 13.7027 51.2469 11.9458 51.216 10.1911C51.1873 8.52801 50.1009 7.41014 48.5046 7.35975C47.6965 7.33455 46.8861 7.35287 46.078 7.35287C44.8548 7.35287 44.216 8.00191 44.1615 9.29998C44.0864 11.0936 42.7926 12.5917 41.1123 12.83C39.4122 13.0705 37.8269 12.0053 37.2572 10.285C37.0342 9.60923 37.0717 8.9243 37.1071 8.24625C37.1424 7.56362 36.9658 7.30477 36.2592 7.33455C34.8262 7.39182 33.3911 7.35058 31.9581 7.35058C30.7246 7.35058 30.0821 7.9958 30.0305 9.28624C29.9599 11.0822 28.6726 12.5826 26.9924 12.8277C25.2945 13.0751 23.7003 12.0145 23.1306 10.2964C22.9562 9.77187 22.9076 9.24042 22.9739 8.71814C23.113 7.65754 22.8171 7.22001 21.6955 7.32539C20.4546 7.44221 19.1983 7.35287 17.9463 7.35287C16.6569 7.35287 15.9732 8.03245 15.8951 9.39161C15.7958 11.1188 14.5085 12.5826 12.8724 12.8277C11.2209 13.0751 9.63114 12.0603 9.03499 10.4201C8.77887 9.7146 8.78991 8.98844 8.84511 8.27374C8.90693 7.49032 8.60444 7.30477 7.90893 7.33913C6.80716 7.39182 5.70317 7.33913 4.59919 7.35746C2.87256 7.38723 1.79287 8.50739 1.773 10.3033C1.75312 11.9824 1.82378 13.6638 1.7465 15.3383C1.70234 16.2866 1.95847 16.5409 2.88581 16.5363C10.755 16.4951 18.6242 16.5134 26.4934 16.5134L26.4978 16.5111ZM10.6071 6.32205C10.6071 7.27499 10.5739 8.23022 10.6159 9.18086C10.6623 10.2575 11.4196 11.0066 12.3712 11.0066C13.3229 11.0066 14.0934 10.2552 14.1177 9.17399C14.1575 7.34371 14.1597 5.51343 14.1177 3.68315C14.0934 2.60652 13.314 1.85746 12.3624 1.85975C11.4064 1.86204 10.6645 2.60881 10.6137 3.69003C10.5739 4.56508 10.6049 5.44471 10.6049 6.32205H10.6071ZM28.2597 6.47324C28.2597 5.55696 28.2885 4.64067 28.2531 3.72897C28.209 2.64317 27.4825 1.88494 26.5353 1.86433C25.5395 1.84142 24.7667 2.61797 24.7469 3.76791C24.7138 5.55925 24.7115 7.35287 24.7469 9.14421C24.769 10.2277 25.513 10.9882 26.4625 11.0111C27.4538 11.0363 28.2134 10.2552 28.2553 9.10756C28.2885 8.23251 28.262 7.35287 28.262 6.47553L28.2597 6.47324ZM42.3929 6.44804C42.3929 5.5707 42.415 4.69336 42.3885 3.81601C42.3532 2.65233 41.6356 1.86891 40.642 1.86204C39.644 1.85516 38.8955 2.62943 38.8756 3.78853C38.8447 5.54321 38.8469 7.2979 38.8756 9.05029C38.8933 10.2117 39.6264 10.9974 40.6177 11.0066C41.6091 11.0157 42.3488 10.2346 42.3885 9.07778C42.4194 8.20273 42.3951 7.32309 42.3951 6.44575L42.3929 6.44804Z" fill="#E52328"/>
<path d="M41.5208 31.1721C47.8179 31.1675 52.9867 36.498 52.9956 43.0059C53.0066 49.6307 47.8996 54.9864 41.5605 54.9978C35.1905 55.0093 30.0327 49.6879 30.0283 43.1044C30.0261 36.5003 35.153 31.1744 41.5186 31.1721H41.5208ZM41.4832 33.0116C36.1709 33.0253 31.8101 37.5495 31.8013 43.0586C31.7925 48.6228 36.1731 53.1675 41.5407 53.1607C46.8376 53.1561 51.2182 48.609 51.2226 43.1113C51.227 37.5426 46.8442 32.9978 41.481 33.0116H41.4832Z" fill="#E52328"/>
<path d="M10.543 29.344C7.21342 29.344 7.06549 29.1905 7.06549 25.759C7.06549 23.3538 7.4828 22.9254 9.82986 22.9254C10.638 22.9254 11.4483 22.9071 12.2564 22.93C13.4244 22.9643 14.0912 23.6493 14.131 24.8496C14.1575 25.6491 14.1464 26.4508 14.1332 27.2526C14.1111 28.6568 13.4576 29.3211 12.0864 29.344C11.5719 29.3531 11.0575 29.344 10.543 29.344ZM10.5717 24.7625C9.38238 24.7625 8.80463 25.3917 8.83849 26.6501C8.84069 26.7646 8.84953 26.8792 8.83849 26.9914C8.80758 27.3969 9.01292 27.5137 9.3684 27.5091C10.2096 27.4977 11.0509 27.5045 11.8921 27.5022C12.1217 27.5022 12.3514 27.4633 12.3469 27.1563C12.3403 26.405 12.5987 25.5551 12.2343 24.9321C11.9716 24.4831 11.212 24.829 10.6799 24.7625C10.6446 24.758 10.6071 24.7625 10.5695 24.7625H10.5717Z" fill="#E52328"/>
<path d="M21.1501 29.344C17.8139 29.344 17.6637 29.1905 17.6637 25.7682C17.6637 23.3561 18.081 22.9254 20.4193 22.9254C21.2274 22.9254 22.0377 22.9071 22.8458 22.93C24.058 22.9643 24.7027 23.663 24.7314 24.955C24.7469 25.7178 24.7447 26.4806 24.7314 27.2434C24.7093 28.6545 24.0624 29.3188 22.6935 29.344C22.179 29.3531 21.6646 29.344 21.1501 29.344ZM21.1656 27.5068C22.9606 27.5068 22.9739 27.5068 22.9606 26.2538C22.9408 24.506 23.1969 24.7946 21.5078 24.7625C20.9955 24.7534 20.4833 24.7625 19.9711 24.7625C19.7039 24.7625 19.514 24.7923 19.4301 25.1543C19.0194 26.8929 19.4566 27.5045 21.1656 27.5045V27.5068Z" fill="#E52328"/>
<path d="M31.7969 29.344C28.3922 29.344 28.262 29.2088 28.262 25.704C28.262 23.3744 28.6991 22.9254 30.9689 22.9254C31.8146 22.9254 32.6602 22.9025 33.5037 22.9323C34.6077 22.9712 35.2789 23.6561 35.323 24.79C35.3539 25.5895 35.3385 26.3913 35.3275 27.193C35.3098 28.6728 34.6695 29.3257 33.2277 29.344C32.7508 29.3509 32.2716 29.344 31.7947 29.344H31.7969ZM31.8278 27.5068C33.0172 27.5068 33.5949 26.8776 33.5611 25.6193C33.5589 25.5047 33.55 25.3902 33.5611 25.278C33.592 24.8725 33.3867 24.7557 33.0312 24.7603C32.1899 24.7717 31.3487 24.7648 30.5075 24.7671C30.2778 24.7671 30.0482 24.8061 30.0526 25.113C30.0592 25.8644 29.8009 26.7142 30.1652 27.3373C30.428 27.7863 31.1875 27.4404 31.7196 27.5068C31.755 27.5114 31.7925 27.5068 31.83 27.5068H31.8278Z" fill="#E52328"/>
<path d="M42.404 29.3439C38.9905 29.3439 38.8602 29.2111 38.8602 25.7132C38.8602 23.3766 39.2974 22.9254 41.5583 22.9254C42.3664 22.9254 43.1768 22.9116 43.9849 22.9299C45.2633 22.9597 45.9058 23.6492 45.9279 25.0099C45.9411 25.7338 45.9367 26.4599 45.9279 27.1838C45.9102 28.6682 45.2721 29.3233 43.837 29.3439C43.36 29.3508 42.8809 29.3439 42.404 29.3439ZM42.3532 24.7625C40.6045 24.7625 40.6354 24.7625 40.6155 26.547C40.6089 27.2502 40.7414 27.5961 41.5053 27.5205C42.1942 27.4518 42.8942 27.5091 43.5897 27.5022C43.8414 27.5022 44.1483 27.5343 44.1439 27.1426C44.135 26.3912 44.4022 25.5414 44.0224 24.9229C43.7553 24.4876 42.9979 24.8221 42.4636 24.7602C42.4283 24.7556 42.3907 24.7602 42.3532 24.7602V24.7625Z" fill="#E52328"/>
<path d="M10.6601 31.1719C13.9897 31.1719 14.1354 31.3231 14.1354 34.7569C14.1354 37.1575 13.7115 37.5905 11.3666 37.5905C10.521 37.5905 9.67531 37.6202 8.83186 37.5813C7.75217 37.5332 7.10524 36.8185 7.07212 35.6617C7.04783 34.8233 7.05004 33.9826 7.07212 33.1465C7.10524 31.8774 7.76762 31.2108 9.0085 31.1765C9.56049 31.1604 10.1103 31.1742 10.6623 31.1742L10.6601 31.1719ZM10.7064 33.0113C10.267 33.0113 9.82766 33.0113 9.39048 33.0113C9.13215 33.0113 8.84953 33.0022 8.84732 33.3893C8.8429 34.0719 8.59782 34.9401 8.90914 35.396C9.46555 36.2138 10.4989 35.6365 11.3202 35.7304C11.6514 35.7694 12.2454 36.0076 12.3204 35.4257C12.4176 34.6881 12.4838 33.8566 12.2432 33.19C12.0842 32.7479 11.3092 33.0846 10.8146 33.0113C10.7793 33.0068 10.7418 33.0113 10.7042 33.0113H10.7064Z" fill="#E52328"/>
<path d="M21.2539 37.5907C17.7653 37.5907 17.6615 37.483 17.6637 33.8958C17.6637 31.644 18.123 31.1744 20.3155 31.1744C21.1611 31.1744 22.0068 31.1561 22.8502 31.179C24.0183 31.2134 24.6895 31.896 24.727 33.094C24.7535 33.8935 24.7425 34.6952 24.7292 35.497C24.7071 36.9035 24.0558 37.5678 22.6868 37.5907C22.2099 37.5999 21.7308 37.5907 21.2539 37.5907ZM21.3069 35.7536C21.9604 35.6069 23.1461 36.3194 22.9938 34.5578C22.8591 33.0184 22.9695 33.0093 21.457 33.0093C20.9823 33.0093 20.5054 33.0253 20.0307 33.007C19.631 32.991 19.4743 33.1215 19.4257 33.5751C19.2071 35.6688 19.2623 35.7536 21.3091 35.7536H21.3069Z" fill="#E52328"/>
<path d="M10.5453 45.8371C7.21344 45.8371 7.0655 45.6837 7.06771 42.2545C7.06771 39.8469 7.48502 39.4186 9.82988 39.4186C10.638 39.4186 11.4483 39.4002 12.2564 39.4231C13.4244 39.4575 14.0935 40.1401 14.131 41.3405C14.1575 42.1399 14.1464 42.9417 14.1332 43.7434C14.1111 45.1499 13.4598 45.8119 12.0886 45.8348C11.5742 45.844 11.0597 45.8348 10.5453 45.8348V45.8371ZM10.5718 44C11.767 44 12.3654 43.5815 12.3668 42.7447C12.3668 41.752 11.8803 41.2557 10.9074 41.2557C10.3951 41.2557 9.88287 41.258 9.37062 41.2557C9.09904 41.2557 8.91578 41.2924 8.83188 41.652C8.42561 43.4021 8.85175 43.9977 10.5718 43.9977V44Z" fill="#E52328"/>
<path d="M21.234 45.8371C17.7631 45.8371 17.6637 45.734 17.6659 42.1193C17.6659 39.9179 18.1384 39.4208 20.2294 39.4186C21.1104 39.4186 21.9935 39.3979 22.8745 39.4254C24.0359 39.4598 24.6939 40.1516 24.7314 41.3634C24.7557 42.1262 24.7425 42.889 24.7358 43.6518C24.7204 45.1522 24.0911 45.8165 22.6692 45.8371C22.1923 45.844 21.7131 45.8371 21.2362 45.8371H21.234ZM21.2495 44C22.9915 44 22.9584 44 22.9783 42.2064C22.9871 41.4871 22.8281 41.1709 22.0796 41.242C21.3908 41.3084 20.6908 41.2557 19.9953 41.258C19.7414 41.258 19.5317 41.258 19.4323 41.6222C18.9885 43.2784 19.4897 43.9977 21.1391 43.9977C21.1766 43.9977 21.2119 43.9977 21.2495 43.9977V44Z" fill="#E52328"/>
<path d="M31.6666 31.1744C32.2186 31.1744 32.7706 31.1813 33.3204 31.1721C33.9607 31.1607 34.4421 31.4081 34.42 32.1296C34.4023 32.7779 33.9497 33.0161 33.3535 33.0116C32.4703 33.0024 31.5872 33.0368 30.7062 33.0001C30.1718 32.9772 29.9621 33.1857 30.0305 33.724C30.1365 34.5601 29.6684 35.5451 30.7018 36.1384C30.9976 36.3079 30.9822 36.7454 30.8033 37.0776C30.6068 37.4418 30.2999 37.6044 29.8892 37.5861C29.059 37.5472 28.3216 36.8164 28.2752 35.8612C28.2288 34.8716 28.2244 33.8752 28.2752 32.8856C28.3282 31.8777 29.0083 31.2363 30.0085 31.179C30.5582 31.1469 31.1124 31.1744 31.6622 31.1721L31.6666 31.1744Z" fill="#E52328"/>
<path d="M48.127 39.8675C48.0851 40.3256 47.8444 40.5661 47.6104 40.809C45.2699 43.2371 42.9228 45.6584 40.5912 48.098C40.0017 48.7142 39.4895 48.7257 38.9043 48.098C37.8291 46.9481 36.7273 45.8233 35.6299 44.6963C35.1685 44.2221 34.8417 43.7136 35.4268 43.134C35.9589 42.6049 36.4292 42.9164 36.8554 43.3631C37.6326 44.1763 38.4407 44.9597 39.1848 45.8027C39.6109 46.286 39.8781 46.2654 40.3152 45.8027C42.3223 43.6746 44.3646 41.5855 46.3894 39.4758C46.9016 38.942 47.4183 38.7061 47.9548 39.4208C48.0608 39.5605 48.0895 39.7644 48.127 39.8675Z" fill="#E52328"/>
</g>
<defs>
<clipPath id="clip0_28_313">
<rect width="53" height="55" fill="white"/>
</clipPath>
</defs>
</svg>
