<svg width="54" height="54" viewBox="0 0 54 54" fill="none" xmlns="http://www.w3.org/2000/svg">
<g clip-path="url(#clip0_28_341)">
<path d="M0 47.0801C0.0592268 44.8404 0.947628 43.1294 2.48118 41.6765C7.85178 36.5859 13.1906 31.4636 18.5549 26.3688C19.0181 25.9289 19.2508 25.5122 19.2318 24.8333C19.1958 23.6046 19.8198 22.6719 20.9345 22.1411C22.0345 21.6187 23.1429 21.68 24.1307 22.4097C24.6933 22.8242 25.1904 23.3381 25.6706 23.852C26.0344 24.2412 26.2734 24.2962 26.6711 23.8647C30.0935 20.1679 33.5562 16.5069 36.9638 12.7953C37.7824 11.9049 38.1293 10.6994 38.4847 9.57638C39.225 7.23729 40.6317 5.62996 42.8188 4.48156C45.0546 3.30779 47.1445 1.84639 49.2724 0.471694C49.778 0.145998 50.0805 0.129078 50.512 0.592244C51.5209 1.67508 52.5659 2.72619 53.651 3.72866C54.1311 4.17067 54.0677 4.46887 53.7419 4.95319C51.8319 7.78294 49.9493 10.6296 48.071 13.4826C47.7875 13.9119 47.4597 14.2546 46.9753 14.4195C43.0134 15.771 40.05 18.4167 37.3975 21.5595C35.4684 23.8436 33.3574 25.9796 31.2654 28.1241C30.6858 28.7184 30.7535 29.0378 31.3267 29.5115C31.7286 29.8436 32.0882 30.2496 32.397 30.6726C33.1501 31.7005 33.2368 32.8171 32.6509 33.9507C32.0861 35.0484 31.1385 35.6596 29.9264 35.6257C29.2009 35.6046 28.7525 35.8753 28.2765 36.3321C22.8806 41.4988 17.4825 46.6613 12.0653 51.8027C9.2563 54.4675 5.51443 54.7255 2.66309 52.4731C0.894747 51.0751 0.0571115 49.2035 0 47.0759L0 47.0801ZM6.72224 52.2341C8.43347 52.2151 9.63916 51.7287 10.6566 50.7621C16.0885 45.5891 21.5162 40.4118 26.9651 35.2577C27.4706 34.7798 27.4706 34.5196 26.9757 34.0374C24.9302 32.0494 22.9017 30.0424 20.9261 27.9846C20.3275 27.3607 19.9996 27.3311 19.3608 27.9465C14.1594 32.9525 8.91997 37.9204 3.69533 42.9031C3.39073 43.1929 3.08402 43.4953 2.83865 43.8337C1.57374 45.5827 1.34318 47.4565 2.33311 49.3938C3.30189 51.2909 4.92005 52.1939 6.72012 52.2341H6.72224ZM49.6828 2.28206C49.4247 2.43433 49.2111 2.55488 49.0059 2.68389C47.3666 3.70962 45.7907 4.85802 44.0753 5.73359C41.9791 6.80162 40.6634 8.35608 39.9294 10.5873C39.4556 12.0297 38.8485 13.4382 37.7148 14.6035C34.6477 17.7569 31.6842 21.0117 28.6784 24.2221C27.4008 25.5863 27.4262 25.5566 28.7102 26.9017C29.2432 27.4601 29.5393 27.5193 30.0978 26.9038C32.3695 24.404 34.8211 22.0565 36.9808 19.4657C39.3816 16.5831 42.2181 14.4238 45.7188 13.1189C46.273 12.9116 46.6474 12.5394 46.9668 12.0508C48.2339 10.1072 49.5263 8.18054 50.8102 6.2454C51.5802 5.08502 51.4589 4.00218 50.4464 2.9969C50.201 2.75368 49.9409 2.52316 49.6849 2.28417L49.6828 2.28206ZM31.3077 32.5972C31.3098 31.9627 30.9819 31.5989 30.6287 31.2458C28.2871 28.9088 25.9519 26.5655 23.6082 24.2327C22.7875 23.4142 21.9351 23.3254 21.3089 23.9578C20.6892 24.5859 20.7907 25.4361 21.6114 26.2609C23.1725 27.8344 24.7441 29.3994 26.3136 30.9666C27.1597 31.8125 27.9952 32.6691 28.8604 33.496C29.2919 33.9084 29.808 34.0924 30.4045 33.8175C30.9693 33.5573 31.2654 33.1217 31.3098 32.5972H31.3077Z" fill="#E52328"/>
<path d="M1.31164 7.28812C3.43534 9.41149 5.4427 11.3868 7.40776 13.4044C7.91542 13.9268 8.21578 13.9586 8.73613 13.415C10.2443 11.8352 11.7905 10.2871 13.3706 8.77914C13.9206 8.25464 13.9925 7.9649 13.396 7.39599C11.5325 5.62158 9.74933 3.76468 7.9133 1.96067C7.46276 1.51865 7.30411 1.30716 8.05714 1.00473C17.0088 -2.60754 26.6628 3.98463 26.4386 13.5779C26.409 14.851 26.2144 16.1158 25.7681 17.3022C25.5227 17.9557 25.6623 18.3491 26.1403 18.7636C26.5655 19.1316 26.9018 19.6096 27.3524 19.9416C28.1646 20.5402 27.8537 20.9716 27.2699 21.4855C26.9251 21.7901 26.6924 21.8133 26.4069 21.458C26.2757 21.2952 26.1107 21.1577 25.9605 21.0075C25.1885 20.2335 24.1647 19.58 23.7184 18.6494C23.2678 17.7125 24.2155 16.7185 24.446 15.7139C26.2334 7.90356 19.27 0.484458 11.3908 1.86972C11.1517 1.91202 10.9233 2.00085 10.5214 2.11294C12.2326 3.81967 13.8719 5.45238 15.5091 7.08509C16.1677 7.74213 16.1719 8.39493 15.5218 9.0435C13.2289 11.3361 10.9212 13.6159 8.65364 15.9339C8.19886 16.397 7.94926 16.4161 7.49026 15.9402C6.00113 14.39 4.46546 12.8842 2.93614 11.372C2.69712 11.1351 2.51732 10.8052 2.03505 10.71C1.31798 13.8274 1.84256 16.727 3.5411 19.3727C6.53205 24.0276 11.873 25.8443 17.1061 23.998C18.0305 23.6723 18.1638 24.127 18.4387 24.7361C18.8343 25.6075 18.0263 25.506 17.69 25.6159C12.7382 27.2402 8.17982 26.4936 4.32585 22.9406C0.3492 19.2712 -0.820529 14.6819 0.56284 9.45591C0.74052 8.78125 1.01762 8.13409 1.31164 7.28812Z" fill="#E52328"/>
<path d="M48.9213 53.8689C47.0493 53.8901 45.7907 53.1837 44.7077 52.1008C40.2974 47.6934 35.8977 43.2732 31.4663 38.8848C30.9544 38.3793 31.0221 38.1234 31.4853 37.656C31.9592 37.178 32.2257 37.1421 32.7249 37.6476C37.0886 42.0508 41.4904 46.4202 45.8648 50.815C47.0006 51.957 48.2719 52.5175 49.8626 51.9549C52.092 51.1661 52.8874 48.4653 51.4511 46.583C51.174 46.2214 50.8483 45.8957 50.5246 45.5721C44.9721 40.0141 39.4217 34.454 33.8481 28.9172C33.3235 28.3969 33.1902 28.1135 33.8015 27.5256C34.3705 26.9799 34.6201 27.2147 35.0305 27.6292C38.6074 31.2267 42.199 34.8093 45.7865 38.3962C47.9546 40.564 50.1566 42.6958 52.2803 44.908C55.2311 47.981 53.9302 52.7205 49.8901 53.7462C49.4861 53.8499 49.0567 53.8562 48.9255 53.871L48.9213 53.8689Z" fill="#E52328"/>
<path d="M47.9102 45.3923C49.2978 45.3669 50.4929 46.5026 50.531 47.8857C50.5691 49.2541 49.4057 50.4532 48.016 50.4765C46.5713 50.5019 45.4586 49.4317 45.4354 47.9936C45.4121 46.5512 46.4888 45.4198 47.9102 45.3923ZM48.7796 47.9386C48.7161 47.4543 48.4644 47.1159 47.98 47.1244C47.4575 47.1328 47.1403 47.4522 47.1762 48.0021C47.2101 48.4948 47.5231 48.7677 48.0033 48.7507C48.4982 48.7338 48.7246 48.3954 48.7774 47.9386H48.7796Z" fill="#E52328"/>
<path d="M12.2303 18.5119C11.8961 18.8101 11.5238 19.1759 11.1092 19.4868C10.9908 19.5735 9.96911 18.4252 10.0643 18.3109C10.3943 17.9239 10.6523 17.4333 11.1981 17.3064C11.3757 17.2662 12.2578 18.256 12.2282 18.5119H12.2303Z" fill="#E52328"/>
<path d="M15.9849 12.385C16.3487 12.7657 16.7189 13.1231 17.0468 13.5165C17.1377 13.6265 16.0864 14.7347 15.9532 14.6564C15.4984 14.3878 14.9188 14.0071 14.9061 13.563C14.8934 13.1083 15.5217 12.7784 15.9828 12.385H15.9849Z" fill="#E52328"/>
<path d="M13.5523 14.8319C13.9712 15.2042 14.5867 15.4833 14.5613 15.9761C14.538 16.4435 14.0071 16.9976 13.5354 16.9828C13.0764 16.9701 12.5265 16.4351 12.5286 15.955C12.5286 15.4707 13.1208 15.1767 13.5523 14.8298V14.8319Z" fill="#E52328"/>
<path d="M18.356 12.3172C17.9372 11.9175 17.3576 11.6595 17.3238 11.1392C17.3005 10.7712 17.7849 10.2932 18.1361 10.3207C18.6437 10.3588 19.1091 10.86 19.1937 11.3295C19.2719 11.7652 18.6754 11.9809 18.3539 12.3193L18.356 12.3172Z" fill="#E52328"/>
<path d="M20.6321 32.3392C20.4079 32.6057 20.2873 32.7749 20.1435 32.9208C15.4095 37.6582 10.6651 42.385 5.94807 47.1393C5.41714 47.6744 5.18658 47.3064 4.87352 46.9786C4.5795 46.6698 4.12896 46.4562 4.68104 45.9106C9.45937 41.1689 14.2123 36.3998 18.9801 31.6455C19.1281 31.4975 19.2635 31.1718 19.5702 31.4256C19.9213 31.7153 20.2619 32.0198 20.6342 32.3413L20.6321 32.3392Z" fill="#E52328"/>
<path d="M7.68465 49.6411C7.21295 49.4339 6.93374 49.0595 6.6503 48.7169C6.38166 48.3912 6.75183 48.2157 6.92951 48.038C11.6338 43.326 16.3529 38.6267 21.0403 33.8977C21.586 33.3457 21.8314 33.663 22.21 34.0246C22.5929 34.3905 22.7642 34.6358 22.284 35.1138C17.5565 39.8047 12.8564 44.5188 8.14577 49.2266C7.99982 49.3725 7.84118 49.5037 7.68465 49.6432V49.6411Z" fill="#E52328"/>
</g>
<defs>
<clipPath id="clip0_28_341">
<rect width="54" height="54" fill="white"/>
</clipPath>
</defs>
</svg>
