<svg width="79" height="79" viewBox="0 0 79 79" fill="none" xmlns="http://www.w3.org/2000/svg">
<g clip-path="url(#clip0_12_94)">
<path d="M78.8442 30.3512C74.0419 15.096 63.8687 4.93509 48.602 0.149204C47.9536 -0.0552617 47.4508 -0.0483306 47.0625 0.166532C46.5528 0.450704 46.3447 1.03291 46.206 1.56314C46.0847 2.03445 45.9598 2.50229 45.835 2.97014C45.5784 3.93355 45.3115 4.92816 45.0861 5.9193C44.9058 6.71983 44.7428 6.89657 43.8517 6.70943C40.4537 6.00593 36.9482 5.79454 33.4254 6.08911C24.334 6.84805 15.9014 10.979 9.67754 17.7229C3.45366 24.4772 0.0175186 33.2137 0.0105839 42.335C-0.0448936 44.3588 0.156212 46.5005 0.662445 49.2799C2.64577 60.1304 9.47644 69.3799 19.4034 74.6579C24.8368 77.5481 30.7417 79.0036 36.6327 79.0036C41.5043 79.0036 46.3655 78.009 50.9459 76.006C58.7994 72.5716 65.0025 66.8327 68.879 59.4027C72.759 51.9691 73.9379 43.5687 72.2839 35.1024C72.1175 34.2499 72.2666 34.094 72.9531 33.938C74.0211 33.692 75.0994 33.4078 76.1396 33.1306C76.5869 33.0127 77.0342 32.8949 77.478 32.7805C77.9565 32.6558 78.5425 32.4479 78.8303 31.935C79.0522 31.533 79.0591 31.0305 78.8442 30.3547V30.3512ZM43.3143 9.03133C43.6749 9.07638 43.9072 9.17342 44.0008 9.32244C44.0979 9.47838 44.0875 9.74176 43.9696 10.1126C43.6922 10.972 43.4564 11.8523 43.2276 12.7048C43.075 13.2801 42.919 13.8553 42.7526 14.4271C42.5272 15.2 42.5549 15.7856 42.8392 16.2154C43.1028 16.6174 43.5847 16.8669 44.2678 16.957C44.3337 16.9639 44.4169 17.002 44.507 17.0401C44.6249 17.0921 44.7567 17.151 44.9092 17.1753C45.6617 17.2931 46.1193 17.5115 46.3031 17.8338C46.4799 18.1457 46.4349 18.6239 46.1783 19.265C45.946 19.8334 45.887 20.4537 45.8246 21.1121C45.8108 21.275 45.7934 21.4379 45.7761 21.6042C42.8219 20.3878 40.211 19.7814 37.5862 19.6982C37.2325 19.6878 37.0141 19.5561 36.7263 19.1853C34.6286 16.4822 34.6112 11.5889 36.6882 8.91697C36.9898 8.52883 37.2741 8.36249 37.6521 8.36249C37.711 8.36249 37.7734 8.36595 37.8359 8.37288C38.5987 8.46645 39.3615 8.55656 40.1208 8.64666C41.1853 8.77142 42.2498 8.89618 43.3143 9.03133ZM13.8072 44.799C14.2683 48.0392 15.0519 50.6176 16.2586 52.8771C16.4735 53.2791 16.373 53.6534 16.1095 54.2044C14.6913 57.1639 11.1304 59.2883 7.85719 59.1428C7.19146 59.115 6.7303 59.0492 6.42171 58.4635C4.17833 54.2079 2.89888 49.7651 2.52094 44.896C6.34889 46.8055 10.052 46.7743 13.8072 44.8024V44.799ZM36.3553 22.1206C41.8268 22.1206 46.9688 24.2034 50.8384 27.9877C54.7149 31.7825 56.8577 36.8421 56.8716 42.2345C56.8959 53.7158 47.9813 62.74 36.5737 62.7746C36.5529 62.7746 36.5321 62.7746 36.5079 62.7746C31.078 62.7746 25.9879 60.6814 22.1669 56.8798C18.3286 53.0608 16.21 47.9561 16.1962 42.4979C16.1823 37.0847 18.2731 31.9765 22.0802 28.1194C25.8874 24.2623 30.9393 22.131 36.3068 22.1206H36.3553ZM57.2357 26.3763C56.5145 26.955 56.0047 27.6758 55.4604 28.4417C55.3078 28.6566 55.1553 28.8749 54.9923 29.0898C53.2829 26.8372 51.414 25.0316 49.2885 23.5796C48.8412 23.2746 48.4771 22.4914 48.3384 21.5349C48.1824 20.4641 48.3454 19.4175 48.7441 18.9323C48.8169 18.8457 48.8551 18.8318 48.8551 18.8318C48.8863 18.8318 48.9764 18.8907 49.0284 18.9254C49.0805 18.96 49.1325 18.9947 49.181 19.019C52.1872 20.627 54.9125 22.883 57.2773 25.7247C57.4437 25.9257 57.4714 26.0332 57.468 26.0852C57.461 26.1579 57.3778 26.2619 57.2391 26.3728L57.2357 26.3763ZM59.5241 40.0027C59.3577 40.0893 59.2779 40.0997 59.271 40.1067C59.2259 40.0408 59.1912 39.8017 59.1774 39.6977C58.796 37.005 57.9811 34.3781 56.7537 31.8899C56.6843 31.7478 56.7537 31.1587 57.253 30.1953C57.8944 28.9442 58.6261 28.1922 58.8896 28.1471C58.9173 28.1437 58.9416 28.1402 58.9624 28.1402C59.0456 28.1402 59.0872 28.1957 59.2016 28.4452C59.2467 28.5457 59.2918 28.6392 59.3438 28.7259C60.6302 30.7636 61.4866 32.6766 61.9616 34.5826C62.1697 35.4143 62.4817 35.9203 62.9464 36.1733C63.5497 36.506 64.3056 36.3188 64.895 36.1213C65.7133 35.8475 66.5732 35.6257 67.4054 35.4143C67.9393 35.2757 68.4941 35.1371 69.035 34.9811C69.3402 34.8945 69.5551 34.891 69.68 34.9673C69.7979 35.0435 69.8811 35.2237 69.9261 35.5079C69.9712 35.7886 70.0198 36.0728 70.0683 36.357C70.2625 37.4902 70.4636 38.6546 70.4462 39.9472C66.5836 38.166 63.0088 38.1868 59.5241 40.0027ZM34.1813 19.7121C31.5461 20.1626 28.526 20.8522 25.6724 22.3874C25.4956 22.481 25.2945 22.3667 24.9824 22.1691C24.8957 22.1137 24.8125 22.0617 24.7293 22.0166C21.6642 20.3324 20.0172 17.6432 19.8369 14.0321C19.7987 13.2385 19.8819 12.7637 20.461 12.379C23.2695 10.5111 29.9962 8.67092 34.001 8.62587C32.1875 12.3756 32.2465 16.0144 34.1813 19.7155V19.7121ZM17.2433 30.268C16.9624 30.7012 16.4527 30.7186 15.8182 30.6943C12.1359 30.5661 9.39322 28.9096 7.66648 25.7767C7.63874 25.7247 7.60754 25.6728 7.57633 25.6173C7.35095 25.2257 7.24 25.0074 7.4411 24.6886C10.1006 20.419 13.3564 17.0194 17.3751 14.3163C17.7599 18.5892 19.6566 21.7567 23.1551 23.9712C20.728 25.8218 18.7932 27.8838 17.2398 30.268H17.2433ZM13.7863 41.3681C13.7794 41.8394 13.4743 42.0751 12.9715 42.4216C10.1872 44.345 5.92934 44.3242 3.06532 42.3731C2.49667 41.985 2.40652 41.5656 2.44466 40.9314C2.72898 36.1074 3.84894 31.7409 5.8704 27.5996C8.19699 31.0686 11.4112 32.8949 15.6656 33.1652C14.7364 35.5252 13.8349 38.308 13.7863 41.3646V41.3681ZM15.0866 59.1358C15.3813 58.8967 15.6587 58.6368 15.9292 58.3873C16.1199 58.2105 16.3106 58.0338 16.5082 57.8605C16.8307 57.5798 17.0561 57.1882 17.271 56.8105C17.59 56.2525 17.7981 55.9164 18.1101 55.9337C18.3702 55.9475 18.7516 56.502 19.0602 56.9456C19.2613 57.2333 19.4659 57.5313 19.6878 57.7739C21.1857 59.4165 22.4582 60.5116 23.807 61.326C24.4588 61.7211 24.6946 62.1578 24.7016 62.9929C24.7328 66.7322 23.1447 69.4492 19.8507 71.2929C19.7987 71.3206 19.7467 71.3518 19.6947 71.383C19.3029 71.6117 19.0845 71.7226 18.7655 71.5285C14.5838 68.9363 11.1754 65.6891 8.36689 61.6137C11.3523 61.2671 13.3841 60.5151 15.0866 59.1393V59.1358ZM27.1114 63.6479C27.1183 63.3707 27.1738 63.2979 27.1703 63.2979C27.205 63.2875 27.309 63.291 27.6384 63.4296C30.3117 64.549 32.8151 65.1173 35.2874 65.1624C35.9045 65.1728 36.2166 65.5124 36.5737 66.1327C38.349 69.2136 38.3837 72.2771 36.6882 75.4931C36.2582 76.3109 35.7277 76.602 34.8227 76.5327C29.9546 76.1619 25.6516 75.0391 21.685 73.1053C25.239 70.6067 27.0177 67.5085 27.1114 63.6479ZM39.3788 75.5069C39.7568 74.5782 40.1174 73.6979 40.2283 72.7033C40.5335 69.9275 40.159 67.6125 39.0841 65.6233C38.9003 65.2837 38.8865 65.1797 38.8795 65.1762C38.8795 65.1762 38.9593 65.1034 39.3442 65.0584C41.9273 64.7708 44.3995 64.0222 46.688 62.837C46.9515 62.7018 47.1908 62.6325 47.4369 62.6325C47.7074 62.6325 47.9882 62.7157 48.3211 62.8786C51.4036 64.4034 53.4736 68.1081 53.1338 71.4973C53.0748 72.0795 52.9084 72.3533 52.4715 72.582C48.2206 74.8069 43.8136 76.0684 39.0113 76.4322C39.1292 76.1169 39.254 75.8084 39.3788 75.5035V75.5069ZM49.9646 60.9171C49.9646 60.9171 49.9716 60.8097 50.346 60.5394C52.4299 59.0249 54.1913 57.1328 55.5817 54.9079C55.9597 54.3014 56.4382 54.3014 57.1039 54.3014C57.3397 54.3014 57.5859 54.3014 57.839 54.2702C61.0844 54.4851 63.5948 56.0688 65.3076 58.9729C65.7098 59.6557 65.696 60.1547 65.2591 60.8201C62.8111 64.5455 59.7634 67.7303 56.2059 70.2913C55.8487 70.5478 55.6996 70.6032 55.6441 70.6136C55.6164 70.5686 55.5575 70.423 55.5332 70.021C55.3147 66.3788 53.588 63.4504 50.3981 61.3156C49.9716 61.0315 49.9646 60.9206 49.9646 60.9206V60.9171ZM59.3577 43.1217C59.3646 42.9068 59.5935 42.7647 59.9437 42.5741C60.0095 42.5394 60.0719 42.5048 60.1309 42.4701C63.3278 40.5988 66.5697 40.5814 69.7701 42.4286C70.3422 42.7578 70.6647 43.0766 70.6265 43.7351C70.3457 48.7185 69.2396 53.1301 67.2424 57.2298C67.2285 57.254 67.2147 57.2818 67.2008 57.306C64.7355 53.7296 61.5178 51.931 57.3848 51.8201C58.6503 48.4655 59.264 45.7624 59.3611 43.1217H59.3577ZM64.0629 33.1098C60.8798 24.2658 54.7842 18.1595 45.9494 14.9608C45.2906 14.7217 45.256 14.5692 45.4085 14.0147C46.5458 9.84573 47.4439 6.45645 48.2448 3.34095C48.3211 3.04291 48.4217 2.85578 48.5361 2.7934C48.5777 2.7726 48.6297 2.76221 48.6921 2.76221C48.8793 2.76221 49.1498 2.85578 49.4307 2.95281L49.4723 2.96667C61.0601 6.94162 69.5101 14.6212 74.5932 25.7906C75.0613 26.8198 75.4496 27.863 75.7929 28.7848C75.9281 29.1452 76.0529 29.4814 76.1674 29.7759C76.3373 30.5557 76.1396 30.6077 75.7235 30.722C74.1806 31.1344 72.6376 31.5434 71.0946 31.9488C69.0212 32.4964 66.9512 33.0439 64.8811 33.6019C64.4027 33.7301 64.2778 33.7024 64.0629 33.1098Z" fill="#E52328"/>
<path d="M23.6507 39.2818C24.8192 39.7254 25.1486 40.4254 24.7811 41.6904C24.6285 42.2206 24.6389 42.886 24.8088 43.43C25.1486 44.5182 24.8435 45.1351 23.7617 45.5579C23.141 45.8005 22.7562 46.147 22.6105 46.5941C22.4545 47.0688 22.5793 47.6129 22.9885 48.2575C23.6508 49.2972 24.2437 50.3507 24.8921 51.522C25.2076 52.0904 25.6029 52.4335 26.0328 52.5062C26.279 52.5478 26.6639 52.5236 27.0834 52.1528C28.1652 51.2032 29.0771 51.2829 30.3254 52.4404C30.6756 52.7627 31.1541 53.0226 31.6811 53.1682C32.6901 53.4523 33.0265 53.934 32.8739 54.894C32.7525 55.6633 32.8739 56.2525 33.2414 56.6371C33.55 56.9629 34.0112 57.1258 34.6145 57.1258C34.7393 57.1258 34.8711 57.1188 35.0063 57.105C35.3392 57.0703 35.6755 57.0807 36.0326 57.0911C36.1991 57.0946 36.3655 57.1015 36.5285 57.1015H36.5354C39.4896 57.1015 39.6387 56.9837 40.2316 54.0484C40.5957 53.5355 44.0249 51.5602 44.7045 51.47C44.7391 51.4943 44.7773 51.5151 44.812 51.529C47.3501 52.6414 47.5408 52.579 48.9208 50.1982C49.0283 50.0111 49.1323 49.8239 49.2328 49.6333C49.4617 49.2105 49.6801 48.8085 49.9506 48.4481C50.4464 47.7862 50.6232 47.1901 50.4741 46.6703C50.332 46.1713 49.8951 45.7762 49.1808 45.499C48.2862 45.1524 48.0227 44.6326 48.1996 43.5721C48.3244 42.834 48.3244 42.0785 48.1996 41.3854C48.0089 40.3215 48.3279 39.7358 49.3022 39.3546C49.9367 39.1051 50.332 38.7481 50.4741 38.2976C50.6198 37.8298 50.4845 37.2822 50.0754 36.6723C49.427 35.7089 48.8549 34.7177 48.3695 33.7231C48.0505 33.0681 47.6691 32.6869 47.2044 32.5518C46.7225 32.4132 46.1885 32.5414 45.5262 32.9572C45.4187 33.0231 45.3113 33.0993 45.2072 33.179C44.6837 33.5602 44.4097 33.7231 43.9486 33.3315C42.9777 32.5033 41.889 31.876 40.7101 31.4636C40.3807 31.3492 40.2697 31.1829 40.2212 30.7254C39.9161 27.9981 39.7635 27.8629 36.9654 27.8629C36.7434 27.8629 36.525 27.8664 36.3031 27.8733C35.8454 27.8837 35.3704 27.8906 34.9162 27.856C34.1707 27.7971 33.6332 27.9426 33.283 28.2926C32.9294 28.6427 32.7872 29.1798 32.8392 29.9353C32.8462 30.0254 32.8566 30.119 32.867 30.216C32.9398 30.9022 32.9467 31.2695 32.3538 31.474C31.2373 31.8552 30.1763 32.4582 29.1118 33.3211C28.8136 33.5602 28.6229 33.5776 28.2242 33.4043C25.6791 32.2988 25.4884 32.3646 24.1015 34.7662C23.9871 34.9672 23.8727 35.1682 23.7582 35.3692C23.5121 35.8094 23.2555 36.2668 22.9781 36.6931C22.5759 37.3169 22.451 37.8679 22.6036 38.3357C22.7423 38.7585 23.096 39.0773 23.6542 39.2922L23.6507 39.2818ZM35.36 30.6839C35.3461 30.4967 35.3669 30.3581 35.4189 30.3061C35.5229 30.2056 35.9009 30.2507 36.1748 30.2853C36.4349 30.3165 36.7053 30.3512 36.9446 30.313C37.4716 30.2264 37.6658 30.2957 37.7386 30.3685C37.8287 30.4586 37.8114 30.6804 37.7906 30.8017C37.4577 32.8429 38.803 33.5013 40.0097 33.8444C40.7794 34.0627 41.5457 34.4925 42.1109 35.0158C43.3141 36.1351 44.4583 36.6515 46.1295 35.5252C46.3515 35.3762 46.4936 35.345 46.5491 35.3623C46.6705 35.4004 46.7953 35.7539 46.875 35.9861C46.986 36.298 47.1004 36.6203 47.3189 36.8352C47.6066 37.1193 47.6864 37.3342 47.6656 37.4347C47.6448 37.5317 47.5061 37.6322 47.2842 37.7154C45.3043 38.4605 45.4083 39.9264 45.7239 41.122C45.9631 42.03 45.9423 43.1805 45.6719 44.2029C45.4361 45.1004 45.3043 46.3619 46.8924 46.9649C47.1524 47.0654 47.4784 47.2283 47.5477 47.45C47.6101 47.651 47.4888 47.9525 47.1732 48.4065C47.0727 48.5486 46.986 48.708 46.8993 48.8605C46.7259 49.1724 46.5456 49.4912 46.3445 49.5294C46.1954 49.5571 45.9631 49.4462 45.6857 49.2175C44.2919 48.0773 43.2239 48.8674 42.5408 49.564C41.9791 50.1358 41.2371 50.6141 40.509 50.874C38.9903 51.4146 37.4161 51.976 37.7247 54.4019C37.749 54.5855 37.7212 54.6653 37.7039 54.6861C37.6207 54.7658 37.215 54.7138 36.9966 54.6861C36.8163 54.6618 36.6325 54.6375 36.4591 54.6375C36.3932 54.6375 36.3274 54.641 36.2684 54.6514L36.1887 54.6618C35.9425 54.6964 35.4848 54.7623 35.36 54.6375C35.308 54.5856 35.2941 54.4573 35.3184 54.2806C35.6304 52.1597 34.3302 51.4631 32.8808 51.0265C32.1423 50.8047 31.4384 50.3957 30.953 49.9106C29.9474 48.8986 28.6888 48.0565 26.9551 49.4427C26.8997 49.4393 26.7298 49.3838 26.4628 49.1585C25.9704 48.7427 25.4434 47.9976 25.3983 47.4535C25.4122 47.3114 25.5474 47.2352 25.9288 47.0896C26.0432 47.0446 26.1611 46.9995 26.2617 46.951C27.3504 46.4173 27.7145 45.6237 27.4094 44.4524C27.0592 43.1181 27.0592 41.7943 27.4094 40.519C27.7561 39.2576 27.3123 38.3877 26.0952 37.9372C25.752 37.809 25.5439 37.6634 25.4919 37.5144C25.4087 37.2683 25.7034 36.8144 25.9149 36.4851C25.9981 36.3569 26.0744 36.2183 26.1507 36.0797C26.3275 35.7608 26.5078 35.4316 26.7089 35.3935C26.8546 35.3658 27.0938 35.4767 27.3781 35.7054C28.453 36.5787 29.4724 36.4921 30.4017 35.4524C31.0119 34.7697 31.8302 34.2464 32.7005 33.9726C34.2019 33.5048 35.5333 32.9018 35.3634 30.7012L35.36 30.6839Z" fill="#E52328"/>
<path d="M21.2583 32.5342L21.2132 32.5446C20.492 32.7144 20.1071 33.2238 20.2112 33.8719C20.2666 34.2254 20.44 34.5199 20.6896 34.6967C20.8734 34.8284 21.0919 34.8942 21.3311 34.8942C21.4109 34.8942 21.4941 34.8873 21.5773 34.8734C22.191 34.7625 22.5655 34.2947 22.5343 33.6778C22.4961 32.9708 22.0488 32.555 21.2999 32.5376H21.2548L21.2583 32.5342Z" fill="#E52328"/>
<path d="M45.3147 56.4258H45.2766H45.2384C44.4999 56.4951 44.0596 56.956 44.0908 57.6352C44.1081 57.9818 44.2433 58.2868 44.4722 58.4912C44.6802 58.6784 44.9507 58.7754 45.2558 58.7754C45.287 58.7754 45.3182 58.7754 45.3494 58.7754C45.9631 58.7373 46.4035 58.2972 46.4381 57.6872C46.4798 56.9872 46.0706 56.5297 45.3147 56.4327V56.4258Z" fill="#E52328"/>
<path d="M52.988 7.2188C51.1225 7.2188 49.59 8.74363 49.5726 10.6185C49.5553 12.5002 51.0497 14.0701 52.9013 14.1221C52.929 14.1221 52.9568 14.1221 52.988 14.1221C53.8617 14.1221 54.7424 13.7444 55.4151 13.079C56.1016 12.3963 56.4865 11.4918 56.4657 10.6011C56.4241 8.73323 54.8638 7.21533 52.9914 7.21533L52.988 7.2188ZM52.988 11.6547C52.6516 11.6373 52.3846 11.5299 52.2217 11.3393C52.0622 11.1522 51.9928 10.8784 52.0275 10.5492C52.0865 9.97389 52.4054 9.67239 52.9568 9.67239C52.9914 9.67239 53.0296 9.67239 53.0677 9.67585C53.404 9.70011 53.8652 9.82833 54.0004 10.6843C53.8479 11.3497 53.5046 11.6755 52.9845 11.6512L52.988 11.6547Z" fill="#E52328"/>
<path d="M61.5142 14.0806H61.4968C59.5898 14.0875 58.078 15.5673 58.0607 17.4491C58.0434 19.2858 59.5863 20.8765 61.4344 20.925C61.4656 20.925 61.4934 20.925 61.5246 20.925C62.4226 20.925 63.2617 20.5819 63.8962 19.9546C64.5689 19.2892 64.9295 18.3882 64.9156 17.4144C64.8879 15.4806 63.4559 14.0806 61.5142 14.0806ZM61.5246 18.4402C61.1986 18.4402 60.9386 18.3466 60.7756 18.1733C60.6092 17.9931 60.5329 17.7228 60.5572 17.3867C60.5849 17.0193 60.7201 16.5376 61.5939 16.5376C61.6217 16.5376 61.6494 16.5376 61.6771 16.5376C62.0169 16.5688 62.4642 16.7109 62.4573 17.5149C62.4504 18.1283 62.1383 18.4402 61.5211 18.4402H61.5246Z" fill="#E52328"/>
<path d="M68.3414 22.5293C68.3414 22.5293 68.3206 22.5293 68.3102 22.5293C67.4017 22.5397 66.5002 22.9487 65.838 23.6556C65.1792 24.3591 64.829 25.2775 64.8775 26.1716C64.9746 27.9806 66.528 29.4153 68.3622 29.4153C68.3969 29.4153 68.4315 29.4153 68.4662 29.4153C70.342 29.3599 71.833 27.7935 71.7879 25.9186C71.7428 24.0715 70.1687 22.5259 68.3448 22.5259L68.3414 22.5293ZM68.331 24.9933C69.1839 25.1527 69.3122 25.5859 69.3261 25.9498C69.3469 26.5701 69.0348 26.9202 68.4211 26.9652C68.0883 26.9895 67.8178 26.9132 67.6375 26.7503C67.4537 26.5805 67.3532 26.3137 67.3462 25.9775C67.3428 25.7835 67.3324 25.1978 68.331 24.9968V24.9933Z" fill="#E52328"/>
<path d="M30.1763 42.4559C30.1763 45.9145 32.9814 48.7597 36.4349 48.8047C36.4626 48.8047 36.4869 48.8047 36.5146 48.8047C38.1928 48.8047 39.7808 48.1463 40.9979 46.9472C42.2219 45.7377 42.898 44.1436 42.8945 42.4594C42.8945 39.0216 40.0756 36.1625 36.6152 36.0897C34.937 36.062 33.3489 36.6997 32.118 37.9057C30.8836 39.1117 30.1763 40.7717 30.1763 42.4594V42.4559ZM36.5146 38.5225C36.5146 38.5225 36.5423 38.5225 36.5562 38.5225C38.6158 38.5433 40.4015 40.3073 40.457 42.3727C40.4847 43.3881 40.0964 44.3723 39.3578 45.1382C38.6193 45.9076 37.6034 46.3581 36.5701 46.3719C36.5527 46.3719 36.5354 46.3719 36.5215 46.3719C35.5056 46.3719 34.5382 45.9699 33.7927 45.2318C33.0299 44.4832 32.6104 43.499 32.6104 42.4594C32.6104 41.4301 33.0403 40.4112 33.7962 39.6662C34.5417 38.928 35.5091 38.5225 36.5181 38.5225H36.5146Z" fill="#E52328"/>
</g>
<defs>
<clipPath id="clip0_12_94">
<rect width="79" height="79" fill="white"/>
</clipPath>
</defs>
</svg>
