<svg width="61" height="58" viewBox="0 0 61 58" fill="none" xmlns="http://www.w3.org/2000/svg">
<g clip-path="url(#clip0_28_353)">
<path d="M28.3146 57.9975C21.2049 57.9975 14.0953 58.0051 6.98564 57.9975C2.70894 57.9899 0.00499514 55.2326 0.00499514 50.8768C3.37737e-05 36.3101 3.37738e-05 21.7434 0.00251446 7.17667C0.00499514 2.79548 2.68909 0.00767383 6.93106 0.00513254C18.5878 -0.00503265 30.2445 4.9945e-05 41.9013 4.9945e-05C42.1915 4.9945e-05 42.4817 -0.00757394 42.7695 0.0203803C43.4616 0.0889953 43.8089 0.566759 43.8436 1.20462C43.8833 1.91365 43.5187 2.42699 42.7968 2.54897C42.4346 2.60996 42.0551 2.57692 41.683 2.57692C30.2321 2.57692 18.7838 2.57692 7.33293 2.57692C4.04603 2.57692 2.55514 4.09154 2.55514 7.45621C2.55018 21.812 2.55018 36.1678 2.55514 50.521C2.55514 53.8857 4.04851 55.413 7.32053 55.413C21.3339 55.413 35.3473 55.413 49.3582 55.413C52.6649 55.413 54.0938 53.9416 54.0938 50.5363C54.0938 46.1322 54.0938 41.7281 54.0938 37.3241C54.0938 36.9861 54.069 36.6405 54.1211 36.3101C54.2451 35.5452 54.6793 35.0776 55.4681 35.1106C56.1974 35.1436 56.6092 35.5934 56.644 36.3279C56.6886 37.2148 56.6787 38.1042 56.6787 38.9937C56.6812 42.9327 56.701 46.8692 56.6737 50.8082C56.6415 55.3139 54.012 57.9848 49.6385 57.9873C42.5289 57.995 35.4192 57.9873 28.3096 57.9873L28.3146 57.9975Z" fill="#E52328"/>
<path d="M61 16.7142C60.8983 17.9264 60.2955 18.8514 59.2834 19.5858C50.73 25.7993 42.1914 32.0356 33.648 38.2643C30.9242 40.2516 28.2004 42.2389 25.4741 44.2211C23.311 45.7917 21.8722 45.5579 20.3515 43.3876C16.5734 37.9924 12.7953 32.5973 9.02471 27.197C7.69258 25.2885 7.99771 23.6671 9.94752 22.3635C11.9866 20.9988 14.0332 19.6494 16.0922 18.3177C18.0048 17.0801 19.4064 17.3825 20.7608 19.2834C22.4402 21.6417 24.1544 23.9746 25.7693 26.3762C26.3027 27.169 26.6227 27.197 27.3644 26.6328C35.3224 20.5845 43.3102 14.5795 51.2881 8.55913C53.491 6.89713 55.0662 7.13855 56.6092 9.3876C57.8197 11.1538 59.0229 12.9225 60.2359 14.6862C60.6452 15.2834 60.9653 15.9111 61 16.7142ZM58.5044 16.4575C58.3853 16.272 58.2365 16.0255 58.0728 15.7891C56.9614 14.1602 55.798 12.5668 54.7586 10.8895C54.1806 9.95939 53.7738 10.0102 52.9601 10.6303C44.5754 17.0064 36.1559 23.3393 27.7464 29.6849C26.2307 30.8285 25.9157 30.7751 24.7721 29.1741C22.8471 26.4778 20.8997 23.7967 19.0119 21.0725C18.5381 20.3889 18.1933 20.2008 17.4491 20.7192C15.5737 22.028 13.6537 23.2707 11.7187 24.4854C11.0762 24.8895 10.9894 25.1945 11.4409 25.8374C15.1967 31.1945 18.935 36.5642 22.6437 41.9568C23.1125 42.6405 23.4474 42.6913 24.0899 42.2135C35.3324 33.8933 46.5872 25.5909 57.8371 17.2834C58.1001 17.0877 58.3978 16.9149 58.5019 16.4549L58.5044 16.4575Z" fill="#E52328"/>
</g>
<defs>
<clipPath id="clip0_28_353">
<rect width="61" height="58" fill="white"/>
</clipPath>
</defs>
</svg>
