<svg width="74" height="74" viewBox="0 0 74 74" fill="none" xmlns="http://www.w3.org/2000/svg">
<g clip-path="url(#clip0_12_104)">
<path d="M37.0116 73.9999C31.3204 73.9768 25.6667 73.4803 20.0941 72.3286C9.41403 70.1205 3.14764 63.4066 1.42497 52.6892C0.222561 45.2046 -0.424889 37.7114 0.312163 30.146C0.716819 25.9895 1.1446 21.8272 2.24584 17.7804C4.50324 9.47608 9.90251 4.1448 18.2095 2.20799C30.4619 -0.64671 42.8386 -0.773714 55.1344 2.05212C65.0687 4.33531 70.9998 11.0954 72.5779 21.172C73.7746 28.8009 74.4191 36.4413 73.6994 44.1511C73.3179 48.2152 72.9363 52.2966 71.8467 56.2395C69.228 65.7013 62.6696 70.793 53.2412 72.5047C47.8824 73.4774 42.4744 74.0172 37.0173 73.9999H37.0116ZM36.9335 70.6429C42.5322 70.6429 48.0789 70.1089 53.5707 69.0496C62.1378 67.3985 67.566 61.7411 69.121 53.1943C71.0084 42.8262 71.0662 32.4782 69.3609 22.0841C67.8174 12.6656 62.9616 7.12074 53.8857 5.16661C42.6334 2.74199 31.3261 2.84878 20.0738 5.18393C11.842 6.89271 6.78377 11.9671 5.0871 20.2108C2.79213 31.3612 2.74877 42.5433 5.02929 53.7023C6.76353 62.1798 11.9807 67.3004 20.4409 69.0323C25.872 70.1436 31.384 70.6487 36.9306 70.6458L36.9335 70.6429Z" fill="#E52328"/>
<path d="M38.7024 25.3515C38.7024 29.0057 38.7082 32.66 38.7024 36.3113C38.6996 38.3261 38.2284 38.8168 36.2832 38.8197C32.4332 38.8283 28.5803 38.8081 24.7303 38.8312C23.5712 38.8399 22.7099 38.4935 22.5885 37.2292C22.4873 36.1959 23.3515 35.5753 24.7852 35.5551C25.1696 35.5493 25.554 35.5551 25.9413 35.5551C28.6381 35.5551 31.3348 35.5118 34.0287 35.5782C35.0432 35.6042 35.3293 35.2924 35.3236 34.2879C35.2831 27.7992 35.3033 21.3076 35.3033 14.8188C35.3033 14.4349 35.2802 14.0452 35.3207 13.6671C35.4247 12.6973 35.9161 11.9959 36.9393 11.9641C38.0405 11.9295 38.61 12.6367 38.6851 13.6758C38.7545 14.6312 38.7082 15.5982 38.7082 16.5593C38.7082 19.492 38.7082 22.4246 38.7082 25.3573L38.7024 25.3515Z" fill="#E52328"/>
<path d="M38.7314 59.5473C38.6938 59.9745 38.7082 60.4104 38.61 60.8231C38.4423 61.5332 37.9625 62.0008 37.237 62.1105C36.5057 62.2202 35.8554 61.9373 35.5837 61.2561C35.1097 60.0698 35.0721 58.8199 35.6617 57.6625C35.997 57.0015 36.7023 56.7994 37.4047 56.9986C38.7082 57.3738 38.7371 58.4562 38.7342 59.5473H38.7314Z" fill="#E52328"/>
<path d="M20.3715 19.1055C21.6635 19.1488 23.5221 21.074 23.4614 22.1305C23.4007 23.1725 22.7677 23.7036 21.7734 23.718C20.7791 23.7325 18.7442 21.608 18.8541 20.6728C18.9668 19.7001 19.5304 19.1055 20.3744 19.1084L20.3715 19.1055Z" fill="#E52328"/>
<path d="M50.5328 22.168C50.5762 20.9124 52.507 19.0593 53.5591 19.117C54.6141 19.1748 55.1257 19.8242 55.1459 20.8056C55.1662 21.8043 53.0417 23.8191 52.0937 23.718C51.1023 23.6141 50.5415 23.0282 50.5328 22.1651V22.168Z" fill="#E52328"/>
<path d="M14.5763 38.791C14.1919 38.791 13.8017 38.843 13.4259 38.7823C12.2669 38.5889 11.6946 37.3795 12.264 36.3721C12.7524 35.5062 13.5878 35.5351 14.4144 35.5611C15.348 35.5928 16.3886 35.3215 17.0042 36.3606C17.591 37.3535 17.0216 38.5861 15.8683 38.7795C15.4492 38.8516 15.007 38.791 14.5763 38.791Z" fill="#E52328"/>
<path d="M59.3948 38.7996C59.0104 38.7996 58.626 38.8285 58.2444 38.7939C57.2559 38.7044 56.7703 38.0463 56.7906 37.1515C56.8108 36.2538 57.334 35.6217 58.3254 35.5755C58.9468 35.5466 59.574 35.5553 60.1983 35.561C61.2938 35.5755 61.9355 36.1181 61.921 37.2265C61.9095 38.2656 61.2851 38.7794 60.2619 38.8112C59.9729 38.8199 59.6867 38.8112 59.3977 38.8112C59.3977 38.8054 59.3977 38.7996 59.3977 38.7939L59.3948 38.7996Z" fill="#E52328"/>
<path d="M23.4643 52.2736C23.4903 53.3243 21.6289 55.2525 20.5594 55.264C19.5015 55.2756 18.9523 54.6607 18.8512 53.688C18.7558 52.7441 20.808 50.6832 21.7936 50.6457C22.6694 50.611 23.4411 51.3615 23.4643 52.2736Z" fill="#E52328"/>
<path d="M53.4984 55.2668C52.4376 55.2754 50.53 53.3935 50.5415 52.3284C50.5502 51.2748 51.1745 50.7322 52.1544 50.6571C53.1198 50.5849 55.1546 52.6574 55.169 53.633C55.1806 54.5105 54.4175 55.2581 53.5013 55.2639L53.4984 55.2668Z" fill="#E52328"/>
</g>
<defs>
<clipPath id="clip0_12_104">
<rect width="74" height="74" fill="white"/>
</clipPath>
</defs>
</svg>
