<svg width="227" height="228" viewBox="0 0 227 228" fill="none" xmlns="http://www.w3.org/2000/svg">
<g clip-path="url(#clip0_32_458)">
<path d="M101.455 100.742C100.182 102.396 99.397 104.374 99.1897 106.451C99.0645 107.24 99.1418 108.048 99.4141 108.799C99.6864 109.55 100.145 110.219 100.747 110.745C103.7 112.63 107.247 113.353 110.703 112.774H138.683C139.132 112.807 139.581 112.709 139.975 112.491C140.368 112.273 140.69 111.945 140.9 111.547C142.97 108.458 144.1 104.836 144.156 101.119C143.925 96.4702 142.224 92.0146 139.298 88.394C136.373 84.7734 132.374 82.1745 127.878 80.9716L126.556 82.859C135.993 87.2471 139.673 93.0035 139.673 101.025C139.718 103.387 139.043 105.707 137.739 107.678H110.514C108.862 107.678 108.626 105.838 109.24 104.8C111.569 100.653 114.17 96.6655 117.025 92.862C119.809 89.1816 122.499 85.7844 125.33 82.1984C126.132 81.2076 125.613 80.2167 124.056 79.8864C120.532 79.1702 116.94 78.838 113.345 78.8955C90.9797 78.8955 82.8169 91.6352 82.8169 101.119C82.8169 111.405 91.0741 123.343 113.392 123.343C118.003 123.676 122.632 123.037 126.98 121.469C131.329 119.9 135.299 117.436 138.635 114.236H133.917C128.116 118.831 120.827 121.132 113.439 120.7C94.5657 120.7 87.5353 110.131 87.5353 100.978C87.5353 92.862 95.1791 81.6322 113.911 81.2547C114.666 81.2547 115.185 81.8681 114.713 82.4815C111.646 86.3978 102.493 99.1374 101.455 100.742Z" fill="#E52328"/>
<path d="M185.678 137.592H167.748C167.853 136.569 168.311 135.614 169.042 134.891C169.774 134.168 170.734 133.722 171.759 133.628H189.877V129.807H170.579C167.682 129.842 164.91 130.996 162.843 133.027C160.777 135.058 159.576 137.81 159.491 140.706C159.482 140.799 159.495 140.893 159.529 140.98C159.562 141.067 159.615 141.146 159.683 141.209C159.751 141.273 159.833 141.32 159.923 141.348C160.012 141.375 160.106 141.381 160.198 141.367H182.045C182.571 141.412 183.063 141.648 183.428 142.03C183.792 142.413 184.005 142.915 184.026 143.443C183.978 144.027 183.705 144.569 183.265 144.956C182.825 145.344 182.253 145.545 181.667 145.519H157.651V129.712H150.573V145.377H137.597C134.059 145.377 133.304 143.254 133.304 141.272V129.618H121.602C120.422 130.373 119.29 131.269 118.11 131.977L111.174 136.224L102.115 129.665H74.7484C71.7412 129.54 68.7805 130.438 66.3497 132.213C65.0991 133.038 64.0338 134.115 63.2215 135.374C62.4092 136.633 61.8677 138.047 61.6313 139.526H66.3497C64.3717 140.908 62.8714 142.87 62.0559 145.141H46.3437C45.7757 145.2 45.2017 145.144 44.6554 144.978C44.1091 144.812 43.6014 144.539 43.1621 144.174C42.7227 143.809 42.3605 143.361 42.0966 142.854C41.8327 142.348 41.6725 141.794 41.6253 141.225V129.523H34.7365V141.65C34.7365 146.038 38.8886 149.058 45.5887 149.058H98.3404C99.4256 148.303 100.464 147.548 101.596 146.84L108.626 142.31L118.063 148.963H128.396L114.76 138.724L121.791 134.006C123.253 133.062 124.858 132.213 126.509 131.316V141.65C126.509 145.991 127.642 148.963 136.418 148.963H186.055C186.852 149.028 187.654 148.928 188.41 148.668C189.167 148.409 189.861 147.996 190.45 147.456C191.039 146.915 191.511 146.259 191.834 145.528C192.158 144.796 192.327 144.006 192.331 143.207C192.272 142.398 192.051 141.609 191.683 140.886C191.315 140.164 190.806 139.522 190.186 138.999C189.566 138.476 188.848 138.082 188.074 137.84C187.3 137.599 186.485 137.514 185.678 137.592ZM96.9248 145.094H71.2096C71.36 144.06 71.8493 143.106 72.6008 142.38C73.3522 141.654 74.3233 141.198 75.3618 141.083H91.5459V137.073H70.8793C70.8793 135.893 72.861 133.581 74.5597 133.581H93.0558V131.458L105.04 139.998L96.9248 145.094Z" fill="#E52328"/>
</g>
<defs>
<clipPath id="clip0_32_458">
<rect width="226.483" height="226.483" fill="white" transform="translate(0.103516 0.758789)"/>
</clipPath>
</defs>
</svg>
