<svg width="227" height="228" viewBox="0 0 227 228" fill="none" xmlns="http://www.w3.org/2000/svg">
<g clip-path="url(#clip0_32_564)">
<path d="M113.655 54.0386C101.775 54.0386 90.1625 57.5613 80.2848 64.1614C70.4072 70.7614 62.7085 80.1423 58.1623 91.1178C53.6161 102.093 52.4266 114.17 54.7442 125.822C57.0618 137.473 62.7825 148.176 71.1827 156.576C79.583 164.976 90.2856 170.697 101.937 173.015C113.589 175.332 125.666 174.143 136.641 169.597C147.617 165.05 156.997 157.352 163.598 147.474C170.198 137.596 173.72 125.983 173.72 114.104C173.708 98.1773 167.376 82.9067 156.114 71.645C144.852 60.3833 129.582 54.0511 113.655 54.0386ZM113.655 172.517C102.102 172.517 90.8084 169.091 81.2023 162.673C71.5962 156.254 64.1092 147.131 59.688 136.458C55.2668 125.784 54.11 114.039 56.3639 102.708C58.6178 91.3766 64.1812 80.9683 72.3505 72.799C80.5198 64.6297 90.9281 59.0663 102.259 56.8124C113.59 54.5585 125.335 55.7153 136.009 60.1365C146.683 64.5577 155.806 72.0447 162.224 81.6508C168.643 91.2569 172.069 102.551 172.069 114.104C172.044 129.588 165.882 144.432 154.932 155.381C143.983 166.33 129.14 172.492 113.655 172.517Z" fill="#E52328"/>
<path d="M79.3997 90.5115L82.9385 86.1234L84.2124 84.5192C84.4207 84.2656 84.5533 83.9585 84.5951 83.633C84.6368 83.3075 84.5859 82.9769 84.4483 82.679C84.3097 82.3562 84.0792 82.0813 83.7856 81.8883C83.492 81.6954 83.1482 81.593 82.7969 81.5938C82.5094 81.6131 82.2297 81.6949 81.9771 81.8334C81.7244 81.9719 81.5051 82.1639 81.3342 82.3959L79.7771 84.3776L76.5686 88.3411L78.2201 89.6622L79.3997 90.5115Z" fill="#E52328"/>
<path d="M113.655 56.7754C102.305 56.7754 91.2105 60.1416 81.7741 66.4482C72.3377 72.7548 64.9838 81.7185 60.6425 92.2052C56.3013 102.692 55.1678 114.231 57.3855 125.362C59.6032 136.493 65.0724 146.716 73.1012 154.738C81.1301 162.761 91.3578 168.221 102.491 170.43C113.624 172.638 125.161 171.495 135.645 167.146C146.128 162.796 155.085 155.434 161.384 145.993C167.683 136.551 171.04 125.454 171.031 114.104C171.018 98.895 164.968 84.3134 154.209 73.5636C143.451 62.8138 128.864 56.7754 113.655 56.7754ZM104.218 60.3142L109.597 59.748L113.466 71.0721L117.336 59.748L123.092 60.3142L123.517 76.3567L119.317 75.7905L118.94 65.0326L115.165 75.7905H112.145L108.371 65.0326L107.993 75.8849L103.794 76.4511L104.218 60.3142ZM67.9812 86.8787L66.896 85.7935V85.5576C68.0284 84.1421 69.1136 82.7265 70.246 81.3582L74.1623 76.6398L74.9172 75.6961C75.3614 75.1608 75.9278 74.74 76.5687 74.4694C77.261 74.223 78.0087 74.1764 78.7263 74.335C79.4439 74.4935 80.1023 74.8507 80.6265 75.3658C81.1558 75.8636 81.5322 76.5019 81.7117 77.206C81.9019 77.917 81.9019 78.6655 81.7117 79.3765L81.9948 79.1406C82.6013 78.6743 83.3214 78.3786 84.0806 78.2839C84.8397 78.1893 85.6104 78.2992 86.3128 78.6023C87.0152 78.9054 87.6239 79.3907 88.0759 80.008C88.5279 80.6252 88.8068 81.352 88.8837 82.1131C89.0007 82.6733 89.0007 83.2516 88.8837 83.8118C88.478 84.8362 87.8679 85.7674 87.0907 86.5484L83.1272 91.5499L79.7772 95.7021L79.5412 96.0324L78.3145 95.0415L73.5961 91.1725L67.9812 86.8787ZM113.655 149.964C106.563 149.964 99.6297 147.86 93.7326 143.92C87.8355 139.98 83.2392 134.379 80.5251 127.827C77.811 121.274 77.1008 114.064 78.4845 107.108C79.8681 100.152 83.2834 93.7622 88.2985 88.7471C93.3136 83.7321 99.7032 80.3168 106.659 78.9331C113.615 77.5494 120.826 78.2596 127.378 80.9737C133.931 83.6879 139.531 88.2841 143.472 94.1812C147.412 100.078 149.515 107.011 149.515 114.104C149.515 123.614 145.737 132.736 139.012 139.461C132.287 146.186 123.166 149.964 113.655 149.964ZM147.816 95.5606L145.74 92.069L152.818 82.6322L142.201 87.3506L139.229 84.5667L148.666 71.8271L151.638 74.6109L146.071 81.9244L155.035 77.8194L157.631 81.1223L151.685 88.9548L160.084 85.0857L162.113 88.6245L147.816 95.5606Z" fill="#E52328"/>
<path d="M79.3053 80.2727C79.3772 79.9838 79.376 79.6816 79.3019 79.3933C79.2277 79.1049 79.083 78.8396 78.8807 78.6213C78.6208 78.3602 78.2902 78.1809 77.9297 78.1055C77.5692 78.03 77.1945 78.0617 76.8518 78.1966C76.4 78.4516 76.0126 78.8067 75.7193 79.2347C74.4926 80.8389 73.2186 82.396 71.9446 83.953L71.6615 84.3305L72.4637 84.9439L74.4926 86.5482L76.4743 84.0946L78.456 81.5938C78.8244 81.2145 79.1132 80.7653 79.3053 80.2727Z" fill="#E52328"/>
<path d="M79.6356 114.104H113.655V80.084C104.704 80.311 96.1824 83.9681 89.8511 90.2994C83.5197 96.6308 79.8626 105.153 79.6356 114.104Z" fill="#E52328"/>
<path d="M113.655 148.123C122.606 147.896 131.128 144.239 137.459 137.908C143.791 131.576 147.448 123.055 147.675 114.104H113.655V148.123Z" fill="#E52328"/>
</g>
<defs>
<clipPath id="clip0_32_564">
<rect width="226.483" height="226.483" fill="white" transform="translate(0.413818 0.862305)"/>
</clipPath>
</defs>
</svg>
