<svg width="227" height="228" viewBox="0 0 227 228" fill="none" xmlns="http://www.w3.org/2000/svg">
<g clip-path="url(#clip0_32_375)">
<path d="M63.0269 116.162C63.5306 118.967 64.3048 121.716 65.3389 124.372C65.9225 125.917 66.6825 127.389 67.6037 128.76C69.3775 131.303 71.8297 133.298 74.6813 134.516C75.8506 135.011 77.048 135.436 78.2673 135.79C81.7029 136.769 85.2278 137.401 88.7893 137.678C92.1865 137.961 95.5838 138.197 98.981 138.291C103.935 138.291 108.842 138.574 112.712 138.621C116.581 138.668 119.836 138.621 122.856 138.621C127.15 138.621 131.396 138.385 135.69 138.055C138.855 137.862 142.006 137.484 145.127 136.923C147.702 136.488 150.219 135.76 152.629 134.752C156.566 133.139 159.738 130.084 161.5 126.212C162.268 124.536 162.899 122.8 163.387 121.022C164.314 117.613 165.008 114.145 165.463 110.641C165.935 107.197 166.312 103.705 166.69 100.261C167.067 96.8163 167.256 93.3247 167.303 89.8331C167.516 84.2644 167.421 78.6883 167.02 73.13C166.876 70.9527 166.48 68.7994 165.841 66.713C164.837 63.2713 162.752 60.2439 159.895 58.0783C158.014 56.717 155.928 55.6657 153.714 54.9642C150.727 54.0664 147.663 53.4504 144.561 53.124C140.786 52.6522 136.964 52.3219 133.142 52.1332C129.32 51.9444 125.262 51.8029 121.346 51.7085C116.062 51.7085 110.777 51.7085 105.492 51.7085C100.208 51.7085 93.602 52.0388 87.6569 52.605C84.6812 52.8172 81.7198 53.1953 78.7863 53.7374C76.3026 54.1248 73.8772 54.8223 71.5672 55.8135C67.6978 57.3914 64.553 60.3511 62.7438 64.1179C61.7136 66.3245 61.0445 68.6823 60.762 71.1011C60.4093 73.65 60.2201 76.2189 60.1958 78.7921C60.1958 82.0949 60.1958 85.3978 60.1958 88.7479C60.1958 94.6459 60.8564 100.544 61.517 106.442C61.7529 109.745 62.4135 112.953 63.0269 116.162ZM65.5748 84.0295C65.5748 81.1984 65.5748 78.3674 65.9523 75.5364C66.0375 73.0278 66.4337 70.5395 67.1319 68.1285C67.9802 65.0824 69.824 62.408 72.3693 60.5319C73.8321 59.5303 75.418 58.7215 77.0877 58.1255C79.0241 57.5117 81.0149 57.0851 83.0328 56.8515C85.8167 56.4741 88.6477 56.1438 91.4316 55.8607L97.3767 55.4832C100.68 55.4832 103.935 55.1529 107.238 55.1529C111.957 55.1529 116.675 55.1529 121.676 55.1529C125.31 55.1529 128.99 55.1529 132.623 55.6248C136.542 55.8051 140.449 56.1989 144.325 56.8044C146.841 57.133 149.311 57.7504 151.685 58.6445C154.525 59.7281 156.94 61.6968 158.574 64.2594C159.618 65.7975 160.384 67.5061 160.839 69.3081C161.248 71.0612 161.516 72.8441 161.641 74.6399C162.066 80.0188 162.113 85.3978 162.019 90.824C162.019 93.9853 161.736 97.1938 161.405 100.261C161.075 103.328 160.933 105.451 160.603 108.046C160.166 112.284 159.329 116.47 158.102 120.55C157.646 121.946 157.078 123.303 156.404 124.608C154.831 127.79 152.12 130.266 148.807 131.544C146.727 132.363 144.557 132.933 142.343 133.242C138.545 133.832 134.717 134.21 130.877 134.375C125.64 134.658 120.355 134.799 115.118 134.799H113.655L100.019 134.469C96.7162 134.469 93.3661 134.092 90.1104 133.808C87.4139 133.669 84.7322 133.322 82.0892 132.77C80.7752 132.435 79.4956 131.977 78.2673 131.402C75.1283 129.932 72.6181 127.388 71.1897 124.23C70.1456 122.096 69.3539 119.847 68.8305 117.53C68.0966 114.419 67.5452 111.268 67.179 108.093C66.4713 104.46 66.4713 100.685 65.9523 97.0522C65.4332 93.4191 65.5276 88.3704 65.5748 84.0295Z" fill="#E52328"/>
<path d="M37.7363 156.079H38.4912L40.6617 156.315C41.0381 156.326 41.3968 156.477 41.6674 156.739C41.938 157.001 42.101 157.355 42.1244 157.731C42.1449 157.84 42.1449 157.952 42.1244 158.061C42.1244 159.288 42.1244 160.467 42.1244 161.694C41.4638 161.694 28.8185 161.694 28.3939 161.694V159.665C28.3939 159.005 28.3939 158.391 28.3939 157.778C28.4284 157.398 28.6013 157.044 28.8796 156.783C29.1579 156.522 29.5224 156.372 29.9038 156.362H31.0834L32.8764 156.126V154.617C32.9234 154.13 32.9234 153.64 32.8764 153.154H14.9465V156.126H15.7014L17.8719 156.362C18.2565 156.362 18.6269 156.508 18.9075 156.771C19.1881 157.034 19.3577 157.394 19.3818 157.778C19.4052 158.029 19.4052 158.282 19.3818 158.533V169.715C19.3714 169.985 19.3398 170.253 19.2874 170.517C19.2529 170.885 19.0851 171.227 18.8156 171.479C18.5461 171.731 18.1936 171.876 17.8247 171.886H15.6071H14.8993V175.236C15.4655 175.236 32.3573 175.236 32.782 175.236V172.31L30.0453 171.98C28.9129 171.98 28.3939 171.414 28.3467 170.282C28.2995 169.149 28.3467 167.828 28.3467 166.601C29.1016 166.601 41.6054 166.601 42.0772 166.601V170.187C42.0993 170.328 42.0993 170.471 42.0772 170.612C42.0549 170.98 41.8985 171.327 41.6378 171.588C41.377 171.849 41.0298 172.005 40.6617 172.027H39.4349H37.7363V175.236H55.619V172.263H54.7697L52.6464 171.98C52.29 171.97 51.9494 171.831 51.6888 171.587C51.4281 171.344 51.2653 171.014 51.2309 170.659C51.2074 170.361 51.2074 170.061 51.2309 169.763C51.2309 166.082 51.2309 162.402 51.2309 158.722C51.2087 158.423 51.2087 158.123 51.2309 157.825C51.2663 157.45 51.4408 157.101 51.7202 156.848C51.9996 156.595 52.3637 156.455 52.7408 156.457H54.0147H55.619V153.437H37.7363V156.079Z" fill="#E52328"/>
<path d="M119.129 153.154V156.079H119.412L122.007 156.409C122.412 156.409 122.801 156.567 123.091 156.849C123.382 157.131 123.552 157.515 123.564 157.919V169.008C123.583 169.148 123.583 169.291 123.564 169.432C123.402 169.243 123.259 169.037 123.139 168.819C119.364 164.1 115.684 159.052 111.957 154.145C111.728 153.802 111.419 153.52 111.058 153.323C110.696 153.126 110.292 153.019 109.88 153.012H94.1211V155.985L94.7816 156.362L97.0465 156.598C97.4436 156.597 97.826 156.748 98.1154 157.02C98.4048 157.292 98.5795 157.664 98.6035 158.061C98.6255 158.312 98.6255 158.565 98.6035 158.816V169.904C98.6269 170.108 98.6269 170.314 98.6035 170.517C98.6168 170.734 98.5847 170.95 98.5094 171.154C98.4341 171.357 98.3172 171.542 98.1662 171.698C98.0152 171.853 97.8334 171.975 97.6325 172.056C97.4316 172.138 97.2159 172.176 96.9993 172.169H95.7253H94.1682V175.236C94.7816 175.236 107.993 175.236 108.323 175.236C108.418 174.263 108.418 173.283 108.323 172.31H107.474L105.398 172.027C105.057 171.951 104.753 171.759 104.538 171.483C104.323 171.208 104.21 170.867 104.218 170.517V159.099C104.317 159.264 104.428 159.422 104.549 159.571L115.731 174.292C115.981 174.659 116.32 174.955 116.716 175.153C117.113 175.352 117.553 175.445 117.996 175.425H129.037V158.91C129.014 158.659 129.014 158.406 129.037 158.155C129.024 157.945 129.055 157.735 129.128 157.537C129.201 157.34 129.314 157.16 129.461 157.008C129.607 156.857 129.784 156.739 129.979 156.66C130.174 156.581 130.384 156.544 130.594 156.551H131.821L133.472 156.315V153.342C132.529 153.012 119.553 153.059 119.129 153.154Z" fill="#E52328"/>
<path d="M171.786 162.968C171.701 161.612 171.323 160.29 170.68 159.092C170.037 157.895 169.142 156.851 168.058 156.032C167.032 155.278 165.904 154.674 164.708 154.239C162.326 153.42 159.819 153.02 157.3 153.059H135.171V156.362H137.483C138.899 156.362 139.323 156.975 139.323 158.391V169.809C139.348 170.061 139.348 170.313 139.323 170.564C139.299 170.961 139.125 171.333 138.835 171.605C138.546 171.877 138.163 172.028 137.766 172.027H136.492H134.888V175.236H156.545C157.834 175.305 159.126 175.305 160.414 175.236C162.381 175.068 164.301 174.541 166.077 173.679C167.322 173.147 168.439 172.354 169.351 171.352C170.263 170.351 170.948 169.165 171.361 167.875C171.863 166.291 172.008 164.615 171.786 162.968ZM161.217 167.309C161.066 167.885 160.844 168.439 160.556 168.96C160.245 169.495 159.815 169.952 159.3 170.296C158.784 170.639 158.197 170.86 157.583 170.942C156.939 170.989 156.293 170.989 155.649 170.942C153.337 170.942 150.93 170.942 148.666 170.942H148.147V157.259H155.838C156.685 157.265 157.527 157.392 158.338 157.636C158.925 157.829 159.461 158.149 159.91 158.573C160.358 158.997 160.708 159.515 160.933 160.09C161.351 161.222 161.559 162.421 161.547 163.628C161.637 164.865 161.526 166.108 161.217 167.309Z" fill="#E52328"/>
<path d="M88.8365 155.701C87.1787 154.554 85.3231 153.722 83.3631 153.248C80.5937 152.608 77.7595 152.292 74.9172 152.304C72.3334 152.268 69.7536 152.521 67.2262 153.059C65.2982 153.439 63.4479 154.141 61.7529 155.135C60.2009 156.05 58.9085 157.346 57.9984 158.901C57.0883 160.456 56.5907 162.217 56.5529 164.019C56.5151 165.82 56.9383 167.601 57.7823 169.192C58.6264 170.784 59.8632 172.133 61.3754 173.112C62.2704 173.705 63.2377 174.181 64.2537 174.528C66.5167 175.344 68.8835 175.836 71.2841 175.991C74.8432 176.33 78.4323 176.171 81.9476 175.519C83.9688 175.178 85.9161 174.492 87.7041 173.49C89.2725 172.685 90.6005 171.48 91.5533 169.997C92.5062 168.514 93.0502 166.805 93.1302 165.044C93.3118 163.245 93.0095 161.431 92.2546 159.788C91.4997 158.146 90.3196 156.735 88.8365 155.701ZM82.561 166.978C82.3994 168.127 81.8863 169.197 81.0921 170.041C80.298 170.886 79.2617 171.465 78.1257 171.697C75.9245 172.233 73.6268 172.233 71.4256 171.697C70.3033 171.465 69.2834 170.883 68.5121 170.035C67.7407 169.188 67.2576 168.118 67.1319 166.978C66.9754 166.088 66.8651 165.191 66.8016 164.289C66.8237 163.254 66.9662 162.224 67.2262 161.222C67.4435 160.211 67.9454 159.282 68.6726 158.547C69.3999 157.811 70.3224 157.299 71.3312 157.07C73.5606 156.503 75.8964 156.503 78.1257 157.07C79.2677 157.289 80.3114 157.863 81.1079 158.71C81.9043 159.558 82.4129 160.635 82.561 161.788C82.8945 163.502 82.8945 165.264 82.561 166.978Z" fill="#E52328"/>
<path d="M207.41 170.517C205.758 167.969 204.107 165.421 202.408 162.873L196.888 154.427C196.637 153.974 196.267 153.598 195.818 153.34C195.369 153.082 194.858 152.952 194.34 152.965H177.589V155.937H178.25L181.411 156.268C181.614 156.269 181.813 156.325 181.987 156.429C182.16 156.534 182.303 156.683 182.399 156.861C182.496 157.04 182.542 157.241 182.535 157.443C182.527 157.646 182.465 157.843 182.355 158.013C182.305 158.155 182.224 158.284 182.119 158.391C179.665 162.449 177.401 166.412 174.711 170.47C174.617 170.638 174.506 170.796 174.381 170.942C174.22 171.173 174.009 171.364 173.764 171.503C173.519 171.642 173.246 171.724 172.965 171.744H171.786H170.087V175.236C170.889 175.236 183.959 175.236 184.242 175.236V172.31H183.204C182.638 172.31 182.072 172.31 181.506 172.31C181.313 172.302 181.126 172.24 180.966 172.131C180.807 172.022 180.681 171.871 180.602 171.695C180.524 171.518 180.496 171.323 180.522 171.132C180.548 170.941 180.628 170.76 180.751 170.611L181.553 169.29C181.623 169.13 181.745 168.996 181.898 168.911C182.051 168.826 182.228 168.793 182.402 168.819H195.331H195.708C196.087 169.347 196.434 169.899 196.746 170.47C196.835 170.598 196.892 170.745 196.913 170.898C196.934 171.052 196.919 171.209 196.869 171.356C196.818 171.503 196.734 171.636 196.622 171.745C196.511 171.853 196.375 171.933 196.227 171.98C195.829 172.108 195.417 172.187 195 172.216H192.877V175.236H212.175V172.31L209.58 172.027C209.129 171.953 208.699 171.779 208.324 171.518C207.948 171.257 207.636 170.915 207.41 170.517ZM184.431 164.525C185.784 162.26 187.152 160.042 188.536 157.872C188.866 157.872 192.547 163.675 192.971 164.478C190.127 164.637 187.277 164.652 184.431 164.525Z" fill="#E52328"/>
<path d="M81.9948 64.5895C81.9948 66.524 82.2307 68.4114 82.3251 70.3459C82.561 73.5073 82.7497 76.6214 82.9385 79.7827C83.1272 82.944 83.2688 84.9729 83.4575 87.5209C83.6462 90.0688 83.835 93.5132 84.0709 96.4858C84.3068 99.4584 84.354 101.204 84.5427 103.658L85.3449 113.378C85.3449 116.067 85.7223 118.709 85.9582 121.399C86.1942 124.088 86.4773 127.533 86.7132 130.6C86.6904 130.867 86.6904 131.135 86.7132 131.402C90.2506 131.855 93.8108 132.107 97.3767 132.157C97.3767 131.921 97.3767 131.685 97.6127 131.449C98.5092 128.052 99.4057 124.702 100.349 121.352C100.893 119.52 101.588 117.737 102.425 116.02C102.929 115.023 103.67 114.166 104.584 113.524C105.497 112.882 106.555 112.476 107.663 112.34C109.707 112.017 111.774 111.859 113.844 111.868C115.929 111.861 118.012 112.018 120.072 112.34C121.137 112.479 122.151 112.879 123.023 113.504C123.896 114.13 124.6 114.962 125.074 115.926L125.734 117.247C126.451 118.917 127.05 120.636 127.527 122.39C128.377 125.41 129.179 128.429 129.981 131.449C129.981 131.685 129.981 131.921 130.217 132.157C133.801 132.141 137.38 131.873 140.927 131.355C142.909 107.48 144.419 83.5574 145.929 59.5408C143.428 59.2105 140.975 59.069 138.521 58.9746C138.512 59.1475 138.512 59.3208 138.521 59.4936C137.53 64.212 136.539 68.5529 135.501 73.0354C134.039 79.6412 132.434 86.1997 130.783 92.7583C130.227 94.88 129.485 96.9485 128.565 98.9394C127.75 100.726 126.479 102.268 124.881 103.411C123.283 104.553 121.414 105.257 119.459 105.451C117.893 105.639 116.317 105.734 114.74 105.734C112.452 105.805 110.161 105.663 107.899 105.309C105.138 104.866 102.645 103.401 100.916 101.204C100.059 100.026 99.3615 98.7415 98.8395 97.3823C97.9798 95.0625 97.2397 92.7002 96.6218 90.3047C94.1682 80.8679 91.9034 71.1481 89.9217 61.5225C89.9217 60.6732 89.5442 59.8711 89.3555 58.9746C86.8547 58.9746 84.4012 59.2105 81.9476 59.5408C81.9236 59.6972 81.9236 59.8563 81.9476 60.0127C81.7589 61.5225 81.9004 63.0796 81.9948 64.5895Z" fill="#E52328"/>
</g>
<defs>
<clipPath id="clip0_32_375">
<rect width="226.483" height="226.483" fill="white" transform="translate(0.413818 0.655273)"/>
</clipPath>
</defs>
</svg>
