<svg width="227" height="228" viewBox="0 0 227 228" fill="none" xmlns="http://www.w3.org/2000/svg">
<g clip-path="url(#clip0_32_552)">
<path d="M125.527 68.5242C121.589 67.4616 117.528 66.9223 113.448 66.9199C109.471 66.9177 105.509 67.409 101.652 68.3826L113.59 101.411L125.527 68.5242Z" fill="#E52328"/>
<path d="M160.632 114.104C160.664 108.386 159.657 102.711 157.66 97.3535L135.2 155.956C142.863 151.975 149.287 145.967 153.771 138.588C158.256 131.208 160.629 122.739 160.632 114.104Z" fill="#E52328"/>
<path d="M137.04 73.3369L123.357 111.414H104.012L89.8563 73.1953C84.7389 76.1252 80.2109 79.9812 76.5033 84.5666L96.2262 135.667L103.445 117.029H122.319L129.538 135.667L149.45 83.7645C145.942 79.6029 141.744 76.0756 137.04 73.3369Z" fill="#E52328"/>
<path d="M113.448 51.1602C100.999 51.1602 88.8298 54.8517 78.4789 61.768C68.1279 68.6843 60.0603 78.5147 55.2962 90.0161C50.5322 101.518 49.2857 114.173 51.7144 126.383C54.1431 138.593 60.1379 149.808 68.9406 158.611C77.7434 167.414 88.9589 173.409 101.169 175.837C113.378 178.266 126.034 177.02 137.536 172.256C149.037 167.492 158.867 159.424 165.784 149.073C172.7 138.722 176.392 126.552 176.392 114.103C176.354 97.4214 169.711 81.4332 157.915 69.6371C146.119 57.8411 130.13 51.1975 113.448 51.1602ZM113.448 169.12C102.59 169.12 91.9749 165.901 82.9451 159.87C73.9152 153.84 66.8757 145.268 62.716 135.237C58.5563 125.207 57.4632 114.169 59.5747 103.518C61.6863 92.8665 66.9077 83.0802 74.5793 75.3954C82.2508 67.7107 92.0282 62.4725 102.676 60.3426C113.323 58.2128 124.363 59.287 134.401 63.4294C144.438 67.5719 153.022 74.5967 159.068 83.6162C165.115 92.6356 168.352 103.245 168.37 114.103C168.333 128.654 162.533 142.597 152.24 152.881C141.947 163.166 127.999 168.953 113.448 168.978V169.12Z" fill="#E52328"/>
<path d="M113.071 127.032L100.897 158.598V159.542C104.982 160.694 109.205 161.282 113.448 161.288C117.456 161.284 121.449 160.793 125.339 159.825V158.645L113.071 127.032Z" fill="#E52328"/>
<path d="M66.2644 114.104C66.2836 122.551 68.5705 130.839 72.8864 138.102C77.2023 145.364 83.3889 151.334 90.8 155.389L69.0011 98.4385C67.2011 103.466 66.2755 108.764 66.2644 114.104Z" fill="#E52328"/>
</g>
<defs>
<clipPath id="clip0_32_552">
<rect width="226.483" height="226.483" fill="white" transform="translate(0.206909 0.862305)"/>
</clipPath>
</defs>
</svg>
