<svg width="227" height="228" viewBox="0 0 227 228" fill="none" xmlns="http://www.w3.org/2000/svg">
<g clip-path="url(#clip0_32_429)">
<path d="M125.112 130.93C127.958 132.358 131.136 132.994 134.313 132.77C137.912 132.987 141.498 132.168 144.646 130.411C147.383 128.405 149.507 125.677 150.78 122.531L139.692 121.257C139.176 122.128 138.504 122.896 137.71 123.522C136.799 124.206 135.688 124.57 134.549 124.56C133.693 124.589 132.846 124.385 132.098 123.969C131.35 123.553 130.729 122.942 130.302 122.201C129.375 120.678 128.87 118.935 128.839 117.152H151.299V115.784C151.436 111.794 150.779 107.816 149.364 104.082C148.293 101.25 146.342 98.835 143.797 97.1934C140.781 95.449 137.319 94.6287 133.841 94.8342C131.535 94.7188 129.233 95.1354 127.114 96.0518C124.995 96.9682 123.115 98.3597 121.62 100.119C118.627 104.068 117.123 108.947 117.374 113.897C117.278 117.499 118.038 121.072 119.591 124.324C120.761 127.009 122.677 129.302 125.112 130.93ZM130.16 105.734C130.553 104.932 131.165 104.259 131.925 103.791C132.685 103.323 133.562 103.081 134.454 103.091C135.175 103.075 135.89 103.223 136.544 103.526C137.199 103.829 137.775 104.277 138.229 104.837C139.352 106.584 139.957 108.612 139.975 110.688H128.886C128.908 108.958 129.345 107.259 130.16 105.734Z" fill="#E52328"/>
<path d="M180.506 95.023C178.534 94.9165 176.576 95.41 174.891 96.4385C173.244 97.7193 171.879 99.3255 170.88 101.157V95.6836H160.453V148.765H171.871V128.618C172.909 129.953 174.21 131.061 175.693 131.874C177.153 132.616 178.773 132.989 180.411 132.959C182.167 132.979 183.899 132.557 185.449 131.733C186.999 130.908 188.317 129.707 189.282 128.241C191.952 124.025 193.193 119.061 192.821 114.085C192.974 109.276 191.868 104.51 189.612 100.26C188.725 98.6324 187.405 97.2815 185.798 96.3572C184.191 95.4329 182.359 94.9711 180.506 95.023ZM180.506 120.691C180.182 121.29 179.707 121.793 179.127 122.149C178.547 122.505 177.883 122.702 177.203 122.72C176.456 122.72 175.722 122.529 175.07 122.165C174.417 121.802 173.869 121.278 173.475 120.644C172.221 118.626 171.627 116.268 171.777 113.897C171.601 111.544 172.091 109.189 173.192 107.102C173.565 106.466 174.095 105.937 174.731 105.565C175.367 105.193 176.088 104.991 176.825 104.979C177.522 105.002 178.2 105.212 178.789 105.585C179.378 105.958 179.857 106.482 180.175 107.102C181.268 109.09 181.76 111.352 181.591 113.613C181.806 115.988 181.349 118.376 180.27 120.502L180.506 120.691Z" fill="#E52328"/>
<path d="M60.9889 129.892C63.401 127.947 65.1353 125.287 65.9432 122.295C66.9286 117.996 67.3568 113.587 67.2171 109.178V79.0278H54.619V112.812C54.7697 115.044 54.4315 117.282 53.6282 119.37C53.3717 119.964 52.9415 120.467 52.3942 120.812C51.8469 121.157 51.2079 121.329 50.5612 121.305C49.8172 121.364 49.0776 121.145 48.4851 120.691C47.7558 119.96 47.2346 119.048 46.9753 118.049C46.6405 116.419 46.4823 114.758 46.5034 113.095L34.2356 112.67C34.4528 116.857 35.2794 120.989 36.6892 124.938C37.7973 127.426 39.6204 129.528 41.9266 130.977C44.8319 132.495 48.0892 133.212 51.3634 133.053C54.852 133.223 58.2803 132.097 60.9889 129.892Z" fill="#E52328"/>
<path d="M83.4956 130.93C86.3195 132.434 89.5017 133.136 92.6965 132.959C96.2955 133.176 99.8814 132.357 103.03 130.6C105.745 128.571 107.864 125.85 109.164 122.72L98.0754 121.446C97.5601 122.317 96.8882 123.084 96.0937 123.711C95.1761 124.382 94.0694 124.746 92.9324 124.749C92.0744 124.757 91.2288 124.544 90.4769 124.131C89.7249 123.718 89.0919 123.118 88.6387 122.39C87.7535 120.848 87.2518 119.117 87.176 117.341H109.824V115.784C109.962 111.794 109.304 107.816 107.89 104.082C106.777 101.273 104.835 98.8705 102.322 97.1934C99.302 95.4593 95.8433 94.6397 92.3662 94.8342C90.0599 94.7152 87.7573 95.1302 85.6376 96.0468C83.518 96.9634 81.6385 98.3569 80.1456 100.119C77.1219 104.057 75.5848 108.936 75.8046 113.897C75.7385 117.496 76.4971 121.063 78.0223 124.324C79.1673 127.01 81.069 129.306 83.4956 130.93ZM88.5443 105.734C88.9369 104.932 89.5487 104.259 90.3087 103.791C91.0687 103.323 91.9457 103.081 92.838 103.091C93.5509 103.082 94.2566 103.234 94.9022 103.536C95.5478 103.839 96.1165 104.284 96.5656 104.837C97.7073 106.577 98.3292 108.607 98.3586 110.688H87.2231C87.2806 108.958 87.7325 107.263 88.5443 105.734Z" fill="#E52328"/>
</g>
<defs>
<clipPath id="clip0_32_429">
<rect width="226.483" height="226.483" fill="white" transform="translate(0.310364 0.655273)"/>
</clipPath>
</defs>
</svg>
