<svg width="227" height="228" viewBox="0 0 227 228" fill="none" xmlns="http://www.w3.org/2000/svg">
<g clip-path="url(#clip0_32_490)">
<path d="M139.323 108.951C137.153 108.951 133.661 108.385 133.803 111.782C136.775 111.782 139.842 111.782 142.72 111.782C143.287 109.282 140.927 108.904 139.323 108.951Z" fill="#E52328"/>
<path d="M179.335 99.1372L173.296 98.2879C169.366 85.6066 161.428 74.5427 150.673 66.7578C139.919 58.9729 126.929 54.8873 113.655 55.1146C100.502 54.8818 87.6222 58.884 76.9172 66.5304C66.2123 74.1768 58.2492 85.0623 54.2035 97.5801C52.552 97.8632 51.0422 98.1935 49.4851 98.5238C45.097 99.3259 44.7667 102.393 44.7667 102.582C44.0822 109.753 44.0822 116.973 44.7667 124.145C44.7254 124.734 44.8102 125.325 45.0155 125.878C45.2207 126.432 45.5417 126.936 45.957 127.355C46.3723 127.775 46.8724 128.101 47.4238 128.313C47.9752 128.524 48.5654 128.615 49.1548 128.58C50.5703 128.91 52.2218 129.193 53.8732 129.476C57.7676 142.225 65.7091 153.359 76.4957 161.191C87.2824 169.023 100.327 173.129 113.655 172.886C126.896 173.102 139.85 169.027 150.583 161.271C161.316 153.514 169.251 142.493 173.201 129.854L179.005 129.052C182.544 128.769 182.591 124.333 182.591 124.333C183.251 118.247 182.591 103.431 182.591 103.431C182.685 99.2315 179.335 99.1372 179.335 99.1372ZM113.655 69.4585C122.66 69.3888 131.497 71.8975 139.122 76.6883C146.747 81.4791 152.842 88.3518 156.687 96.4949C128.232 94.4592 99.6779 94.1913 71.1897 95.6928C75.076 87.7622 81.1246 81.0915 88.6381 76.4498C96.1515 71.8082 104.824 69.3846 113.655 69.4585ZM147.392 115.085C147.392 117.209 147.392 119.285 147.392 121.408C145.882 121.408 144.561 121.408 143.051 121.408C143.051 119.332 143.051 117.492 143.051 115.321C140.018 115.156 136.978 115.156 133.944 115.321C133.85 117.05 133.85 118.783 133.944 120.511C133.944 121.219 133.661 121.597 132.906 121.55C132.154 121.455 131.393 121.455 130.641 121.55C130.484 121.594 130.318 121.601 130.157 121.57C129.996 121.538 129.845 121.469 129.716 121.367C129.587 121.266 129.484 121.136 129.415 120.987C129.347 120.838 129.314 120.675 129.32 120.511C129.013 116.507 129.013 112.484 129.32 108.48C129.411 108.022 129.602 107.59 129.879 107.215C130.156 106.839 130.513 106.53 130.925 106.309C131.757 105.934 132.654 105.726 133.567 105.696C135.879 105.696 138.285 105.696 140.644 105.696C143.004 105.696 146.448 105.696 147.203 108.055C147.559 110.381 147.638 112.741 147.439 115.085H147.392ZM113.419 110.367C117.691 111.821 121.881 113.506 125.97 115.416C126.867 115.887 126.867 117.303 126.914 118.199C126.896 118.725 126.759 119.241 126.514 119.706C126.269 120.172 125.922 120.576 125.498 120.889C124.819 121.302 124.025 121.484 123.234 121.408H107.757C107.661 120.309 107.661 119.204 107.757 118.105H120.261C121.11 118.105 121.063 117.02 120.261 116.737C116.817 115.652 113.797 114.33 110.447 113.198C109.838 113.025 109.286 112.693 108.847 112.237C108.407 111.782 108.097 111.218 107.946 110.603C107.66 109.891 107.66 109.097 107.946 108.385C109.314 104.422 113.891 105.79 117.383 105.649C120.874 105.507 123.988 105.649 127.15 105.649C127.244 106.779 127.244 107.915 127.15 109.046C122.715 109.046 118.61 109.046 114.127 109.046C112.947 108.999 112.617 110.084 113.655 110.414L113.419 110.367ZM86.2885 118.152H98.8866C99.736 118.152 99.6888 117.067 98.8866 116.784C95.4422 115.699 92.4696 114.378 89.0724 113.245C88.4658 113.067 87.9161 112.735 87.4776 112.28C87.039 111.824 86.7267 111.263 86.5716 110.65C86.334 109.93 86.334 109.153 86.5716 108.432C87.94 104.469 92.5168 105.837 96.0084 105.696C99.5 105.554 102.661 105.696 105.775 105.696C105.893 106.809 105.893 107.932 105.775 109.046C101.435 109.046 97.1408 109.046 92.8471 109.046C92.5115 109.045 92.1831 109.143 91.9034 109.329C91.3844 109.659 91.9034 110.367 92.3753 110.508C95.4894 111.311 98.2732 113.056 101.34 113.717C104.407 114.378 107.899 117.916 104.313 121.078C103.983 121.361 103.983 121.078 103.605 121.314C103.284 121.425 102.935 121.425 102.614 121.314C97.2824 121.314 91.9978 121.314 86.6188 121.314C86.4424 120.268 86.3321 119.212 86.2885 118.152ZM84.1653 121.408C82.5138 121.408 81.3814 121.408 79.4469 121.408C79.4469 116.171 79.4469 110.886 79.4469 105.601C81.0181 105.501 82.5941 105.501 84.1653 105.601C84.2282 110.917 84.2282 116.186 84.1653 121.408ZM67.934 119.143C66.6129 116.359 65.1973 113.906 63.8762 111.075C63.5931 110.461 62.5078 110.32 62.4607 111.075C62.4607 114.33 62.4607 117.256 62.4607 120.511C62.4607 121.125 62.4607 121.644 61.517 121.55C60.9248 121.435 60.3162 121.435 59.724 121.55C58.7803 121.55 58.4972 121.219 58.4972 120.511C58.4972 116.737 58.4972 113.104 58.4972 109.376C58.4465 108.866 58.5186 108.352 58.7074 107.876C58.8962 107.4 59.1963 106.976 59.5824 106.639C60.3243 106.144 61.1745 105.833 62.0613 105.735C62.9482 105.636 63.8457 105.752 64.6783 106.073C65.7341 106.558 66.5741 107.414 67.0375 108.48C68.3587 111.311 69.7742 113.623 71.1897 116.69C71.28 116.908 71.4489 117.084 71.6629 117.184C71.8769 117.284 72.1206 117.3 72.3457 117.228C72.5709 117.157 72.7612 117.004 72.8792 116.8C72.9971 116.595 73.034 116.354 72.9827 116.123C72.9827 112.443 72.9827 109.329 72.9827 105.79C74.4454 105.79 75.5306 105.79 76.9461 105.79V118.247C76.961 118.686 76.8752 119.122 76.6953 119.523C76.5153 119.924 76.2461 120.278 75.9081 120.559C75.3018 121.017 74.6072 121.346 73.8679 121.524C73.1286 121.702 72.3606 121.725 71.612 121.592C70.8633 121.459 70.1502 121.173 69.5173 120.752C68.8844 120.33 68.3454 119.783 67.934 119.143ZM113.655 158.542C104.616 158.661 95.736 156.157 88.0904 151.333C80.4447 146.51 74.3612 139.573 70.5763 131.364C90.8182 132.874 114.221 133.015 114.221 133.015C130.689 133.015 145.41 132.496 156.687 131.6C152.866 139.754 146.774 146.633 139.141 151.412C131.509 156.191 122.66 158.666 113.655 158.542ZM167.775 120.04C167.231 120.559 166.586 120.961 165.881 121.222C165.175 121.483 164.424 121.598 163.673 121.558C162.922 121.518 162.187 121.325 161.513 120.991C160.839 120.657 160.24 120.189 159.754 119.615C158.055 116.831 156.828 113.859 155.035 111.169C155.035 110.839 154.564 110.32 154.186 110.461C153.989 110.562 153.826 110.719 153.717 110.912C153.608 111.105 153.558 111.325 153.573 111.547C153.573 114.849 153.573 118.152 153.573 121.408C152.204 121.408 151.166 121.408 149.704 121.408C149.704 118.294 149.704 115.038 149.704 111.971C149.704 110.32 149.232 108.48 150.27 107.253C150.942 106.55 151.802 106.055 152.748 105.829C153.694 105.603 154.685 105.655 155.602 105.979C156.185 106.178 156.719 106.5 157.166 106.923C157.614 107.346 157.966 107.861 158.197 108.432C159.612 111.311 161.169 114.047 162.679 116.926C162.772 117.062 162.905 117.167 163.06 117.226C163.214 117.284 163.383 117.293 163.544 117.252C163.704 117.211 163.847 117.121 163.954 116.995C164.061 116.869 164.127 116.713 164.142 116.548C164.142 112.821 164.142 109.423 164.142 105.743C165.51 105.743 166.737 105.743 168.105 105.743C168.105 109.754 168.105 113.811 168.105 117.728C168.286 118.508 168.186 119.326 167.822 120.04H167.775Z" fill="#E52328"/>
</g>
<defs>
<clipPath id="clip0_32_490">
<rect width="226.483" height="226.483" fill="white" transform="translate(0.413818 0.758789)"/>
</clipPath>
</defs>
</svg>
