<svg width="227" height="228" viewBox="0 0 227 228" fill="none" xmlns="http://www.w3.org/2000/svg">
<g clip-path="url(#clip0_32_402)">
<path d="M66.8124 92.7581C65.5588 94.512 64.7313 96.5339 64.3955 98.6634C64.0597 100.793 64.2249 102.971 64.8778 105.026C66.0291 108.522 68.1776 111.606 71.0589 113.896C74.7448 117.005 78.944 119.448 83.4683 121.116C92.1942 124.403 101.418 126.174 110.741 126.353C115.292 126.486 119.848 126.313 124.377 125.834C129.048 125.348 133.672 124.48 138.202 123.239C144.11 121.728 149.723 119.241 154.81 115.878C158.007 113.871 160.702 111.159 162.69 107.951C164.633 104.864 165.31 101.145 164.577 97.5708C163.955 94.553 162.519 91.7628 160.425 89.5024C157.232 86.1807 153.416 83.5194 149.195 81.6698C144.211 79.3761 138.967 77.6966 133.578 76.6683C129.806 75.9432 125.992 75.4546 122.159 75.2056L119.611 74.9697H111.024H110.599C109.136 74.9697 107.721 74.9697 106.305 75.2528C101.805 75.6582 97.3418 76.3995 92.9522 77.4705C86.8929 78.8953 81.0856 81.234 75.7301 84.4065C72.1851 86.5081 69.1416 89.3583 66.8124 92.7581ZM125.179 110.405C124.56 114.439 122.498 118.11 119.375 120.738C118.217 121.697 116.773 122.245 115.27 122.295H112.534C108.948 122.225 105.37 121.926 101.823 121.399C98.2888 120.964 94.7889 120.286 91.348 119.37C90.1212 119.039 88.9888 118.662 87.8564 118.237C86.724 117.813 86.8655 117.247 87.8564 116.633C95.2109 110.861 103.776 106.828 112.911 104.837C115.295 104.201 117.758 103.915 120.225 103.988C121.012 103.949 121.798 104.096 122.519 104.416C123.241 104.736 123.877 105.22 124.377 105.83C124.877 106.44 125.227 107.159 125.399 107.929C125.571 108.699 125.56 109.498 125.368 110.263L125.179 110.405ZM148.771 91.1066L149.998 88.7002C150.517 87.7094 151.036 87.4735 152.074 87.9925C154.305 89.0519 156.237 90.6507 157.695 92.6444C159.153 94.638 160.092 96.9636 160.425 99.411C160.449 99.8038 160.449 100.198 160.425 100.591C160.405 103.193 159.488 105.709 157.83 107.715C155.62 110.464 152.854 112.715 149.714 114.321C144.431 117.254 138.687 119.264 132.728 120.266C132.492 120.266 131.973 120.266 131.973 120.266C131.891 120.123 131.847 119.96 131.847 119.794C131.847 119.629 131.891 119.466 131.973 119.323C132.728 118.237 133.53 117.199 134.38 116.114C137.24 112.228 139.796 108.126 142.024 103.846C144.43 99.7413 146.27 95.306 148.582 91.1066H148.771ZM108.759 81.6698C109.638 80.7725 110.688 80.0599 111.847 79.5737C113.006 79.0876 114.25 78.8377 115.506 78.8388C122.103 78.6421 128.694 79.3728 135.087 81.0093C136.786 81.4339 138.532 82.0001 140.231 82.5192C140.776 82.7132 141.298 82.9664 141.788 83.2741C141.905 83.362 142 83.476 142.065 83.607C142.131 83.738 142.165 83.8825 142.165 84.029C142.165 84.1755 142.131 84.32 142.065 84.4511C142 84.5821 141.905 84.6961 141.788 84.784C141.453 85.1332 141.072 85.4349 140.655 85.6805C133.948 89.8799 126.775 93.2844 119.281 95.825C116.452 96.8236 113.499 97.427 110.505 97.618C109.214 97.7452 107.913 97.5338 106.73 97.0046C104.748 96.1553 104.182 94.5039 104.229 92.2862C104.299 88.2822 105.825 84.4409 108.523 81.4811L108.759 81.6698ZM94.2262 81.3867C95.1903 81.0851 96.1896 80.9106 97.1988 80.8677C98.0953 80.8677 98.284 81.2924 97.765 82.0001C96.3023 83.9347 94.7452 85.822 93.3297 87.7566C88.0305 94.6646 83.7703 102.311 80.6844 110.452C80.4183 111.205 80.0534 111.919 79.5992 112.575C79.5095 112.782 79.3772 112.967 79.2111 113.119C79.045 113.271 78.8488 113.387 78.6352 113.458C78.4215 113.529 78.1953 113.555 77.9712 113.533C77.7471 113.511 77.5301 113.442 77.3344 113.33C76.1094 112.842 75.0004 112.103 74.0787 111.16C71.9679 109.207 70.3508 106.782 69.3603 104.082C69.0208 102.936 68.7529 101.77 68.5582 100.591C68.6773 97.8234 69.7625 95.1855 71.6251 93.1355C73.7497 90.7079 76.2902 88.6787 79.1274 87.1432C83.8155 84.5169 88.8285 82.5181 94.0375 81.198L94.2262 81.3867Z" fill="#E52328"/>
<path d="M147.261 133.62H131.502V152.823H147.355H147.969C148.532 152.667 149.035 152.344 149.414 151.899C149.792 151.453 150.029 150.904 150.092 150.323C150.163 149.854 150.163 149.376 150.092 148.907C150.092 146.548 150.092 144.189 150.092 141.877C150.092 140.508 150.092 139.14 150.092 137.772C150.139 135.13 149.29 134.044 147.261 133.62ZM144.572 146.406C144.572 147.775 144.147 148.152 142.779 148.152H137.211V138.149H143.156C144.005 138.149 144.336 138.574 144.477 139.376C144.524 139.657 144.524 139.944 144.477 140.225C144.477 142.16 144.477 144.142 144.477 146.076C144.572 146.218 144.619 146.312 144.572 146.406Z" fill="#E52328"/>
<path d="M171.325 134.233V133.525H156.839C156.313 133.519 155.791 133.618 155.304 133.818C154.817 134.018 154.375 134.314 154.005 134.688C153.635 135.063 153.345 135.508 153.151 135.997C152.957 136.486 152.863 137.01 152.876 137.536C152.876 142.585 152.876 147.68 152.876 152.729H158.349V148.53H165.71V152.729H171.325C171.325 152.729 171.325 152.304 171.325 152.068C171.278 146.17 171.325 140.178 171.325 134.233ZM165.71 143.67H158.349C158.349 142.254 158.349 140.839 158.349 139.47C158.343 139.301 158.371 139.133 158.433 138.975C158.494 138.818 158.588 138.674 158.708 138.555C158.827 138.435 158.97 138.342 159.128 138.28C159.285 138.218 159.454 138.19 159.623 138.196C161.039 138.196 162.549 138.196 164.011 138.196H165.71V143.67Z" fill="#E52328"/>
<path d="M107.107 133.525H102.389C101.823 133.525 101.728 133.525 101.728 134.186V146.926C101.728 148.011 101.398 148.341 100.313 148.341H94.3678V133.573H88.8473V152.824H104.843C105.52 152.737 106.146 152.415 106.611 151.915C107.076 151.416 107.352 150.769 107.391 150.087C107.437 149.616 107.437 149.142 107.391 148.671C107.391 143.953 107.391 139.235 107.391 134.516V133.808L107.107 133.525Z" fill="#E52328"/>
<path d="M129.001 141.405C129.001 139.895 129.001 138.385 129.001 136.923C128.992 136.218 128.752 135.536 128.317 134.982C127.882 134.428 127.277 134.032 126.594 133.856C125.856 133.654 125.095 133.543 124.33 133.525H110.174V152.824H115.884C115.884 148.105 115.884 143.387 115.884 138.385H121.923C122.098 138.351 122.278 138.36 122.449 138.412C122.619 138.464 122.774 138.557 122.9 138.683C123.026 138.809 123.119 138.964 123.17 139.134C123.222 139.304 123.231 139.485 123.197 139.659V152.776C123.197 152.776 123.197 153.012 123.197 153.06H129.142C129.119 152.951 129.119 152.838 129.142 152.729L129.001 141.405Z" fill="#E52328"/>
<path d="M60.3483 133.525C59.9708 133.525 60.018 133.761 60.018 134.044V140.414H52.7045V133.525H47.184V152.871H52.6573V145.321H60.0652V152.871H66.0575V133.997C66.0575 133.997 66.0575 133.714 66.0575 133.525H60.3483Z" fill="#E52328"/>
<path d="M82.6662 133.525C82.6662 133.525 82.2415 133.761 82.1472 133.903L77.9006 139.801C77.807 139.995 77.6791 140.171 77.5231 140.32L77.1928 139.801L73.3709 133.997C73.3122 133.861 73.2123 133.747 73.0854 133.671C72.9584 133.595 72.8108 133.56 72.6632 133.572H66.718C66.8417 133.789 66.9838 133.994 67.1427 134.186C69.1716 137.3 71.2005 140.461 73.3709 143.623C74.2558 144.819 74.6902 146.289 74.5977 147.775C74.5977 149.521 74.5977 151.266 74.5977 153.012H80.2126V145.935C80.2337 145.617 80.3308 145.31 80.4957 145.038C82.9965 141.452 85.4972 137.866 87.9508 134.233C88.056 134.099 88.1506 133.957 88.2339 133.808C86.2993 133.525 84.4592 133.478 82.6662 133.525Z" fill="#E52328"/>
<path d="M173.92 134.233V152.116C173.92 152.116 173.92 152.588 173.92 152.824H179.299V133.62H174.58C174.061 133.478 173.92 133.667 173.92 134.233Z" fill="#E52328"/>
</g>
<defs>
<clipPath id="clip0_32_402">
<rect width="226.483" height="226.483" fill="white" transform="translate(0 0.655273)"/>
</clipPath>
</defs>
</svg>
