<svg width="227" height="228" viewBox="0 0 227 228" fill="none" xmlns="http://www.w3.org/2000/svg">
<g clip-path="url(#clip0_32_386)">
<path d="M133.812 130.6L139.568 137.017H138.105C130.084 137.017 123.573 140.084 123.573 146.453C123.573 151.785 130.084 155.89 138.105 155.89C146.127 155.89 152.638 151.549 152.638 146.453C152.638 141.357 146.032 134.61 142.682 130.458L133.812 130.6ZM145.042 146.406C145.042 149.19 141.927 151.408 138.105 151.408C134.284 151.408 131.169 149.19 131.169 146.406C131.169 143.622 134.284 141.452 138.105 141.452C141.927 141.452 145.042 143.669 145.042 146.406Z" fill="#E52328"/>
<path d="M114.419 147.869C114.419 149.021 113.962 150.125 113.148 150.939C112.334 151.753 111.23 152.21 110.078 152.21C108.927 152.21 107.823 151.753 107.009 150.939C106.195 150.125 105.737 149.021 105.737 147.869V137.489H98.3295V148.53C98.3295 159.288 121.685 159.382 121.685 148.53V137.489H114.419V147.869Z" fill="#E52328"/>
<path d="M162.358 137.536H154.384V156.22H162.358V137.536Z" fill="#E52328"/>
<path d="M72.8501 131.26L75.3981 134.374L61.2429 156.173H69.8776L72.1896 152.351H88.6096L91.0631 156.173H100.075L82.6172 131.26H72.8501ZM75.115 147.256L79.8334 139.093L85.4482 147.256H75.115Z" fill="#E52328"/>
<path d="M159.102 71.1007C153.55 70.9835 148.123 72.7645 143.72 76.1493C139.499 72.9273 134.356 71.1415 129.046 71.0535C123.52 70.9713 118.13 72.768 113.759 76.1493C109.459 72.8549 104.194 71.0695 98.7777 71.0695C93.3614 71.0695 88.0961 72.8549 83.7968 76.1493C80.6867 73.7677 77.0552 72.1591 73.2014 71.4561C69.3477 70.7532 65.3822 70.976 61.6314 72.1062C57.8807 73.2364 54.4522 75.2416 51.6284 77.9566C48.8047 80.6717 46.6664 84.0188 45.3899 87.7223C44.1134 91.4258 43.7351 95.3796 44.2863 99.2579C44.8375 103.136 46.3023 106.828 48.56 110.029C50.8178 113.231 53.8039 115.849 57.2723 117.67C60.7407 119.491 64.5921 120.462 68.5092 120.502C74.0536 120.61 79.4671 118.811 83.844 115.406C88.0303 118.627 93.1426 120.414 98.4238 120.502C103.955 120.572 109.351 118.795 113.759 115.454C117.98 118.676 123.123 120.461 128.433 120.549C133.997 120.64 139.424 118.825 143.815 115.406C146.92 117.8 150.551 119.421 154.407 120.135C158.262 120.849 162.232 120.636 165.989 119.513C169.746 118.39 173.182 116.389 176.014 113.676C178.845 110.963 180.99 107.616 182.273 103.911C183.555 100.205 183.938 96.2477 183.39 92.365C182.841 88.4824 181.377 84.7859 179.118 81.5808C176.859 78.3756 173.87 75.7537 170.398 73.9314C166.926 72.1092 163.071 71.1389 159.15 71.1007H159.102ZM158.489 117.671C153.009 117.61 147.753 115.488 143.768 111.726C139.625 115.634 134.128 117.782 128.433 117.718C122.963 117.679 117.714 115.552 113.759 111.773C109.583 115.659 104.081 117.803 98.3766 117.766C92.9403 117.672 87.7306 115.571 83.7496 111.868C83.0473 112.495 82.3066 113.078 81.532 113.613C78.8579 115.571 75.7719 116.891 72.5097 117.474C69.2474 118.057 65.8951 117.886 62.7087 116.976C59.5224 116.066 56.5861 114.439 54.1242 112.221C51.6622 110.003 49.7396 107.251 48.5032 104.177C47.7378 104.098 46.9803 103.956 46.2384 103.752C44.9102 100.223 44.4473 96.4269 44.8884 92.6821C45.3295 88.9373 46.6618 85.3528 48.7736 82.2289C50.8854 79.1051 53.7152 76.533 57.0259 74.7281C60.3366 72.9232 64.0317 71.9382 67.8015 71.8556C68.2143 72.4623 68.5622 73.1107 68.8395 73.7901C74.4767 73.8705 79.8665 76.1177 83.8912 80.0656V76.9987C87.921 73.7838 92.8928 71.9774 98.0464 71.8556C98.4754 72.4688 98.8541 73.1158 99.1788 73.7901C104.776 73.9481 110.119 76.1658 114.183 80.0184V77.0458C118.201 73.7971 123.174 71.9571 128.338 71.8084C128.761 72.4093 129.109 73.0588 129.376 73.743C135.011 73.9233 140.376 76.1939 144.428 80.1128V76.9987C148.458 73.7711 153.423 71.9338 158.583 71.7612C158.916 72.4313 159.294 73.0777 159.716 73.6958C162.621 73.6274 165.508 74.1586 168.199 75.2563C170.889 76.354 173.325 77.9947 175.352 80.0757C177.38 82.1568 178.958 84.6336 179.985 87.3515C181.013 90.0694 181.469 92.97 181.326 95.8722C181.364 98.8342 180.79 101.772 179.642 104.503C178.494 107.233 176.796 109.698 174.653 111.744C172.511 113.789 169.97 115.371 167.188 116.391C164.407 117.411 161.446 117.846 158.489 117.671Z" fill="#E52328"/>
<path d="M76.2474 103.941C75.2602 101.254 74.7958 98.4032 74.8791 95.542C74.914 90.309 76.709 85.2399 79.9749 81.1509H83.1362C80.848 78.9133 78.0714 77.2377 75.0252 76.2562C71.9791 75.2747 68.7465 75.014 65.5824 75.4948C62.4183 75.9756 59.4091 77.1846 56.792 79.0267C54.1748 80.8688 52.0212 83.2935 50.501 86.1098C48.9807 88.9261 48.1353 92.057 48.0314 95.2557C47.9274 98.4544 48.5678 101.634 49.9021 104.543C51.2363 107.452 53.228 110.011 55.72 112.019C58.2121 114.027 61.1365 115.429 64.2627 116.114L65.2535 114.793C66.3238 115.02 67.4153 115.13 68.5092 115.123C72.7611 115.175 76.91 113.814 80.3052 111.254H83.1362C81.1379 109.28 79.5362 106.942 78.4178 104.365C77.6811 104.303 76.9533 104.161 76.2474 103.941ZM68.5092 113.897C66.0436 113.986 63.5856 113.574 61.2842 112.684C58.9828 111.795 56.8861 110.447 55.1213 108.723C53.3565 106.999 51.9605 104.934 51.0178 102.654C50.0752 100.374 49.6056 97.9264 49.6376 95.4593C49.6696 92.9923 50.2025 90.5575 51.204 88.3027C52.2054 86.0479 53.6546 84.02 55.4635 82.3422C57.2724 80.6644 59.4033 79.3716 61.727 78.5423C64.0507 77.713 66.5186 77.3644 68.9811 77.5178C72.5761 77.561 76.0762 78.6784 79.0312 80.7263C75.7518 85.032 73.9758 90.2948 73.9758 95.7072C73.9758 101.12 75.7518 106.382 79.0312 110.688C75.913 112.763 72.2548 113.879 68.5092 113.897Z" fill="#E52328"/>
<path d="M87.0053 90.0217C87.227 89.4045 87.6002 88.8529 88.0905 88.4174C87.1744 85.8817 85.6894 83.5897 83.7496 81.7173C80.3926 85.2334 78.3858 89.8226 78.0836 94.6745C77.7815 99.5265 79.2033 104.329 82.0982 108.235C82.5961 108.936 83.1653 109.585 83.7968 110.169V107.574C86.4301 104.349 87.8789 100.319 87.9018 96.1556C87.9182 94.0771 87.6158 92.0085 87.0053 90.0217ZM83.7496 106.206C81.6471 103.179 80.5203 99.5815 80.5203 95.896C80.5203 92.2106 81.6471 88.6132 83.7496 85.5864C85.8522 88.6132 86.979 92.2106 86.979 95.896C86.979 99.5815 85.8522 103.179 83.7496 106.206Z" fill="#E52328"/>
<path d="M116.92 89.9745C117.133 89.3663 117.508 88.8279 118.005 88.4174C117.08 85.9084 115.633 83.6246 113.759 81.7173C110.192 85.4595 108.184 90.4197 108.144 95.5894C108.038 100.982 110.054 106.201 113.759 110.122V107.668C116.146 104.288 117.506 100.29 117.675 96.1556C117.767 94.0676 117.512 91.9788 116.92 89.9745ZM113.759 106.111C111.689 103.089 110.582 99.5117 110.582 95.8489C110.582 92.186 111.689 88.6087 113.759 85.5864C115.856 88.6741 116.959 92.329 116.92 96.0612C116.842 99.6434 115.745 103.129 113.759 106.111Z" fill="#E52328"/>
<path d="M136.36 103.894C134.949 100.062 134.546 95.932 135.191 91.8999C135.835 87.8679 137.505 84.0691 140.04 80.868H143.154C139.31 77.1576 134.176 75.084 128.834 75.084C123.491 75.084 118.357 77.1576 114.514 80.868C118.457 84.9722 120.627 90.4641 120.553 96.1556C120.441 101.639 118.326 106.892 114.608 110.924C117.25 113.414 120.507 115.156 124.045 115.973L125.083 114.699C126.159 114.884 127.247 114.995 128.338 115.029C132.628 114.997 136.801 113.628 140.276 111.113H142.918C141.091 109.168 139.622 106.916 138.577 104.46C137.819 104.358 137.074 104.168 136.36 103.894ZM128.48 113.897C124.91 113.878 121.427 112.793 118.477 110.783C121.76 106.487 123.539 101.231 123.539 95.8253C123.539 90.4192 121.76 85.1632 118.477 80.868C121.518 78.7341 125.143 77.5893 128.857 77.5893C132.572 77.5893 136.197 78.7341 139.238 80.868C135.977 85.1549 134.212 90.3923 134.212 95.7781C134.212 101.164 135.977 106.401 139.238 110.688C136.052 112.805 132.305 113.923 128.48 113.897Z" fill="#E52328"/>
<path d="M178.117 88.3231C176.56 84.5539 173.954 81.3104 170.608 78.9772C167.263 76.6439 163.319 75.3188 159.244 75.1588C153.791 75.051 148.516 77.1032 144.57 80.8681C148.506 85.0151 150.673 90.5325 150.609 96.25C150.562 101.733 148.438 106.994 144.664 110.971C147.306 113.461 150.563 115.203 154.101 116.02C154.384 115.643 154.761 115.218 155.092 114.746C157.839 115.263 160.667 115.172 163.375 114.48C166.084 113.787 168.608 112.511 170.771 110.739C172.934 108.967 174.683 106.744 175.895 104.225C177.107 101.705 177.753 98.9512 177.787 96.1557C177.839 94.0558 177.52 91.9633 176.843 89.9746C177.107 89.3166 177.548 88.7449 178.117 88.3231ZM158.536 113.897C154.903 113.865 151.365 112.729 148.392 110.641C151.682 106.367 153.466 101.125 153.466 95.731C153.466 90.3372 151.682 85.0948 148.392 80.8209C151.508 78.6221 155.241 77.466 159.055 77.518C161.521 77.4286 163.979 77.841 166.28 78.7304C168.582 79.6197 170.678 80.9673 172.443 82.6914C174.208 84.4156 175.604 86.4804 176.547 88.7604C177.489 91.0404 177.959 93.4882 177.927 95.9552C177.895 98.4223 177.362 100.857 176.36 103.112C175.359 105.367 173.91 107.395 172.101 109.072C170.292 110.75 168.161 112.043 165.837 112.872C163.514 113.702 161.046 114.05 158.583 113.897H158.536Z" fill="#E52328"/>
<path d="M146.787 89.9271C147.009 89.311 147.402 88.7709 147.92 88.37C146.985 85.8321 145.485 83.5407 143.532 81.6699C139.908 85.4918 137.887 90.5582 137.887 95.8251C137.887 101.092 139.908 106.158 143.532 109.98V107.48C146.121 104.188 147.503 100.107 147.448 95.9195C147.522 93.9005 147.299 91.8815 146.787 89.9271ZM143.579 106.111C141.503 103.091 140.392 99.513 140.392 95.8487C140.392 92.1843 141.503 88.6061 143.579 85.5862C145.724 88.6707 146.847 92.3513 146.787 96.1082C146.771 99.6647 145.722 103.14 143.768 106.111H143.579Z" fill="#E52328"/>
<path d="M106.304 103.941C104.953 100.125 104.592 96.0299 105.252 92.0366C105.912 88.0433 107.572 84.2822 110.078 81.104H113.004C109.187 77.4692 104.119 75.4419 98.8485 75.4419C93.5781 75.4419 88.5098 77.4692 84.6933 81.104C88.6488 85.2198 90.8193 90.7309 90.7328 96.4387C90.6609 101.962 88.5035 107.255 84.6933 111.254C87.3411 113.727 90.5975 115.453 94.1301 116.256L95.1681 114.935C96.2377 115.166 97.3297 115.277 98.4238 115.265C102.709 115.394 106.903 114.008 110.267 111.349H113.051C111.065 109.401 109.464 107.096 108.332 104.554C107.637 104.42 106.957 104.215 106.304 103.941ZM98.4238 113.897C94.8337 113.867 91.3341 112.767 88.3737 110.735C91.6832 106.443 93.4781 101.175 93.4781 95.7546C93.4781 90.3342 91.6832 85.0664 88.3737 80.7737C91.4174 78.6809 95.028 77.5685 98.7217 77.5853C102.415 77.6022 106.016 78.7476 109.04 80.868C105.78 85.1549 104.014 90.3923 104.014 95.7782C104.014 101.164 105.78 106.401 109.04 110.688C105.903 112.797 102.204 113.915 98.4238 113.897Z" fill="#E52328"/>
</g>
<defs>
<clipPath id="clip0_32_386">
<rect width="226.483" height="226.483" fill="white" transform="translate(0.517212 0.655273)"/>
</clipPath>
</defs>
</svg>
