<svg width="227" height="228" viewBox="0 0 227 228" fill="none" xmlns="http://www.w3.org/2000/svg">
<g clip-path="url(#clip0_32_496)">
<path d="M130.367 84.425L132.16 85.3687C132.632 84.0947 133.387 81.877 134.095 79.7538C133.576 78.5742 133.104 77.3946 132.632 76.1206L131.594 79.4707C131.122 80.9805 130.65 82.3961 130.556 82.9151C130.484 83.1852 130.324 83.424 130.102 83.5946C129.881 83.7651 129.609 83.858 129.329 83.8588C128.905 83.8146 128.491 83.7031 128.102 83.5285C127.819 84.7081 127.536 85.6046 127.253 86.5482C126.97 87.4919 126.781 88.0581 126.498 89.1434C127.819 91.1251 129.943 94.3336 131.217 96.2209L128.197 91.7857C129.235 88.4356 129.612 87.6335 130.367 84.425Z" fill="#E52328"/>
<path d="M86.0145 126.277C86.819 126.488 87.6074 126.756 88.3737 127.079C87.378 126.184 86.2474 125.452 85.0236 124.909L86.0145 126.277Z" fill="#E52328"/>
<path d="M95.4984 92.5878H102.859L101.349 90.5117H93.9885C93.5383 91.4841 92.8193 92.3073 91.9163 92.8842C91.0134 93.4611 89.9642 93.7675 88.8927 93.7674H89.3173C89.6948 94.2393 90.5441 95.5132 90.5441 95.5132C91.5769 95.6401 92.6227 95.4221 93.5187 94.893C94.4148 94.3639 95.1108 93.5535 95.4984 92.5878Z" fill="#E52328"/>
<path d="M87.1469 92.1634C86.7503 92.1775 86.364 92.2934 86.0252 92.5C85.6864 92.7066 85.4064 92.9969 85.2123 93.343L84.8349 94.3339C85.2659 94.8314 85.7963 95.2332 86.3919 95.5134C86.6357 95.1254 86.9597 94.7941 87.3423 94.5418C87.7248 94.2895 88.1569 94.1221 88.6096 94.0508H87.1469V92.1162V92.1634Z" fill="#E52328"/>
<path d="M139.71 75.4599C139.414 74.9762 139.191 74.4515 139.049 73.9028C138.497 71.4037 138.919 68.788 140.229 66.5893C139.997 66.5249 139.753 66.5249 139.521 66.5893C139.137 66.6274 138.77 66.7649 138.455 66.9883C138.141 67.2117 137.89 67.5133 137.728 67.8633C136.832 69.4675 136.879 70.6943 137.728 74.3275C138.436 76.6395 140.087 80.7916 141.078 83.2924L141.314 83.8114C142.409 86.2903 143.217 88.8867 143.72 91.5496C143.933 92.7873 143.897 94.055 143.613 95.2785C143.329 96.5019 142.804 97.6564 142.069 98.6743C140.117 100.768 137.498 102.118 134.661 102.496C135.699 104.808 136.36 106.365 136.643 107.215C136.739 107.591 136.915 107.941 137.159 108.242C137.404 108.544 137.71 108.789 138.058 108.96C137.539 107.545 136.832 105.846 136.265 104.62C139.21 104.193 141.922 102.779 143.956 100.609C145.363 98.9111 146.131 96.7743 146.127 94.5694C145.142 88.5575 143.199 82.7428 140.37 77.3472C140.276 76.9226 139.993 76.3564 139.71 75.4599Z" fill="#E52328"/>
<path d="M91.3934 78.1496L89.8835 76.0735C89.1599 76.2609 88.4127 76.3404 87.6659 76.3095C86.6375 76.3003 85.6116 76.2056 84.5989 76.0264L85.6842 77.5363C87.4864 78.2943 89.4713 78.5075 91.3934 78.1496Z" fill="#E52328"/>
<path d="M108.757 65.2683H109.748C110.171 65.3175 110.599 65.3175 111.022 65.2683C110.537 64.811 109.895 64.5575 109.229 64.5606C108.55 64.5641 107.895 64.8158 107.389 65.2683H108.757Z" fill="#E52328"/>
<path d="M144.806 131.798C145.466 131.798 145.844 130.901 145.608 130.099C145.109 128.707 144.684 127.289 144.334 125.852V114.104C143.661 113.287 143.031 112.437 142.446 111.556V123.54C142.426 124.456 142.671 125.357 143.154 126.135C143.361 126.52 143.469 126.949 143.469 127.386C143.469 127.822 143.361 128.252 143.154 128.636C143.037 128.879 142.857 129.085 142.633 129.234C142.409 129.384 142.149 129.47 141.88 129.486L140.182 129.202C138.755 128.884 137.302 128.694 135.841 128.636C133.862 128.719 131.92 129.201 130.131 130.052L129.612 130.288L129.141 130.005C127.537 128.88 125.697 128.138 123.762 127.834L125.224 129.769C127.763 129.89 130.209 130.76 132.255 132.269C136.236 130.565 140.708 130.397 144.806 131.798Z" fill="#E52328"/>
<path d="M82.2397 73.8084H82.4757L83.2306 73.2422C83.0182 72.9678 82.7467 72.7447 82.4363 72.5895C82.1259 72.4343 81.7846 72.351 81.4376 72.3457H81.1073L82.1454 73.8556L82.2397 73.8084Z" fill="#E52328"/>
<path d="M149.996 83.4341C150.892 82.7263 148.627 79.0931 148.675 78.3382C148.696 77.6659 148.807 76.9994 149.005 76.3565C149.241 75.5544 149.618 74.3748 149.854 73.148C150.002 71.835 149.873 70.5056 149.475 69.2457C149.077 67.9859 148.418 66.8237 147.542 65.8345C148.036 67.1921 148.198 68.6481 148.014 70.081C147.856 71.0579 147.619 72.0205 147.306 72.9592C147.287 73.1317 147.287 73.3058 147.306 73.4783C147.11 74.0454 146.967 74.63 146.882 75.2241C147.042 75.7746 147.247 76.3112 147.495 76.8283C148.25 78.4798 149.052 80.1784 147.825 81.1221C147.58 81.3058 147.282 81.4052 146.976 81.4052C146.71 81.4439 146.44 81.4439 146.174 81.4052C146.705 81.8605 147.273 82.2709 147.873 82.6319C147.873 82.6319 149.571 83.7172 149.996 83.4341Z" fill="#E52328"/>
<path d="M132.255 65.8816C131.884 65.1523 131.475 64.4435 131.028 63.7583L132.16 66.1175C132.16 66.1175 132.207 65.9759 132.255 65.8816Z" fill="#E52328"/>
<path d="M119.562 110.895C119.562 110.895 122.724 113.207 124.281 114.292C126.229 115.659 128.28 116.874 130.415 117.926C130.747 117.788 131.096 117.693 131.453 117.643C131.467 117.225 131.351 116.813 131.122 116.463C130.958 116.234 130.736 116.053 130.479 115.937C130.223 115.821 129.94 115.774 129.66 115.802C129.394 115.758 129.123 115.758 128.857 115.802H128.055H127.725H127.442C124.983 114.36 122.605 112.785 120.317 111.084L118.288 109.621L117.203 108.772C112.489 112.961 108.118 117.521 104.133 122.408C103.913 122.839 103.799 123.316 103.799 123.8C103.799 124.284 103.913 124.761 104.133 125.192C104.333 125.604 104.437 126.055 104.437 126.513C104.437 126.971 104.333 127.423 104.133 127.834C104 128.038 103.818 128.205 103.603 128.32C103.389 128.435 103.15 128.495 102.906 128.495H102.434C99.9511 127.667 97.3601 127.206 94.7435 127.127C93.3994 127.038 92.0579 127.333 90.8744 127.976H90.6385C91.4157 128.525 92.1005 129.194 92.6674 129.958C95.7815 127.976 102.718 129.958 105.313 130.665C106.02 130.948 106.587 130.665 106.539 129.439C106.492 128.212 105.36 126.702 105.973 124.72C106.823 121.936 115.08 115.189 119.562 110.895Z" fill="#E52328"/>
<path d="M79.9749 71.2608C80.4135 71.205 80.8574 71.205 81.2961 71.2608C82.0014 71.2984 82.6839 71.5238 83.2729 71.9137C83.8619 72.3036 84.336 72.8438 84.6461 73.4785L83.9855 73.9975L83.0419 74.7052C83.6416 75.0233 84.2998 75.216 84.9764 75.2714C85.825 75.32 86.6757 75.32 87.5243 75.2714C88.415 75.33 89.3064 75.1679 90.1194 74.7996C90.1194 74.7996 91.2047 76.3095 92.5258 77.9609C93.7248 79.6192 95.0331 81.1955 96.4421 82.6793C94.7075 83.0665 92.9347 83.2564 91.1575 83.2455H84.3158C83.5826 83.2724 82.8736 83.515 82.2776 83.9431C81.6817 84.3712 81.2253 84.9656 80.9658 85.6519C80.4775 87.0615 80.2536 88.5491 80.3052 90.04L81.2489 89.7569C81.4469 90.0406 81.6205 90.3405 81.7679 90.6534C82.5228 91.8802 82.7588 92.2576 84.0327 92.7295C84.7405 90.9837 87.0525 90.7949 87.8546 90.7949H88.1377V92.7767C92.6202 92.7767 92.8561 89.521 92.8561 89.521H101.585L103.992 92.3992L107.106 96.2211C102.674 101.298 98.9442 106.948 96.0174 113.019C96.3829 113.389 96.6371 113.855 96.7512 114.363C96.8652 114.871 96.8344 115.401 96.6624 115.893C96.4904 116.384 96.1841 116.817 95.7781 117.143C95.3722 117.469 94.883 117.675 94.366 117.737H94.0829C92.573 117.737 90.9216 116.652 89.0342 116.652H87.9962C84.9764 117.312 85.5898 119.719 83.2778 122.927C83.8161 123.036 84.3391 123.21 84.8349 123.446C86.648 124.244 88.26 125.437 89.5532 126.938C90.9954 126.153 92.6358 125.809 94.2716 125.947C96.9958 126.03 99.6952 126.491 102.293 127.315C102.765 127.315 102.953 126.372 102.576 125.569C102.31 124.993 102.172 124.365 102.172 123.729C102.172 123.094 102.31 122.466 102.576 121.889C106.849 116.616 111.586 111.736 116.731 107.309L120.412 109.999C122.64 111.69 124.956 113.265 127.348 114.717H128.338C128.715 114.674 129.095 114.674 129.471 114.717H130.037H130.273H130.745L131.075 114.953C131.667 115.575 131.989 116.406 131.972 117.265C132.024 117.498 132.024 117.74 131.972 117.973C131.885 118.228 131.757 118.467 131.594 118.681C131.459 118.832 131.299 118.959 131.122 119.058H130.509H129.565C127.928 118.566 126.168 118.684 124.611 119.388C122.629 120.474 123.478 124.107 122.299 125.711C123.044 125.717 123.787 125.796 124.517 125.947C126.276 126.417 127.948 127.166 129.471 128.165C133.529 126.59 138.035 126.623 142.069 128.259C142.446 128.259 142.73 127.268 142.305 126.56C141.718 125.593 141.408 124.483 141.408 123.352V110.471C140.505 110.646 139.575 110.646 138.672 110.471C138.015 110.333 137.401 110.042 136.879 109.621C136.697 109.472 136.538 109.297 136.407 109.102C136.104 108.708 135.88 108.26 135.746 107.781C134.984 105.741 134.117 103.741 133.151 101.789C135.442 101.665 137.665 100.967 139.615 99.7599C140.287 99.3327 140.891 98.8079 141.408 98.2028C141.781 97.7045 142.098 97.1665 142.352 96.5986C143.01 95.1185 143.223 93.4792 142.965 91.8802C142.512 89.2525 141.752 86.687 140.701 84.2364C139.757 81.7356 137.775 77.3947 137.02 74.7996C136.531 73.4286 136.214 72.0021 136.077 70.5531C136.029 70.2878 136.029 70.0162 136.077 69.7509C136.138 68.9158 136.397 68.1072 136.832 67.3917C137.089 66.8451 137.496 66.3823 138.005 66.0567C138.515 65.7312 139.105 65.5561 139.71 65.5516C140.07 65.585 140.421 65.6808 140.748 65.8347C141.88 66.4009 141.597 66.684 141.503 66.9199C141.132 67.5194 140.816 68.1511 140.559 68.8072C139.892 70.4041 139.743 72.1701 140.134 73.8559C140.693 75.4566 141.632 76.8976 142.871 78.0553C143.437 78.6135 144.053 79.1189 144.711 79.5652C144.711 79.5652 146.646 80.792 147.023 80.5089C147.401 80.2257 145.561 76.4982 145.655 75.413C145.722 74.7188 145.88 74.0365 146.127 73.3841C146.523 72.3477 146.807 71.2721 146.976 70.1756C147.124 69.0848 147.032 67.9748 146.706 66.9233C146.38 65.8719 145.828 64.9045 145.089 64.0889C144.085 63.1046 142.798 62.4609 141.408 62.2487C139.941 61.9921 138.43 62.1781 137.069 62.7831C135.708 63.3882 134.557 64.3847 133.765 65.6459C133.406 66.1817 133.136 66.771 132.962 67.3917C132.677 68.2269 132.533 69.1041 132.538 69.9868C131.259 66.7025 129.68 63.5434 127.819 60.5501C127.583 60.267 126.876 59.4176 126.168 58.6627C125.802 58.1759 125.335 57.7736 124.8 57.4831C122.181 56.7334 119.518 56.1503 116.826 55.7373C113.872 56.5336 110.985 57.559 108.191 58.8043L107.294 59.7008C105.395 60.0122 103.519 60.4536 101.68 61.0219C101.419 61.3418 101.277 61.7417 101.277 62.1543C101.277 62.5669 101.419 62.9668 101.68 63.2867C101.68 63.2867 102.34 65.4572 103.378 65.4572H106.209C106.545 64.9403 107.008 64.5174 107.553 64.2285C108.097 63.9396 108.707 63.7941 109.323 63.8058C110.061 63.7885 110.784 64.0083 111.387 64.433C111.99 64.8578 112.441 65.4648 112.673 66.1649H112.296C111.536 66.5504 110.694 66.7448 109.842 66.7312H108.71C108.302 66.6827 107.891 66.6827 107.483 66.7312C106.426 66.629 105.359 66.6926 104.322 66.9199C103.897 66.9199 103.661 67.2502 103.661 67.3445C103.661 67.4389 106.587 68.0995 107.342 68.0995H110.597H112.249L111.777 68.6185C110.885 69.349 109.768 69.7491 108.616 69.7509H104.322C104.534 70.6646 104.918 71.5295 105.454 72.2989H107.294C108.144 72.2989 108.238 72.582 108.144 72.9122C108.049 73.2425 108.144 73.3369 107.908 73.5728L107.53 74.5637C107.029 75.9262 106.24 77.1652 105.218 78.1968C100.5 74.2334 94.5547 69.2791 90.261 66.1178C88.5055 65.3046 86.5782 64.9321 84.6461 65.0325C83.4915 64.9961 82.34 65.1721 81.2489 65.5516C80.5956 65.8083 80.0586 66.2949 79.739 66.9199L81.0601 67.2974C80.4125 67.6991 79.9407 68.3309 79.7394 69.066C79.5381 69.8011 79.6222 70.5852 79.9749 71.2608ZM130.981 97.4007H130.603C129.141 95.3246 126.593 91.5027 125.319 89.521C126.215 86.1709 126.64 85.3216 127.395 82.1603C127.988 82.4943 128.622 82.7482 129.282 82.9152C129.612 81.4997 131.924 74.7996 132.349 72.6763L133.151 74.9883C133.576 76.2151 134 77.3004 134.425 78.3856C134.85 79.4708 135.841 81.5941 136.454 83.104C137.523 85.5275 138.33 88.0584 138.86 90.6534C139.278 92.2461 139.058 93.9389 138.247 95.3718C137.717 96.0808 137.02 96.6481 136.218 97.0232L135.463 97.3063H134.991H134.755H133.953H131.736L130.981 97.4007ZM109.984 60.7388C109.816 60.1529 109.816 59.5317 109.984 58.9458C111.215 58.729 112.461 58.6029 113.711 58.5683H114.042C114.129 58.6236 114.202 58.7002 114.252 58.7909C114.302 58.8817 114.328 58.9837 114.328 59.0874C114.328 59.191 114.302 59.293 114.252 59.3838C114.202 59.4745 114.129 59.5511 114.042 59.6064C113.145 59.9839 111.541 60.5501 110.22 60.9747C110.031 60.9747 110.031 60.8332 109.984 60.7388Z" fill="#E52328"/>
<path d="M159.716 150.105C158.158 150.048 156.606 150.32 155.161 150.903C153.715 151.486 152.409 152.367 151.327 153.489C150.245 154.611 149.412 155.949 148.882 157.414C148.351 158.88 148.136 160.441 148.25 161.996C148.17 163.514 148.424 165.031 148.992 166.441C149.561 167.851 150.43 169.119 151.541 170.157C152.651 171.196 153.975 171.979 155.42 172.452C156.864 172.925 158.395 173.076 159.904 172.895C161.485 172.955 163.061 172.677 164.526 172.081C165.992 171.484 167.313 170.582 168.402 169.435C169.492 168.287 170.324 166.921 170.844 165.427C171.364 163.932 171.559 162.344 171.417 160.769C171.455 159.268 171.169 157.776 170.58 156.395C169.99 155.015 169.111 153.777 168.001 152.765C166.891 151.754 165.577 150.993 164.148 150.534C162.718 150.075 161.207 149.929 159.716 150.105ZM159.999 170.3C156.366 170.3 154.101 167.327 154.006 162.043C153.912 156.758 155.988 152.606 159.904 152.606C163.821 152.606 165.661 156.569 165.661 161.571C165.661 164.685 164.812 170.253 159.999 170.3Z" fill="#E52328"/>
<path d="M119.185 169.686C118.031 170.074 116.799 170.171 115.599 169.969C113.656 169.655 111.903 168.622 110.688 167.075C109.473 165.527 108.885 163.579 109.04 161.618C109.071 159.472 109.909 157.417 111.386 155.86C112.864 154.304 114.873 153.361 117.014 153.219C119.137 153.116 121.261 153.388 123.29 154.021L124.139 151.473C121.732 150.482 119.145 150.001 116.542 150.058C114.88 149.84 113.19 149.972 111.581 150.445C109.972 150.919 108.48 151.723 107.201 152.807C105.921 153.891 104.882 155.231 104.151 156.74C103.419 158.249 103.012 159.895 102.953 161.571C102.929 163.171 103.247 164.759 103.886 166.226C104.525 167.694 105.471 169.008 106.659 170.081C107.848 171.153 109.252 171.959 110.777 172.444C112.303 172.93 113.915 173.083 115.504 172.895C118.735 172.959 121.931 172.213 124.8 170.724V161.712H119.185V169.686Z" fill="#E52328"/>
<path d="M172.031 153.832H178.872V171.951H184.629V153.832H191.706V150.86H172.031V153.832Z" fill="#E52328"/>
<path d="M53.7407 151.851C51.5861 151.056 49.2742 150.781 46.9934 151.049H35.8108V172.14H41.8503V164.166H47.7011C52.9385 164.166 57.1379 163.081 57.1379 156.994C57.0575 155.918 56.7031 154.881 56.1084 153.98C55.5138 153.08 54.6987 152.347 53.7407 151.851ZM46.0969 161.807H41.8031V153.502H46.5215C47.1042 153.464 47.6888 153.541 48.2416 153.729C48.7945 153.917 49.3047 154.212 49.7431 154.598C50.1815 154.984 50.5394 155.453 50.7963 155.977C51.0531 156.502 51.2039 157.072 51.2399 157.654C51.0974 158.882 50.4787 160.005 49.517 160.782C48.5552 161.558 47.3271 161.926 46.0969 161.807Z" fill="#E52328"/>
<path d="M94.4132 165.298C94.4595 165.91 94.3772 166.524 94.1715 167.102C93.9658 167.679 93.6413 168.207 93.219 168.652C92.7967 169.097 92.2858 169.448 91.7195 169.683C91.1531 169.918 90.5437 170.031 89.9307 170.017C89.3003 170.058 88.6682 169.965 88.0769 169.742C87.4855 169.52 86.9485 169.174 86.5017 168.727C86.055 168.28 85.7088 167.743 85.4865 167.152C85.2641 166.561 85.1706 165.929 85.2123 165.298V151.143H79.739V163.883C79.6016 165.039 79.716 166.211 80.0744 167.318C80.4327 168.426 81.0266 169.443 81.8151 170.3C82.8686 171.339 84.1368 172.135 85.5306 172.632C86.9244 173.129 88.4101 173.316 89.8835 173.178C91.3676 173.297 92.8598 173.089 94.2542 172.567C95.6487 172.045 96.9111 171.223 97.952 170.158C98.7231 169.351 99.3019 168.38 99.645 167.318C99.9882 166.256 100.087 165.13 99.9337 164.024V150.86H94.4132V165.298Z" fill="#E52328"/>
<path d="M59.5915 171.951H75.8227V168.554H65.3007V161.712H73.841V159.164H65.3007V153.88H75.8227V150.86H59.5915V171.951Z" fill="#E52328"/>
<path d="M129.66 171.951H145.844V168.648H135.322V161.807H143.862V159.211H135.322V153.927H145.844V150.86H129.66V171.951Z" fill="#E52328"/>
</g>
<defs>
<clipPath id="clip0_32_496">
<rect width="226.483" height="226.483" fill="white" transform="translate(0.517212 0.862305)"/>
</clipPath>
</defs>
</svg>
