<svg width="227" height="228" viewBox="0 0 227 228" fill="none" xmlns="http://www.w3.org/2000/svg">
<g clip-path="url(#clip0_32_447)">
<path d="M165.427 121.786H163.02L161.558 126.221H163.87L165.427 125.938C165.852 125.818 166.231 125.571 166.512 125.23C166.878 124.884 167.14 124.443 167.267 123.956C167.385 123.705 167.446 123.431 167.446 123.154C167.446 122.877 167.385 122.603 167.267 122.352C167.047 121.974 166.433 121.786 165.427 121.786Z" fill="#E52328"/>
<path d="M131.266 107.489C132.141 107.55 133.018 107.387 133.814 107.017C134.503 106.609 135.085 106.043 135.512 105.366C136.246 104.183 136.832 102.916 137.258 101.591C137.956 100.123 138.218 98.4852 138.013 96.8726C137.73 96.0233 136.881 95.5986 135.512 95.5986H134.191L129.992 107.583L131.266 107.489Z" fill="#E52328"/>
<path d="M83.4211 121.786H81.0619L79.5992 126.221H81.9113L83.4683 125.938C83.8937 125.818 84.2723 125.571 84.5536 125.23C84.9025 124.871 85.1613 124.435 85.3085 123.956C85.4263 123.705 85.4874 123.431 85.4874 123.154C85.4874 122.877 85.4263 122.603 85.3085 122.352C84.931 121.974 84.412 121.786 83.4211 121.786Z" fill="#E52328"/>
<path d="M94.0847 96.2119L89.4135 104.139H93.2353L94.0847 96.2119Z" fill="#E52328"/>
<path d="M113.241 75.2148C68.0864 75.2148 31.1886 92.6257 31.1886 114C31.1886 135.374 68.0864 152.832 113.241 152.832C158.396 152.832 195.294 135.374 195.294 114C195.294 92.6257 158.444 75.2148 113.241 75.2148ZM150.422 103.525L151.932 98.8068L166.889 98.5709L163.87 103.289L149.148 110.225L157.028 103.148L150.422 103.525ZM138.532 90.4081C139.749 90.3305 140.962 90.6092 142.024 91.2102C142.826 91.7469 143.385 92.5772 143.581 93.5222C143.824 94.6893 143.824 95.8939 143.581 97.061C143.375 98.5118 143.011 99.9358 142.495 101.308C141.891 103.222 141.034 105.046 139.947 106.734C139.179 107.974 138.205 109.074 137.069 109.989C136.203 110.786 135.172 111.382 134.05 111.735C132.971 112.112 131.841 112.319 130.699 112.349H122.914L130.605 90.4081H138.532ZM93.2354 90.4081H99.0862L97.8595 112.349H92.2446L92.6692 108.715H86.5825L84.4592 112.349H79.0331L93.2354 90.4081ZM70.7759 90.4081H76.1077L70.3041 106.922H78.6084L76.7211 112.349H63.0849L70.7759 90.4081ZM67.3787 129.476L52.4685 129.759L55.4411 125.041L70.1625 118.058L62.33 125.135L68.9357 124.852L67.3787 129.476ZM90.9706 123.295C90.6328 124.433 90.0714 125.492 89.3192 126.409C88.6593 127.264 87.8426 127.984 86.9128 128.533C86.2328 128.951 85.4808 129.239 84.6951 129.382C85.1352 129.573 85.5354 129.845 85.8747 130.184C86.1009 130.552 86.2755 130.949 86.3938 131.364C86.5445 131.809 86.655 132.267 86.724 132.732L87.2903 139.007H81.1092L80.2127 132.496C80.1989 131.92 80.0537 131.356 79.788 130.845C79.6398 130.679 79.4579 130.547 79.2544 130.457C79.051 130.368 78.8307 130.323 78.6084 130.326H78.0894L75.4943 139.149H69.8794L76.957 117.397H86.1107C87.3634 117.329 88.6167 117.522 89.791 117.963C90.1781 118.143 90.5169 118.412 90.7795 118.748C91.042 119.085 91.2207 119.479 91.3009 119.898C91.5288 121.085 91.4142 122.312 90.9706 123.437V123.295ZM111.496 128.014C110.869 130.289 109.864 132.442 108.523 134.383C107.382 135.933 105.937 137.233 104.276 138.205C102.62 139.084 100.772 139.538 98.8975 139.527C97.2442 139.661 95.5911 139.265 94.1791 138.394C93.0684 137.455 92.3732 136.115 92.2446 134.667C92.0134 132.46 92.3043 130.229 93.0939 128.155C94.0352 124.977 95.8112 122.11 98.2369 119.851C100.336 117.929 103.082 116.867 105.928 116.878C107.082 116.74 108.252 116.944 109.292 117.464C110.332 117.984 111.196 118.797 111.779 119.804C112.772 122.519 112.671 125.514 111.496 128.155V128.014ZM112.628 112.396L110.41 100.364L106.164 112.396H101.162L108.853 90.4081H113.855L116.072 102.534L120.366 90.4081H125.368L117.677 112.349L112.628 112.396ZM116.356 139.055L116.78 117.303H122.678L121.357 132.874L130.369 117.209H135.937L122.301 138.96L116.356 139.055ZM149.384 129.854H140.75L139.381 134.148H148.818L147.214 138.866H132.115L139.193 117.114H153.82L152.31 121.833H143.345L142.212 125.277H150.705L149.384 129.854ZM172.976 123.342C172.634 124.469 172.091 125.524 171.372 126.457C170.706 127.323 169.872 128.046 168.918 128.58C168.256 128.999 167.519 129.287 166.748 129.429C167.18 129.635 167.577 129.906 167.928 130.231C168.11 130.614 168.268 131.008 168.399 131.411C168.55 131.856 168.661 132.314 168.73 132.779L169.343 139.055H163.068L162.313 132.402C162.347 131.82 162.199 131.243 161.888 130.75C161.744 130.579 161.563 130.444 161.358 130.354C161.154 130.264 160.932 130.222 160.708 130.231H160.425L157.547 139.055H151.885L158.963 117.303H168.069C169.322 117.226 170.577 117.419 171.749 117.869C172.141 118.042 172.484 118.309 172.748 118.647C173.011 118.984 173.187 119.382 173.259 119.804C173.506 121.021 173.391 122.284 172.929 123.437L172.976 123.342Z" fill="#E52328"/>
<path d="M104.229 122.116C103.638 122.137 103.058 122.278 102.523 122.529C101.988 122.781 101.509 123.138 101.115 123.579C99.9033 124.927 99.03 126.544 98.5672 128.297C97.9229 129.781 97.7261 131.421 98.001 133.015C98.1735 133.465 98.4878 133.847 98.8965 134.102C99.3051 134.358 99.7858 134.473 100.266 134.431C100.87 134.434 101.468 134.31 102.021 134.066C102.574 133.822 103.069 133.464 103.474 133.015C104.687 131.607 105.574 129.947 106.069 128.155C106.689 126.746 106.837 125.174 106.494 123.673C106.354 123.192 106.052 122.774 105.64 122.49C105.227 122.207 104.729 122.074 104.229 122.116Z" fill="#E52328"/>
<path d="M113.241 70.355C65.5384 70.355 26.6117 89.9835 26.6117 114C26.6117 138.017 65.5384 157.645 113.241 157.645C160.944 157.645 199.871 138.017 199.871 114C199.871 89.9835 160.944 70.355 113.241 70.355ZM113.241 155.286C66.5765 155.097 28.5462 136.648 28.5462 114C28.5462 91.3518 66.5765 72.9029 113.477 72.9029C160.378 72.9029 198.172 91.399 198.172 114C198.172 136.601 159.906 155.097 113.241 155.097V155.286Z" fill="#E52328"/>
</g>
<defs>
<clipPath id="clip0_32_447">
<rect width="226.483" height="226.483" fill="white" transform="translate(0 0.758789)"/>
</clipPath>
</defs>
</svg>
