<svg width="227" height="228" viewBox="0 0 227 228" fill="none" xmlns="http://www.w3.org/2000/svg">
<g clip-path="url(#clip0_32_521)">
<path d="M113.241 56.3032C97.9156 56.3157 83.2211 62.4094 72.3842 73.2463C61.5472 84.0833 55.4535 98.7778 55.441 114.104C55.4535 129.429 61.5472 144.124 72.3842 154.961C83.2211 165.798 97.9156 171.891 113.241 171.904C128.563 171.879 143.25 165.781 154.085 154.947C164.919 144.113 171.017 129.425 171.042 114.104C171.029 98.7778 164.935 84.0833 154.098 73.2463C143.262 62.4094 128.567 56.3157 113.241 56.3032ZM169.862 114.104C169.862 129.12 163.897 143.522 153.278 154.14C142.66 164.759 128.258 170.724 113.241 170.724C98.2246 170.724 83.8229 164.759 73.2045 154.14C62.586 143.522 56.6206 129.12 56.6206 114.104C56.6206 99.0868 62.586 84.6851 73.2045 74.0666C83.8229 63.4482 98.2246 57.4828 113.241 57.4828C128.258 57.4828 142.66 63.4482 153.278 74.0666C163.897 84.6851 169.862 99.0868 169.862 114.104Z" fill="#E52328"/>
<path d="M128.482 76.3568C129.442 76.7734 130.436 77.105 131.454 77.3476C132.094 77.4656 132.749 77.4656 133.389 77.3476C134.191 77.1714 134.937 76.7985 135.559 76.2624C136.213 75.6563 136.728 74.9159 137.069 74.0919C137.418 73.2716 137.595 72.3883 137.588 71.4968C137.543 70.6734 137.283 69.8763 136.833 69.1848C136.482 68.622 136.016 68.1397 135.465 67.7693C134.457 67.1074 133.381 66.5538 132.256 66.1179L130.18 65.2686L125.934 75.2715L128.01 76.168L128.482 76.3568ZM132.115 68.4299H132.587C133.455 68.7167 134.181 69.3244 134.616 70.1285C134.799 70.5031 134.894 70.9146 134.894 71.3317C134.894 71.7487 134.799 72.1603 134.616 72.5349C134.483 72.9264 134.272 73.2871 133.997 73.5952C133.721 73.9034 133.386 74.1526 133.011 74.3279C132.119 74.5298 131.184 74.4129 130.369 73.9976H129.897L132.115 68.4299Z" fill="#E52328"/>
<path d="M108.051 72.0157C108.592 72.5468 109.234 72.964 109.939 73.2425C111.363 73.8097 112.95 73.8097 114.374 73.2425C115.079 72.964 115.72 72.5468 116.261 72.0157C116.821 71.5075 117.256 70.878 117.535 70.1755C117.825 69.4727 117.97 68.7182 117.96 67.9579C117.965 67.2133 117.82 66.4752 117.535 65.7874C117.256 65.0849 116.821 64.4554 116.261 63.9472C115.728 63.4063 115.084 62.9877 114.374 62.7204C113.676 62.4081 112.92 62.2466 112.156 62.2466C111.392 62.2466 110.636 62.4081 109.939 62.7204C109.234 62.9989 108.592 63.4161 108.051 63.9472C107.502 64.4645 107.068 65.0915 106.777 65.7874C106.492 66.4752 106.348 67.2133 106.353 67.9579C106.348 68.7177 106.492 69.4712 106.777 70.1755C107.056 70.878 107.492 71.5075 108.051 72.0157ZM110.127 65.693C110.384 65.4096 110.697 65.1831 111.046 65.028C111.396 64.873 111.774 64.7929 112.156 64.7929C112.538 64.7929 112.917 64.873 113.266 65.028C113.615 65.1831 113.929 65.4096 114.185 65.693C114.74 66.313 115.028 67.1268 114.987 67.9579C115.036 68.8042 114.747 69.6354 114.185 70.2699C113.929 70.5533 113.615 70.7798 113.266 70.9349C112.917 71.0899 112.538 71.17 112.156 71.17C111.774 71.17 111.396 71.0899 111.046 70.9349C110.697 70.7798 110.384 70.5533 110.127 70.2699C109.578 69.6279 109.291 68.8021 109.325 67.9579C109.308 67.1304 109.593 66.3251 110.127 65.693Z" fill="#E52328"/>
<path d="M140.372 82.585L142.259 84.8498L144.147 84.0477L146.836 87.2562L145.704 88.9548L147.591 91.1724L153.489 81.311L151.13 78.48L140.372 82.585ZM150.422 81.83L150.092 82.2547L148.063 85.416L146.176 83.1512L149.62 81.6885L150.281 81.4054L150.988 81.0751L150.422 81.83Z" fill="#E52328"/>
<path d="M74.2202 79.0462L73.135 76.3096L72.3801 77.1589L72.616 78.9991L70.7758 79.0462L70.0209 79.8955L72.8991 80.6033L74.2202 79.0462Z" fill="#E52328"/>
<path d="M74.5506 85.4156C75.0525 85.8816 75.7062 86.1498 76.3907 86.1706C77.2534 86.0639 78.0698 85.721 78.7499 85.1797C79.1786 84.8658 79.6571 84.6265 80.1654 84.4719C80.3192 84.4528 80.4752 84.4682 80.6222 84.5172C80.7692 84.5662 80.9033 84.6475 81.0148 84.7551C81.1366 84.8598 81.2337 84.9904 81.299 85.1372C81.3643 85.2841 81.3961 85.4437 81.3922 85.6044C81.3523 85.9554 81.2038 86.2853 80.9676 86.548C80.6543 86.8738 80.2653 87.117 79.8352 87.2558C79.2881 87.4375 78.7124 87.5175 78.1365 87.4917L78.9387 89.9453C79.6651 89.919 80.3756 89.7252 81.0148 89.3791C81.6534 89.0829 82.2176 88.6476 82.6662 88.1051C83.0539 87.7154 83.3584 87.2509 83.5612 86.7399C83.764 86.2289 83.8608 85.6821 83.8458 85.1325C83.8357 84.6149 83.7122 84.1057 83.4839 83.641C83.2557 83.1763 82.9282 82.7674 82.5246 82.443C82.2034 82.1624 81.8363 81.9389 81.4394 81.7825C81.0833 81.6926 80.7103 81.6926 80.3542 81.7825C79.4693 81.9222 78.6383 82.297 77.9478 82.8677C77.6245 83.1117 77.2555 83.2882 76.8626 83.3867C76.7508 83.4347 76.6304 83.4595 76.5087 83.4595C76.387 83.4595 76.2666 83.4347 76.1548 83.3867C76.061 83.2949 75.9874 83.1846 75.9386 83.0627C75.8899 82.9408 75.8671 82.8101 75.8717 82.679C75.9172 82.3807 76.0483 82.102 76.2492 81.8768C76.489 81.606 76.777 81.382 77.0985 81.2163C77.4684 81.0356 77.8681 80.9237 78.2781 80.886L77.2872 78.7627C76.1727 79.0342 75.178 79.6641 74.4562 80.5557C74.1111 80.911 73.8412 81.3324 73.6629 81.7946C73.4845 82.2567 73.4013 82.7501 73.4182 83.2452C73.4505 83.6647 73.5675 84.0733 73.7621 84.4463C73.9568 84.8194 74.225 85.1491 74.5506 85.4156Z" fill="#E52328"/>
<path d="M93.8487 78.48L91.7255 74.0919L97.0572 76.923L100.36 75.2715L93.9903 72.2046L95.3114 65.646L92.1973 67.1559L91.2536 73.1011L89.0831 68.6658L86.488 69.9869L91.2064 79.754L93.8487 78.48Z" fill="#E52328"/>
<path d="M153.017 132.081L151.932 130.901C149.992 134.129 149.288 137.951 149.95 141.659L147.544 144.537L146.978 141.234L147.638 140.479C147.355 138.215 145.468 138.215 145.185 139.772C145.185 140.243 144.949 140.762 145.798 141.659L146.223 145.575C143.769 147.651 141.505 150.294 138.815 152.228C138.815 152.228 138.815 151.473 138.815 151.284C139.865 149.143 141.501 147.343 143.533 146.094C144.287 144.798 144.523 143.264 144.194 141.801C141.234 143.729 138.724 146.271 136.833 149.256L136.126 153.219L133.295 155.059C133.295 154.257 133.814 153.408 133.814 152.606C136.031 149.775 132.775 148.642 131.973 151.19C132.323 152.667 132.208 154.216 131.643 155.625C128.34 156.899 125.415 158.173 122.206 159.494C122.206 159.211 122.584 158.409 122.537 158.126C124.285 156.421 126.568 155.371 129.001 155.154C129.476 154.758 129.839 154.245 130.054 153.666C130.27 153.086 130.329 152.46 130.228 151.851C127.51 152.221 124.903 153.17 122.584 154.635C121.6 155.16 120.752 155.907 120.105 156.815C119.458 157.724 119.031 158.77 118.856 159.872L115.034 160.202L117.441 157.56L118.715 156.947C119.281 154.446 118.101 154.493 116.686 154.918C116.293 155.375 116.09 155.966 116.12 156.569C115.296 157.627 114.269 158.509 113.1 159.164C111.873 157.796 110.977 156.805 110.033 155.861C110.106 155.558 110.097 155.24 110.005 154.941C109.914 154.642 109.744 154.373 109.514 154.163C108.098 153.785 106.919 153.738 107.438 156.192C107.957 156.616 108.381 156.899 108.759 156.805L111.165 159.447L107.343 159.117C107.2 158.011 106.806 156.952 106.193 156.02C105.58 155.088 104.763 154.308 103.805 153.738C101.499 152.289 98.9079 151.355 96.2079 151.001C96.119 151.657 96.2181 152.324 96.4937 152.926C96.7694 153.527 97.2103 154.038 97.765 154.399C100.198 154.616 102.481 155.666 104.229 157.371C104.229 157.654 104.56 158.456 104.56 158.74C101.257 157.466 98.3312 156.144 95.1227 154.87C94.5586 153.478 94.4432 151.944 94.7924 150.482C93.9903 147.887 90.7346 149.02 92.9523 151.898C92.9523 152.7 93.4241 153.502 93.4241 154.304L90.6402 152.511C90.4043 151.19 90.1212 149.822 89.8853 148.501C88.0701 145.533 85.621 143.003 82.7134 141.093C82.5392 141.809 82.5079 142.553 82.6213 143.282C82.7346 144.01 82.9904 144.71 83.3739 145.339C85.4064 146.588 87.0426 148.388 88.0923 150.53C88.0923 150.53 88.0923 151.284 88.0923 151.473C85.5916 149.397 83.138 146.755 80.6373 144.867C80.6373 143.546 80.9676 142.225 81.1091 140.904C81.9584 140.008 81.9112 139.489 81.7225 139.064C81.4394 137.46 79.552 137.46 79.2689 139.724C79.4749 140.003 79.6954 140.271 79.9295 140.527L79.3633 143.782L76.9569 140.904C77.6192 137.196 76.9151 133.374 74.9752 130.146L73.89 131.326C73.135 131.043 72.8991 130.24 73.1822 128.919C72.0498 127.928 71.342 128.306 71.1061 130.005C71.4839 130.289 71.773 130.676 71.9401 131.118C72.1071 131.561 72.1452 132.042 72.0498 132.505L70.0209 131.42C70.0209 132.222 70.0209 133.119 70.0209 133.921C69.5558 133.666 69.1529 133.312 68.8413 132.883L67.9448 131.043C66.3405 130.712 65.7743 131.279 66.1518 132.883L67.5201 133.591C68.08 133.831 68.5331 134.267 68.7941 134.817L66.5293 135.384C68.654 138.565 71.8259 140.902 75.4942 141.989L78.2309 144.632C77.7119 144.632 76.5794 144.632 76.0604 144.632C75.5414 144.632 75.447 143.877 75.0696 143.594C73.5125 143.594 72.2857 143.593 73.5597 145.764C73.9003 145.958 74.2775 146.079 74.6673 146.12C75.0572 146.16 75.4512 146.119 75.8245 146L79.2217 145.575C81.7697 147.746 84.7423 150.294 87.2902 152.323C84.5068 151.924 81.9344 150.613 79.9767 148.595C79.3425 148.037 78.5701 147.659 77.7401 147.501C76.9101 147.344 76.053 147.412 75.2583 147.699C76.6125 149.868 78.2822 151.824 80.2126 153.502C81.5905 154.259 83.1043 154.736 84.667 154.906C86.2298 155.076 87.8107 154.936 89.3191 154.493L91.8198 155.578L88.8944 156.616C88.5788 156.422 88.2071 156.34 87.8391 156.383C87.4712 156.426 87.1283 156.591 86.8655 156.852C86.3465 157.937 86.4409 158.645 87.243 158.975C88.0451 159.306 88.5642 159.211 89.3663 158.315L93.5185 156.852L97.0101 157.843L103.71 159.919C102.724 160.268 101.678 160.419 100.634 160.362C99.5891 160.306 98.566 160.043 97.6235 159.589C96.7278 158.996 95.6776 158.68 94.6037 158.68C93.5298 158.68 92.4796 158.996 91.5839 159.589C93.9767 161.843 97.0797 163.195 100.36 163.411C102.924 162.984 105.368 162.019 107.532 160.58H110.08C108.817 161.292 107.759 162.317 107.007 163.556C106.255 164.796 105.834 166.208 105.786 167.657C106.548 166.233 107.609 164.99 108.896 164.012C110.182 163.035 111.665 162.347 113.241 161.995C116.27 163.356 118.795 165.634 120.46 168.507C120.413 167.021 119.979 165.574 119.201 164.308C118.423 163.042 117.329 162.001 116.025 161.287H118.573C120.733 162.735 123.179 163.7 125.745 164.118C129.018 163.872 132.111 162.525 134.521 160.297C133.626 159.704 132.575 159.388 131.502 159.388C130.428 159.388 129.377 159.704 128.482 160.297C127.539 160.751 126.516 161.014 125.471 161.07C124.427 161.127 123.381 160.976 122.395 160.627L129.095 158.551L132.587 157.513L136.739 158.975C137.541 159.872 138.249 160.108 138.862 159.636C139.476 159.164 139.759 158.598 139.192 157.513C138.919 157.272 138.577 157.12 138.215 157.078C137.852 157.035 137.486 157.105 137.164 157.277L134.238 156.569L136.786 155.484C138.295 155.926 139.875 156.067 141.438 155.897C143.001 155.727 144.515 155.25 145.893 154.493C148.147 152.932 150.139 151.02 151.791 148.831C150.996 148.544 150.139 148.476 149.309 148.634C148.479 148.792 147.706 149.169 147.072 149.727C145.119 151.743 142.542 153.04 139.759 153.408C142.307 151.237 145.279 148.689 147.827 146.66L150.988 147.132C151.745 147.352 152.558 147.268 153.253 146.896C154.527 144.726 153.253 144.584 151.743 144.679C151.366 145.009 151.13 145.434 150.753 145.764C150.375 146.094 149.101 145.764 148.582 145.764L151.319 143.122C155.101 141.977 158.338 139.494 160.425 136.138L158.16 135.572C158.413 135.032 158.847 134.598 159.387 134.345L160.803 133.591C161.18 132.033 160.803 131.42 159.01 131.798L158.113 133.591C157.802 134.033 157.4 134.403 156.934 134.676C156.934 133.826 156.934 132.977 156.934 132.128L154.905 133.26C154.806 132.79 154.842 132.301 155.009 131.85C155.176 131.399 155.467 131.005 155.848 130.712C155.612 129.014 154.905 128.683 153.772 129.674C154.024 130.995 153.772 131.798 153.017 132.081Z" fill="#E52328"/>
<path d="M106.824 88.5772C109.789 90.3986 112.127 93.0819 113.524 96.2682L112.109 97.1175C109.602 93.3921 106.397 90.1875 102.672 87.6807C98.7087 85.5574 89.4606 95.9851 90.6402 96.5041C94.5244 98.176 98.2645 100.164 101.823 102.449L100.643 104.289C96.7837 101.744 92.4236 100.054 87.8564 99.3351C86.3465 99.5711 83.138 110.376 84.6479 110.801C89.222 111.944 93.6078 113.74 97.6706 116.133C99.7939 117.784 106.211 128.636 103.616 130.288C101.503 130.576 99.358 130.09 97.5763 128.919C85.5444 124.201 84.6479 129.486 86.8655 131.137C89.0832 132.789 88.0923 134.298 88.1867 134.77C88.1867 137.837 91.3008 140.196 97.6234 135.95C110.41 135.95 117.677 136.375 130.652 136.563C131.832 140.338 140.089 136.563 142.543 133.402C141.457 130.76 132.068 123.965 130.841 130.901L127.491 130.241C134.757 114.764 132.54 85.5574 115.506 82.6792C112.534 82.2074 101.964 84.9912 106.824 88.5772ZM117.205 118.822C117.71 118.308 118.358 117.956 119.064 117.811C119.77 117.666 120.504 117.735 121.171 118.008C121.839 118.281 122.41 118.747 122.811 119.345C123.213 119.944 123.428 120.649 123.428 121.37C123.428 122.091 123.213 122.796 122.811 123.395C122.41 123.993 121.839 124.459 121.171 124.732C120.504 125.006 119.77 125.074 119.064 124.929C118.358 124.784 117.71 124.432 117.205 123.918C116.862 123.588 116.59 123.192 116.404 122.754C116.218 122.317 116.122 121.846 116.122 121.37C116.122 120.894 116.218 120.424 116.404 119.986C116.59 119.548 116.862 119.152 117.205 118.822Z" fill="#E52328"/>
<path d="M113.572 76.3567C103.5 76.443 93.8645 80.4824 86.7422 87.6047C79.6199 94.7269 75.5805 104.362 75.4943 114.434C75.5067 124.592 79.5473 134.33 86.7298 141.512C93.9122 148.694 103.65 152.735 113.808 152.747C123.961 152.723 133.692 148.678 140.872 141.498C148.051 134.318 152.096 124.588 152.121 114.434C152.034 104.281 147.929 94.5747 140.705 87.4391C133.481 80.3035 123.726 76.3189 113.572 76.3567ZM150.517 114.67C150.492 124.461 146.591 133.843 139.668 140.767C132.745 147.69 123.362 151.59 113.572 151.615C103.781 151.59 94.3983 147.69 87.4751 140.767C80.552 133.843 76.6516 124.461 76.6267 114.67C76.6516 104.884 80.5536 95.5059 87.478 88.5902C94.4025 81.6746 103.785 77.7847 113.572 77.7722C123.358 77.7847 132.741 81.6746 139.665 88.5902C146.59 95.5059 150.492 104.884 150.517 114.67Z" fill="#E52328"/>
</g>
<defs>
<clipPath id="clip0_32_521">
<rect width="226.483" height="226.483" fill="white" transform="translate(0 0.862305)"/>
</clipPath>
</defs>
</svg>
