<svg width="227" height="228" viewBox="0 0 227 228" fill="none" xmlns="http://www.w3.org/2000/svg">
<g clip-path="url(#clip0_32_464)">
<path d="M113.118 65.4952C138.503 65.4952 146.147 76.2531 147.421 78.6595C150.082 77.2452 152.555 75.5014 154.781 73.4693L150.96 74.7904C150.889 74.8568 150.797 74.8938 150.7 74.8938C150.603 74.8938 150.511 74.8568 150.441 74.7904C139.918 61.7205 113.401 62.8057 113.165 62.8057C112.882 62.8057 86.3648 61.7205 75.8428 74.7904C75.7649 74.8601 75.6641 74.8986 75.5596 74.8986C75.4552 74.8986 75.3544 74.8601 75.2765 74.7904L72.304 73.7052C74.3574 75.5407 76.6225 77.1247 79.0513 78.4236C80.4196 76.2531 87.7803 65.4952 113.118 65.4952Z" fill="#E52328"/>
<path d="M157.376 72.856H157.093C157.093 72.856 157.093 72.856 157.093 72.5729C156.763 72.0539 147.657 59.1255 113.212 59.1255C78.7681 59.1255 70.275 72.1954 69.9447 72.7145C69.8702 72.8436 69.8309 72.99 69.8309 73.1391C69.8309 73.2882 69.8702 73.4347 69.9447 73.5638C69.822 73.5241 69.6899 73.5241 69.5672 73.5638C69.4229 73.5685 69.2821 73.61 69.1583 73.6843C69.0345 73.7586 68.9316 73.8633 68.8595 73.9884C63.186 82.5829 60.2873 92.7118 60.5551 103.007C60.5551 115.841 66.7362 131.317 80.5611 137.498C90.1765 141.147 100.438 142.785 110.712 142.311H116.185C126.558 142.564 136.872 140.669 146.477 136.743C160.302 130.751 166.483 115.086 166.483 102.252C166.751 91.9568 163.852 81.828 158.179 73.2335C158.083 73.1126 157.961 73.0156 157.822 72.95C157.683 72.8845 157.53 72.8523 157.376 72.856ZM116.185 141.461H110.712C100.457 141.737 90.2563 139.89 80.7498 136.035C67.2552 130.184 61.2157 114.85 61.2157 102.252C60.921 92.0849 63.7897 82.0775 69.4257 73.6109C74.0082 77.9246 79.3307 81.377 85.1379 83.8027L87.6859 84.8407C97.1226 88.757 107.692 93.1451 112.929 104.894L113.307 105.696L113.637 104.894C115.794 99.9842 119.253 95.7581 123.64 92.6732C128.378 89.4726 133.478 86.8435 138.833 84.8407L141.759 83.8027C146.926 81.5502 151.704 78.4924 155.914 74.7434L156.999 73.7997C162.603 82.2611 165.454 92.2483 165.162 102.393C165.162 114.991 159.122 130.326 145.675 136.177C136.301 139.906 126.27 141.703 116.185 141.461ZM113.118 59.3142C147.138 59.3142 156.008 71.8651 156.386 72.3842C153.786 75.1934 150.701 77.511 147.279 79.2258C147.279 79.2258 140.862 65.9672 113.26 65.9672C85.6569 65.9672 79.4759 79.0371 79.3815 79.1787C76.1512 77.4403 73.233 75.1759 70.7468 72.4785C70.9827 72.0067 79.0984 59.3142 113.118 59.3142ZM147.09 80.1223C145.188 81.2354 143.219 82.2282 141.192 83.0949L138.644 84.133C133.227 86.1508 128.065 88.7953 123.263 92.0127C119.058 95.0439 115.683 99.0841 113.448 103.761C107.975 92.343 97.4529 88.002 88.1577 84.133L85.6098 83.0949C83.5251 82.1873 81.493 81.1633 79.523 80.028C79.6329 80.0069 79.735 79.9563 79.8182 79.8814C79.9013 79.8066 79.9624 79.7104 79.9949 79.6033C79.9949 79.6033 86.2703 66.8637 113.024 66.8637C139.777 66.8637 146.477 79.5561 146.477 79.6505V79.9336C146.649 80.0743 146.869 80.1421 147.09 80.1223Z" fill="#E52328"/>
<path d="M84.0999 90.4083C85.2323 90.8329 86.5063 91.2104 87.8746 91.6351C93.3939 92.7153 98.5829 95.0752 103.024 98.5252C107.466 101.975 111.036 106.419 113.448 111.499C115.824 106.397 119.37 101.927 123.797 98.4509C128.223 94.9749 133.407 92.5914 138.928 91.4935C140.296 91.0688 141.57 90.6914 142.702 90.2667C147.106 88.4791 151.326 86.2668 155.3 83.661C156.144 80.8043 156.65 77.859 156.81 74.8848L153.932 83.7082C153.932 83.7082 153.932 83.9441 153.932 83.9913C148.956 86.9452 143.651 89.3048 138.125 91.0217C132.778 92.1911 127.792 94.6354 123.593 98.1464C123.507 98.2195 123.399 98.2597 123.286 98.2597C123.174 98.2597 123.065 98.2195 122.979 98.1464C122.914 98.0574 122.879 97.95 122.879 97.8397C122.879 97.7294 122.914 97.622 122.979 97.533C125.119 94.2847 127.8 91.4279 130.906 89.0871C128.718 90.196 126.62 91.4739 124.631 92.909C123 94.9482 121.825 97.3134 121.186 99.8451C121.213 99.9376 121.213 100.036 121.186 100.128C120.694 100.548 120.25 101.023 119.865 101.544C119.823 101.64 119.747 101.718 119.651 101.762C119.555 101.805 119.447 101.812 119.346 101.78C119.242 101.75 119.15 101.689 119.082 101.604C119.014 101.52 118.975 101.416 118.969 101.308C119.018 99.8482 119.273 98.4029 119.724 97.014C117.252 99.6447 115.299 102.718 113.967 106.073H113.448C110.252 98.5534 104.314 92.5312 96.8396 89.2287C98.9548 90.9069 100.691 93.0133 101.935 95.4098C101.99 95.494 102.019 95.5924 102.019 95.6929C102.019 95.7934 101.99 95.8917 101.935 95.976C101.854 96.0372 101.754 96.0703 101.652 96.0703C101.55 96.0703 101.451 96.0372 101.369 95.976C97.4552 93.9076 93.3459 92.2323 89.1014 90.9745C84.0055 89.2759 72.8701 85.6899 70.2278 75.451C70.3555 78.2438 70.9786 80.9918 72.068 83.5666C75.8535 86.2222 79.8821 88.513 84.0999 90.4083Z" fill="#E52328"/>
<path d="M85.4211 96.2121C91.0542 97.5061 96.4401 99.7051 101.369 102.723C106.632 106.609 110.794 111.796 113.448 117.775C116.05 111.791 120.184 106.599 125.433 102.723C130.362 99.7051 135.748 97.5061 141.381 96.2121C145.266 95.4499 148.967 93.9438 152.281 91.7768C153.331 89.614 154.214 87.3741 154.923 85.0767C151.131 87.4535 147.136 89.4903 142.985 91.1634C141.853 91.588 140.579 91.9655 139.211 92.3902C133.649 93.4895 128.437 95.9232 124.023 99.482C119.61 103.041 116.126 107.618 113.873 112.821H113.354C111.087 107.627 107.6 103.058 103.188 99.5009C98.7771 95.9439 93.5723 93.5046 88.0162 92.3902L84.1943 91.1634C80.0579 89.4918 76.0787 87.4549 72.304 85.0767C73.0127 87.3741 73.8961 89.614 74.9463 91.7768C78.1313 93.8945 81.6838 95.3987 85.4211 96.2121Z" fill="#E52328"/>
<path d="M112.269 134.761H114.628C120.809 134.761 136.144 133.817 145.25 124.899C155.112 115.463 153.272 96.5891 152.752 92.8144V92.1538L152.186 92.5785C148.905 94.5474 145.316 95.951 141.57 96.7306C135.973 98.0212 130.62 100.204 125.716 103.195C120.338 107.323 116.113 112.767 113.448 119.001C110.817 112.76 106.605 107.312 101.228 103.195C96.2512 100.18 90.8167 97.997 85.1379 96.7306C81.4439 95.9738 77.903 94.6021 74.6631 92.6728L74.0969 92.2954V92.9088C73.6723 96.5891 71.8793 115.321 81.6463 124.899C91.4134 134.478 106.088 134.761 112.269 134.761ZM74.8519 93.6637C78.0457 95.4361 81.4782 96.7392 85.0436 97.5328C90.5408 98.7869 95.799 100.922 100.614 103.855C105.877 107.864 109.993 113.184 112.552 119.285C112.552 119.285 112.835 120.039 113.354 120.039C113.826 120.039 114.109 119.52 114.203 119.285C116.762 113.184 120.878 107.864 126.141 103.855C130.961 100.897 136.238 98.7608 141.759 97.5328C145.376 96.7174 148.857 95.3824 152.092 93.5693C152.658 98.2877 153.838 115.415 144.731 124.333C135.625 133.251 120.762 133.77 114.675 133.77H112.316C106.229 133.77 91.1303 132.826 82.2597 124.333C73.3892 115.84 74.2857 98.4293 74.8519 93.6637Z" fill="#E52328"/>
<path d="M79.3343 123.107C70.8412 112.113 73.342 94.183 73.6723 92.2013C72.3552 89.4917 71.2967 86.6638 70.5109 83.7554C68.1841 88.8479 67.0193 94.3943 67.1009 99.9926C67.1825 105.591 68.5085 111.101 70.9828 116.124C73.0203 119.221 75.925 121.65 79.3343 123.107Z" fill="#E52328"/>
<path d="M155.914 113.293C158.636 104.455 158.537 94.9881 155.631 86.209C154.973 88.1933 154.185 90.132 153.272 92.0126C153.272 92.8619 156.291 110.886 148.128 122.399C149.968 121.477 151.604 120.196 152.941 118.632C154.278 117.068 155.289 115.253 155.914 113.293Z" fill="#E52328"/>
<path d="M157.707 74.979C157.558 77.7547 157.115 80.5068 156.386 83.189C160.067 93.9818 160.33 105.647 157.141 116.595C153.791 126.645 145.156 133.629 132.133 136.79C126.461 137.93 120.696 138.546 114.911 138.63H111.797C106.016 138.593 100.251 138.024 94.5747 136.931C81.6463 133.77 73.0117 126.834 69.6145 116.878C65.8716 113.414 63.1468 108.992 61.7347 104.091C62.3009 116.123 68.2461 130.137 80.8914 135.516C91.2978 139.395 102.345 141.268 113.448 141.036C124.528 141.157 135.539 139.287 145.958 135.516C159.122 129.571 165.115 114.661 165.115 102.487C165.406 92.7887 162.829 83.2198 157.707 74.979Z" fill="#E52328"/>
<path d="M152.894 152.313H141.759V156.466C141.36 155.316 140.615 154.318 139.627 153.609C138.638 152.899 137.455 152.513 136.238 152.502H107.928V154.767C107.453 153.966 106.751 153.323 105.911 152.92C105.072 152.517 104.132 152.372 103.209 152.502H91.8852V155.852C91.4133 154.79 90.6259 153.898 89.6298 153.299C88.6337 152.7 87.4772 152.421 86.3175 152.502H67.7271V169.677H74.6159V158.495H76.7864V169.488H83.4393V158.495H84.3358C84.756 158.459 85.175 158.576 85.5154 158.825C85.5985 159.086 85.5985 159.366 85.5154 159.627V169.394H92.3099V168.403C93.2119 168.993 94.2535 169.335 95.3296 169.394H124.112H135.436C136.429 169.436 137.415 169.213 138.294 168.749C139.172 168.284 139.912 167.595 140.437 166.752C140.923 167.574 141.612 168.258 142.439 168.737C143.265 169.217 144.201 169.475 145.156 169.488H158.273V157.409C158.337 156.699 158.24 155.983 157.988 155.316C157.736 154.649 157.337 154.048 156.819 153.557C156.301 153.067 155.679 152.7 154.999 152.485C154.319 152.269 153.6 152.211 152.894 152.313ZM157.612 168.686H145.297C144.152 168.697 143.042 168.292 142.174 167.545C141.306 166.799 140.739 165.762 140.579 164.628C140.309 165.784 139.652 166.813 138.716 167.542C137.78 168.272 136.623 168.659 135.436 168.639H124.395V157.173L110.24 168.686H95.5184C94.7661 168.65 94.0317 168.445 93.3699 168.085C92.7082 167.726 92.1361 167.222 91.6965 166.61V168.686H86.5062V159.721C86.5062 159.721 86.7893 157.692 84.3358 157.692H82.6372V168.686H77.5885V157.692H73.8138V168.686H68.5292V153.068H86.2703C87.0241 153.037 87.7759 153.168 88.4742 153.454C89.1724 153.74 89.8007 154.173 90.316 154.724C90.8313 155.275 91.2214 155.931 91.4597 156.647C91.6979 157.363 91.7787 158.122 91.6965 158.872V160.665C92.223 160.024 92.8979 159.522 93.6626 159.201C94.4272 158.881 95.2586 158.751 96.0846 158.825H102.973C102.973 158.825 103.304 157.268 100.897 157.268H92.6402V153.068H103.162C103.765 153.008 104.373 153.077 104.947 153.268C105.522 153.46 106.049 153.771 106.494 154.181C106.94 154.591 107.294 155.091 107.533 155.647C107.772 156.203 107.89 156.804 107.881 157.409V164.345L122.036 153.068H136.191C136.71 153.068 141.57 153.068 141.57 159.957V160.759C142.062 160.074 142.728 159.533 143.5 159.193C144.272 158.853 145.12 158.726 145.958 158.825H152.847C152.847 158.825 153.177 157.268 150.818 157.268H142.372V153.068H152.894C153.495 153.016 154.1 153.089 154.671 153.284C155.242 153.478 155.767 153.79 156.211 154.198C156.655 154.607 157.008 155.103 157.25 155.656C157.491 156.209 157.615 156.806 157.612 157.409V168.686ZM117.412 163.968H123.64V168.686H111.702L117.412 163.968ZM123.64 163.166H118.167L123.734 158.73V163.166H123.64ZM92.7345 157.975H95.8015C94.6792 157.949 93.5706 158.226 92.593 158.778C92.6157 158.511 92.6157 158.242 92.593 157.975H92.7345ZM114.864 157.598H108.73V152.88H120.573L114.864 157.598ZM108.73 158.495H114.062L108.73 162.741V158.495ZM142.561 158.07H145.769C144.566 158.041 143.377 158.334 142.325 158.919C142.348 158.637 142.348 158.352 142.325 158.07H142.561Z" fill="#E52328"/>
<path d="M145.911 163.354C145.902 163.501 145.926 163.648 145.982 163.784C146.037 163.921 146.122 164.043 146.23 164.142C146.339 164.242 146.468 164.316 146.609 164.359C146.749 164.402 146.898 164.414 147.043 164.392H152.611V162.316H147.138C146.854 162.316 145.911 162.411 145.911 163.354Z" fill="#E52328"/>
<path d="M96.179 163.354C96.1704 163.501 96.1947 163.648 96.25 163.784C96.3053 163.921 96.3902 164.043 96.4986 164.142C96.607 164.242 96.7362 164.316 96.8768 164.359C97.0174 164.402 97.1659 164.414 97.3114 164.392H102.879V162.316H97.4058C97.1227 162.316 96.179 162.411 96.179 163.354Z" fill="#E52328"/>
<path d="M134.256 157.457H129.538V164.062H134.256C135.53 164.062 136.568 163.496 136.568 160.571C136.568 157.645 134.256 157.457 134.256 157.457Z" fill="#E52328"/>
</g>
<defs>
<clipPath id="clip0_32_464">
<rect width="226.483" height="226.483" fill="white" transform="translate(0.206909 0.758789)"/>
</clipPath>
</defs>
</svg>
