<svg width="227" height="228" viewBox="0 0 227 228" fill="none" xmlns="http://www.w3.org/2000/svg">
<g clip-path="url(#clip0_32_535)">
<path d="M133.823 151.52C133.786 148.804 132.691 146.209 130.769 144.288C128.848 142.366 126.253 141.271 123.537 141.234C120.809 141.234 118.192 142.318 116.263 144.247C114.334 146.176 113.25 148.792 113.25 151.52C113.25 154.249 114.334 156.865 116.263 158.794C118.192 160.723 120.809 161.807 123.537 161.807C126.246 161.746 128.827 160.643 130.743 158.727C132.66 156.811 133.763 154.23 133.823 151.52ZM117.827 151.52C117.756 150.714 117.85 149.902 118.101 149.133C118.353 148.364 118.757 147.654 119.291 147.045C119.825 146.437 120.476 145.943 121.205 145.593C121.935 145.243 122.728 145.044 123.537 145.009C125.143 145.142 126.634 145.897 127.692 147.113C128.75 148.33 129.29 149.911 129.199 151.52C129.267 153.124 128.717 154.693 127.664 155.904C126.611 157.115 125.134 157.876 123.537 158.032C121.955 157.876 120.497 157.108 119.474 155.891C118.451 154.674 117.945 153.106 118.063 151.52H117.827Z" fill="#E52328"/>
<path d="M145.477 145.575H151.422V142.037H134.908V145.575H141.136V161.288H145.477V145.575Z" fill="#E52328"/>
<path d="M156.565 156.947H164.445L166.049 161.288H171.24L163.36 142.037H157.934L149.818 161.288H154.961L156.565 156.947ZM160.529 146.661L163.218 153.691H157.934L160.529 146.661Z" fill="#E52328"/>
<path d="M61.4426 161.288H65.7835V145.575H71.7286V142.037H55.4502V145.575H61.4426V161.288Z" fill="#E52328"/>
<path d="M93.4333 151.521C93.4426 149.475 92.8445 147.472 91.7148 145.767C90.5851 144.061 88.9745 142.73 87.0872 141.94C85.1999 141.151 83.1207 140.94 81.1132 141.333C79.1056 141.726 77.26 142.707 75.8101 144.15C74.3603 145.593 73.3714 147.434 72.9689 149.44C72.5663 151.446 72.7682 153.526 73.5489 155.417C74.3296 157.308 75.654 158.924 77.3543 160.062C79.0546 161.199 81.0543 161.807 83.1 161.807C85.8286 161.794 88.4427 160.708 90.3765 158.783C92.3104 156.858 93.4085 154.249 93.4333 151.521ZM77.4379 151.521C77.3738 150.72 77.4701 149.914 77.7212 149.15C77.9724 148.387 78.3734 147.682 78.9007 147.075C79.428 146.469 80.0711 145.974 80.7921 145.619C81.5132 145.264 82.2978 145.057 83.1 145.009C84.7195 145.118 86.2298 145.865 87.3 147.085C88.3701 148.306 88.9128 149.901 88.8093 151.521C88.8882 153.135 88.3368 154.716 87.2715 155.931C86.2062 157.146 84.7104 157.899 83.1 158.032C81.4889 157.911 79.9906 157.159 78.9305 155.94C77.8703 154.721 77.334 153.133 77.4379 151.521Z" fill="#E52328"/>
<path d="M103.2 161.288H105.324V153.974L112.92 142.037H108.06L103.2 150.152L98.5764 142.037H93.4333L101.03 153.974V161.288H103.2Z" fill="#E52328"/>
<path d="M112.212 132.977C141.655 132.977 165.247 118.02 165.247 99.9486C165.247 81.8772 141.655 66.4009 112.212 66.4009C82.7697 66.4009 58.989 81.311 58.989 99.9486C58.989 118.586 82.8641 132.977 112.212 132.977ZM112.212 68.0051C140.523 68.0051 163.784 82.1603 163.784 99.7127C163.784 117.265 140.617 131.326 112.212 131.326C83.8078 131.326 60.5933 117.171 60.5933 99.7127C60.5933 82.2547 83.7606 68.0051 112.212 68.0051Z" fill="#E52328"/>
<path d="M99.1898 91.0308H99.9919V90.2287C100.528 84.0318 103.196 78.2124 107.541 73.7615L109.523 72.1572H106.975C94.5186 72.9122 85.4593 76.215 83.9494 80.556C83.765 80.9887 83.6687 81.4539 83.6663 81.9243C83.6923 82.6867 83.9027 83.4315 84.2797 84.0948C86.2142 87.3033 91.5932 89.7568 99.1898 91.0308ZM85.6008 81.594C86.7804 78.244 94.8017 75.3657 104.993 74.4221C101.602 78.798 99.4219 83.9889 98.6707 89.4737C93.8504 89.1554 89.3008 87.1315 85.8367 83.7645C85.6022 83.3455 85.4727 82.876 85.4593 82.3961C85.4515 82.0562 85.5158 81.7185 85.648 81.4053L85.6008 81.594Z" fill="#E52328"/>
<path d="M104.899 90.8892V91.7385H105.795C107.966 91.7385 110.136 91.7385 112.401 91.7385C114.666 91.7385 116.789 91.7385 118.96 91.7385H119.856V90.8892C118.629 83.9531 115.893 79.8481 112.59 79.8481C109.287 79.8481 106.126 83.9531 104.899 90.8892ZM112.212 81.4524C114.477 81.4524 116.601 84.8496 117.686 90.1814C115.893 90.1814 114.053 90.1814 112.212 90.1814C110.372 90.1814 108.485 90.1814 106.692 90.1814C107.777 84.8968 109.9 81.4996 112.212 81.4996V81.4524Z" fill="#E52328"/>
<path d="M124.197 90.512V91.3141H124.999C132.643 90.0401 138.022 87.5866 139.721 84.6612C140.053 84.1412 140.264 83.5529 140.337 82.9403C140.411 82.3276 140.345 81.7062 140.145 81.1224C138.588 76.7815 129.529 73.4786 117.072 72.7236H114.525L116.506 74.3279C120.844 78.6849 123.559 84.3967 124.197 90.512ZM138.73 81.547C138.775 81.8125 138.775 82.0837 138.73 82.3492C138.716 82.8291 138.587 83.2985 138.352 83.7175C134.888 87.0845 130.339 89.1084 125.518 89.4267C124.767 83.9419 122.587 78.7511 119.196 74.3751C129.529 75.1772 137.55 78.1026 138.73 81.4055V81.547Z" fill="#E52328"/>
<path d="M106.739 127.221H109.193L107.305 125.616C102.587 121.417 99.4256 111.461 99.4256 99.7596V97.0229H98.7178C87.0162 94.8997 78.7119 89.9925 77.5323 84.472L77.202 83.1509L76.1639 84.0002C73.6347 85.8901 71.5566 88.3179 70.0797 91.1086C68.6028 93.8992 67.7639 96.9829 67.6237 100.137C67.6708 114.104 84.4683 125.569 106.739 127.221ZM76.3527 86.1235C78.476 91.7383 86.4972 96.3624 97.8214 98.5328C97.8214 99.1462 97.8214 99.9483 97.8214 99.9483C97.2783 108.951 99.6978 117.883 104.71 125.38C84.4211 123.21 69.3695 112.594 69.3695 100.184C69.4773 97.4809 70.1551 94.8308 71.3586 92.4077C72.562 89.9845 74.2639 87.843 76.3527 86.1235Z" fill="#E52328"/>
<path d="M120.187 99.0048V97.8252H119.337C117.025 97.8252 114.619 98.1555 112.26 98.1555C109.901 98.1555 107.541 98.1555 105.135 97.8252H104.286V99.0048C104.286 109.904 107.73 118.161 112.307 118.161C116.884 118.161 120.187 109.904 120.187 99.0048ZM112.213 116.557C109.193 116.557 105.984 109.763 105.843 99.571C107.919 99.571 110.042 99.571 112.213 99.571C114.383 99.571 116.459 99.571 118.535 99.571C118.394 109.763 115.185 116.557 112.213 116.557Z" fill="#E52328"/>
<path d="M124.905 97.1644V99.9483C124.905 111.744 121.885 121.606 117.025 125.805L115.138 127.409H117.592C139.862 125.758 156.66 114.103 156.66 100.373C156.524 97.2127 155.682 94.123 154.196 91.3306C152.71 88.5383 150.618 86.1141 148.072 84.236L147.081 83.3867L146.751 84.7079C145.572 90.2284 137.314 95.1355 125.566 97.2588L124.905 97.1644ZM148.025 86.1234C150.134 87.8489 151.852 90.0036 153.064 92.4442C154.276 94.8848 154.955 97.5554 155.056 100.279C155.056 112.688 140.004 123.304 119.715 125.475C124.747 117.951 127.168 108.982 126.604 99.9483V98.5328C137.881 96.3623 145.855 91.7383 148.025 86.1234Z" fill="#E52328"/>
</g>
<defs>
<clipPath id="clip0_32_535">
<rect width="226.483" height="226.483" fill="white" transform="translate(0.103516 0.862305)"/>
</clipPath>
</defs>
</svg>
