<svg width="227" height="228" viewBox="0 0 227 228" fill="none" xmlns="http://www.w3.org/2000/svg">
<g clip-path="url(#clip0_32_480)">
<path d="M113.552 150.143C120.717 150.171 127.73 148.071 133.701 144.11C139.672 140.148 144.333 134.503 147.092 127.89C149.852 121.277 150.586 113.993 149.202 106.962C147.818 99.9317 144.377 93.4701 139.317 88.3965C134.257 83.3229 127.804 79.8658 120.777 78.4632C113.75 77.0606 106.464 77.7758 99.8441 80.5179C93.2238 83.2601 87.5666 87.9059 83.5894 93.8666C79.6122 99.8272 77.494 106.834 77.5033 114C77.5032 123.57 81.2982 132.748 88.0559 139.524C94.8136 146.299 103.982 150.118 113.552 150.143ZM113.552 80.4996C120.178 80.4996 126.655 82.4644 132.164 86.1454C137.673 89.8265 141.967 95.0586 144.502 101.18C147.038 107.301 147.701 114.037 146.409 120.536C145.116 127.034 141.925 133.004 137.24 137.689C132.555 142.374 126.586 145.564 120.087 146.857C113.589 148.15 106.853 147.486 100.732 144.951C94.6102 142.415 89.3781 138.121 85.6971 132.612C82.016 127.103 80.0512 120.626 80.0512 114C80.045 109.599 80.9073 105.24 82.5886 101.173C84.27 97.1054 86.7374 93.4099 89.8494 90.2978C92.9615 87.1858 96.657 84.7184 100.724 83.037C104.792 81.3557 109.151 80.4934 113.552 80.4996Z" fill="#E52328"/>
<path d="M15.4092 99.5617C17.0135 101.591 19.0424 103.903 21.3072 106.498C23.4776 108.857 26.0256 111.499 28.5735 114.236H28.6207C30.7912 116.406 33.3391 118.954 35.6983 121.078C38.4349 123.625 41.3132 126.221 44.4273 128.816C47.164 131.128 50.0422 133.534 53.062 135.705C56.4592 138.253 59.998 140.753 63.7255 143.16H81.2307C85.3249 147.745 90.3414 151.414 95.952 153.926C101.562 156.438 107.64 157.737 113.788 157.737C119.935 157.737 126.013 156.438 131.623 153.926C137.234 151.414 142.25 147.745 146.345 143.16H163.567C184.235 129.395 202.422 112.229 217.356 92.3897H151.723C147.905 85.6693 142.375 80.0807 135.694 76.1929C129.014 72.305 121.423 70.2568 113.693 70.2568C105.964 70.2568 98.3727 72.305 91.6923 76.1929C85.012 80.0807 79.4812 85.6693 75.663 92.3897H9.74713C9.74713 92.3897 11.7289 95.1264 15.362 99.5617H15.4092ZM37.3025 121.078C34.8962 118.86 32.5841 116.359 30.1306 114.236H69.9538C69.9509 116.528 70.1403 118.817 70.52 121.078H37.3025ZM189.848 121.078H156.819C157.199 118.817 157.388 116.528 157.386 114.236H196.973C194.614 116.548 192.254 118.718 189.848 121.078ZM210.279 99.5617C208.58 101.591 206.598 103.95 204.286 106.498H156.772C156.353 104.143 155.754 101.824 154.979 99.5617H210.279ZM154.838 128.816H181.025C178.146 131.222 175.221 133.534 172.248 135.705H151.629C152.897 133.506 153.97 131.201 154.838 128.816ZM113.552 76.2528C121.017 76.2528 128.315 78.4667 134.523 82.6144C140.73 86.7621 145.569 92.6574 148.426 99.5548C151.283 106.452 152.03 114.042 150.574 121.364C149.117 128.686 145.522 135.412 140.243 140.691C134.964 145.97 128.238 149.565 120.916 151.022C113.594 152.478 106.004 151.731 99.1065 148.874C92.2091 146.017 86.3138 141.179 82.1661 134.971C78.0184 128.764 75.8046 121.466 75.8046 114C75.8046 103.989 79.7815 94.3877 86.8605 87.3087C93.9394 80.2298 103.541 76.2528 113.552 76.2528ZM75.8046 135.705H54.8549C51.9295 133.534 49.0041 130.986 46.0787 128.816H72.5489C73.4303 131.203 74.5198 133.508 75.8046 135.705ZM72.4545 99.5617C71.6737 101.819 71.0896 104.14 70.7087 106.498H22.8171C20.5522 103.95 18.5233 101.779 16.8247 99.5617H72.4545Z" fill="#E52328"/>
<path d="M113.693 104.752H109.116V123.484H113.693V104.752Z" fill="#E52328"/>
<path d="M95.7162 123.437L100.435 112.443V123.437H105.153V104.563H99.9156L94.6782 117.067L89.9598 104.563H84.7695V123.437H88.6858V112.207L92.9795 123.437H95.7162Z" fill="#E52328"/>
<path d="M121.62 112.16L130.349 123.437H133.888V104.752H129.877V116.123L121.148 104.752H117.704V123.437H121.62V112.16Z" fill="#E52328"/>
<path d="M142.57 104.752H137.993V123.484H142.57V104.752Z" fill="#E52328"/>
</g>
<defs>
<clipPath id="clip0_32_480">
<rect width="226.483" height="226.483" fill="white" transform="translate(0.310364 0.758789)"/>
</clipPath>
</defs>
</svg>
