<svg width="227" height="228" viewBox="0 0 227 228" fill="none" xmlns="http://www.w3.org/2000/svg">
<g clip-path="url(#clip0_32_439)">
<path d="M113.759 154.909C157.781 154.909 193.688 136.507 193.688 114C193.688 91.4935 157.781 73.0918 113.759 73.0918C69.736 73.0918 33.8291 91.4463 33.8291 114C33.8291 136.554 69.736 154.909 113.759 154.909ZM113.759 82.7645C154.337 82.7645 187.413 96.9197 187.413 114C187.413 131.081 154.384 145.189 113.759 145.189C73.1332 145.189 40.0573 131.175 40.0573 114C40.0573 96.8253 73.1804 82.7645 113.759 82.7645Z" fill="#E52328"/>
<path d="M142.022 133.393L149.807 106.168L157.64 133.393H168.35L157.262 94.3716H152.78H146.551H140.748V96.1646H142.352L131.264 133.393H142.022Z" fill="#E52328"/>
<path d="M65.3951 133.393H76.0115V116.406L88.1377 132.449H100.594L86.4391 113.339L98.7541 95.1265H86.2976L76.0115 109.989V95.1265H63.4605V96.7307C64.1181 96.689 64.7771 96.7854 65.3951 97.0138V133.393Z" fill="#E52328"/>
<path d="M109.748 133.393H120.506V95.1265H107.813V96.7307C108.471 96.6784 109.133 96.7752 109.748 97.0138V133.393Z" fill="#E52328"/>
</g>
<defs>
<clipPath id="clip0_32_439">
<rect width="226.483" height="226.483" fill="white" transform="translate(0.517212 0.758789)"/>
</clipPath>
</defs>
</svg>
