<svg width="227" height="228" viewBox="0 0 227 228" fill="none" xmlns="http://www.w3.org/2000/svg">
<g clip-path="url(#clip0_32_414)">
<path d="M75.126 157.966H76.8718V153.767H79.8444V152.446H76.8718V150.087H80.0803V148.718H75.126V157.966Z" fill="#E52328"/>
<path d="M153.215 148.812H151.517V158.061H153.215V148.812Z" fill="#E52328"/>
<path d="M174.023 150.134H176.052V158.014H177.751V150.134H179.78V148.766H174.023V150.134Z" fill="#E52328"/>
<path d="M26.6209 148.812H24.8751V158.061H26.6209V148.812Z" fill="#E52328"/>
<path d="M128.491 155.701L128.538 155.749H128.491V155.701L126.179 148.718H124.15V157.966H125.613V151.03L128.019 157.966H130.001V148.718H128.538L128.491 155.701Z" fill="#E52328"/>
<path d="M201.862 148.812H200.116V158.061H201.862V148.812Z" fill="#E52328"/>
<path d="M102.54 148.812H100.794V158.061H102.54V148.812Z" fill="#E52328"/>
<path d="M52.2889 155.701V155.749V155.701L49.9297 148.718H47.9008V157.966H49.3163V151.03L51.7698 157.966H53.7987V148.718H52.2889V155.701Z" fill="#E52328"/>
<path d="M113.345 69.7324C75.9752 69.7324 45.7303 84.9256 45.7303 103.705C45.7303 118.898 65.5476 131.779 92.9143 136.12L113.345 87.5679L133.728 136.12C161.095 131.779 180.912 118.898 180.912 103.705C180.912 84.9256 150.667 69.7324 113.345 69.7324ZM144.392 120.738L113.345 84.8313L82.3922 120.644C67.1518 116.397 57.1489 108.989 57.1489 99.8829C57.1489 85.4447 82.1091 71.8557 113.298 71.8557C144.486 71.8557 169.966 85.5862 169.966 99.7414C169.966 109.178 159.821 116.539 144.392 120.738Z" fill="#E52328"/>
</g>
<defs>
<clipPath id="clip0_32_414">
<rect width="226.483" height="226.483" fill="white" transform="translate(0.103516 0.655273)"/>
</clipPath>
</defs>
</svg>
