<svg width="227" height="228" viewBox="0 0 227 228" fill="none" xmlns="http://www.w3.org/2000/svg">
<g clip-path="url(#clip0_32_362)">
<path d="M113.448 54.917C101.783 54.917 90.38 58.3761 80.6808 64.8569C70.9816 71.3377 63.422 80.5491 58.958 91.3263C54.4939 102.103 53.3259 113.962 55.6017 125.403C57.8774 136.844 63.4947 147.353 71.7432 155.602C79.9917 163.85 90.5009 169.468 101.942 171.743C113.383 174.019 125.242 172.851 136.019 168.387C146.796 163.923 156.007 156.364 162.488 146.664C168.969 136.965 172.428 125.562 172.428 113.897C172.403 98.2621 166.181 83.2748 155.126 72.2194C144.07 61.1639 129.083 54.9419 113.448 54.917ZM113.448 55.3416C128.974 55.3541 143.861 61.5273 154.839 72.5059C165.818 83.4844 171.991 98.3709 172.004 113.897V114.888C171.262 113.477 170.195 112.264 168.889 111.349C165.822 109.131 164.171 101.488 164.171 98.5149C164.171 100.638 164.454 102.761 164.454 105.026C164.361 109.581 163.935 114.123 163.18 118.615C161.447 130.965 156.965 142.768 150.063 153.154L149.827 153.437L148.883 154.428C138.88 162.591 129.68 165.469 113.779 165.469C97.8304 165.469 88.6296 162.591 78.6266 154.428L77.6357 153.437C77.6357 153.437 77.3998 153.154 77.6357 153.154C70.5923 142.8 65.9645 130.997 64.0939 118.615C63.4249 114.164 63.078 109.669 63.0559 105.168C63.0559 103.045 63.0559 101.063 63.4334 99.1283V99.4114C63.4183 101.268 63.0064 103.1 62.2251 104.785C61.4439 106.47 60.3114 107.968 58.9037 109.178C56.8849 110.433 55.4435 112.434 54.8931 114.746V113.897C54.9056 98.3709 61.0788 83.4844 72.0573 72.5059C83.0358 61.5273 97.9223 55.3541 113.448 55.3416Z" fill="#E52328"/>
<path d="M65.8869 119.983C65.869 120.14 65.869 120.298 65.8869 120.455L66.17 122.059C66.17 122.625 66.406 123.192 66.5475 123.805V124.277C66.5475 124.796 66.7834 125.268 66.8778 125.787C66.9001 125.864 66.9001 125.946 66.8778 126.023C66.8778 126.589 67.2081 127.155 67.3496 127.674V128.193C67.3496 128.665 67.3496 129.137 67.7271 129.609C67.7476 129.718 67.7476 129.83 67.7271 129.939C67.7271 130.458 68.0574 130.977 68.2461 131.543V132.062L68.6708 133.336V133.714L69.1898 135.224C69.1898 135.224 69.1898 135.601 69.1898 135.743L69.6145 136.922L70.9828 137.488C70.9828 137.96 71.3131 138.432 71.5018 138.904C71.5103 139.061 71.5103 139.219 71.5018 139.376L71.9265 140.461V140.838L72.4927 142.16V142.584L72.9645 143.575V143.905C72.9645 144.33 73.3892 144.708 73.5779 145.132V145.462C73.7535 145.751 73.9111 146.051 74.0497 146.359C76.173 149.096 78.3435 149.803 78.7681 149.426C79.1928 149.048 79.5703 146.925 79.1456 143.953C78.8625 143.15 78.6266 142.348 78.3907 141.546L78.1076 140.697C77.6829 139.329 77.3054 137.96 76.928 136.592C76.928 136.592 76.928 136.309 76.928 136.12C76.5977 134.94 76.2674 133.714 75.9843 132.487C75.9019 132.071 75.7915 131.661 75.654 131.26C75.654 130.269 75.2293 129.326 74.9934 128.382L75.7012 127.108L75.135 124.371L74.8519 122.909C74.8519 121.965 74.4744 121.021 74.3328 120.077C74.1913 119.134 74.3328 119.228 74.0969 118.804C73.861 117.435 73.6723 116.114 73.4835 114.793C71.549 101.534 71.6434 89.6439 74.4744 82.3776C74.7758 81.6405 75.1388 80.9303 75.5596 80.2543L76.1258 79.5937C81.9766 73.7429 97.8304 70.7703 113.873 70.7703C129.915 70.7703 145.581 73.7429 151.62 79.5937C151.812 79.798 151.986 80.0191 152.139 80.2543C152.578 80.9198 152.942 81.6319 153.224 82.3776C156.103 89.6439 156.15 101.534 154.262 114.793C154.262 116.114 153.838 117.435 153.602 118.804C153.546 119.248 153.467 119.689 153.366 120.125C153.366 121.068 153.083 121.965 152.894 122.909C152.705 123.852 152.894 123.947 152.564 124.466C152.233 124.985 152.233 126.211 152.045 127.061C151.856 127.91 152.045 128.146 151.714 128.665C151.384 129.184 151.29 130.411 151.101 131.26C150.912 132.109 150.865 132.298 150.724 132.817C150.582 133.336 150.252 134.752 149.969 135.695C149.686 136.639 149.969 136.497 149.638 136.922C149.308 138.243 148.931 139.517 148.553 140.838L148.128 142.112C147.893 142.82 147.704 143.575 147.468 144.283C147.043 147.161 147.468 149.284 147.845 149.615C148.223 149.945 150.488 149.332 152.564 146.925C153.256 145.635 153.964 144.22 154.687 142.679C155.159 141.641 155.631 140.603 156.055 139.47C156.291 138.951 156.527 138.385 156.716 137.866C156.716 137.3 157.188 136.733 157.377 136.167L157.943 134.469L158.509 132.723C158.509 132.723 158.509 132.723 158.509 132.393C158.509 132.062 158.886 131.307 159.028 130.741C159.028 130.741 159.358 129.561 159.547 128.995C159.526 128.87 159.526 128.743 159.547 128.618L159.972 126.919L160.396 125.126C160.374 124.985 160.374 124.842 160.396 124.702C160.396 124.135 160.396 123.522 160.774 122.956C160.774 122.342 161.01 121.729 161.104 121.163V120.738L161.387 118.945C162.016 114.553 162.347 110.123 162.378 105.686C162.691 98.8335 161.582 91.9899 159.122 85.5861C157.288 81.318 154.193 77.7126 150.252 75.2528C140.467 69.0726 129.291 65.4392 117.742 64.6836C116.421 64.6836 115.053 64.6836 113.731 64.6836C112.363 64.6836 111.042 64.6836 109.674 64.6836C98.1412 65.447 86.9823 69.0801 77.2111 75.2528C73.2175 77.6905 70.0711 81.2982 68.1989 85.5861C65.6737 91.8161 64.4378 98.4934 64.5658 105.215C64.6136 109.652 64.9604 114.082 65.6038 118.473L65.8869 119.983Z" fill="#E52328"/>
<path d="M132.888 158.061L131.378 158.485H131.095L129.349 158.863C124.23 159.819 119.033 160.293 113.826 160.278C108.634 160.293 103.452 159.819 98.3494 158.863L96.698 158.532L95.2353 158.108C92.4514 157.447 88.7711 156.551 88.6295 157.117C88.488 157.683 90.4225 159.476 92.2627 160.561H92.4986H92.8289L94.5747 161.175L96.2261 161.647H96.6036L98.3966 162.071H98.8212L100.661 162.402H101.086C101.747 162.402 102.407 162.402 103.115 162.685H105.191H105.521H107.739H119.393H121.611H121.941H123.97H124.206L126.188 162.402H126.66L128.5 162.024H128.972L130.718 161.647H131.095C131.606 161.533 132.11 161.391 132.605 161.222H133.03L134.634 160.656H135.106H135.389C137.229 159.57 139.116 157.872 138.928 157.258C138.739 156.645 135.625 157.4 132.888 158.061Z" fill="#E52328"/>
<path d="M150.771 83.7931C150.543 83.1391 150.225 82.5198 149.827 81.953L149.45 81.4339C144.448 76.4325 130.576 73.1768 113.731 73.1768C96.8868 73.1768 83.0147 76.4325 78.0132 81.4339L77.5885 81.953C77.2176 82.5358 76.9017 83.1518 76.6449 83.7931C74.0969 90.2573 73.8138 101.204 75.7484 114.651C77.338 126.012 80.1053 137.176 84.0055 147.963C84.4617 149.408 85.4144 150.645 86.695 151.455C90.3169 154.027 94.4544 155.782 98.8213 156.598C103.705 157.524 108.666 157.982 113.637 157.966C118.608 157.984 123.569 157.526 128.453 156.598C132.866 155.849 137.066 154.16 140.768 151.644C142.033 150.829 142.97 149.592 143.41 148.152C147.332 137.368 150.116 126.203 151.714 114.84C153.845 104.561 153.522 93.924 150.771 83.7931ZM76.1258 86.1052C76.3196 85.3531 76.5559 84.6127 76.8336 83.8875C76.3418 99.3445 77.0043 114.817 78.8153 130.175C78.3435 128.004 77.8245 125.787 77.3998 123.522C76.2389 111.086 75.8135 98.5916 76.1258 86.1052ZM84.383 148.294C81.0113 125.606 79.6849 102.661 80.4196 79.7353L81.1273 79.3107C80.2837 102.979 81.658 126.674 85.2323 150.087C84.8587 149.536 84.5722 148.931 84.383 148.294ZM142.514 77.5177C142.514 81.4811 142.514 86.0108 142.514 90.8235H141.759C141.759 85.8692 141.759 81.3868 141.759 77.2818L142.514 77.5177ZM141.24 121.635C141.57 114.935 141.759 108.187 141.9 101.723C141.9 99.6469 141.9 98.2314 141.9 97.9955H142.514C142.514 110.971 141.853 125.598 140.532 138.998C140.673 138.526 140.909 130.552 141.24 121.729V121.635ZM135.247 154.239L134.492 154.569C135.153 149.851 135.672 144.613 136.049 138.998H136.757C136.38 144.566 135.861 149.709 135.247 154.333V154.239ZM124.065 157.023H123.357C123.64 152.021 123.829 145.793 123.97 138.951H124.631C124.489 145.934 124.301 152.068 124.065 157.117V157.023ZM104.059 157.023H103.398C103.162 151.974 102.973 145.84 102.785 138.998H103.492C103.634 145.982 104.012 152.163 104.012 157.211L104.059 157.023ZM98.5854 90.9651H97.9248V74.4507H98.6326C98.5854 79.4522 98.5854 85.0671 98.5854 90.9651ZM85.4682 90.9651H84.7605C84.7605 86.2467 84.7605 81.5283 84.7605 77.6592H85.4211C85.5154 81.3868 85.4682 85.9636 85.4682 90.9179V90.9651ZM93.5839 75.2529H94.2916C94.2916 79.9712 94.2916 85.4446 94.2916 91.1538H93.6311C93.5367 85.303 93.5367 79.9712 93.5839 75.2057V75.2529ZM94.2445 97.2877H91.4606V111.773H96.5093V117.105H91.4606V138.196H86.0816L85.7042 125.079L84.7605 92.8525V91.956H97.972V97.2877H94.2445ZM94.2445 110.83H93.5839C93.5839 106.583 93.5839 102.384 93.5839 98.2314H94.2445C94.3074 102.384 94.4175 106.567 94.5747 110.782L94.2445 110.83ZM106.512 73.6486H107.173C107.173 79.0747 107.173 84.9255 107.173 90.9651H106.512C106.701 84.8312 106.654 78.9804 106.654 73.6014L106.512 73.6486ZM111.608 73.6486V91.201H110.948V73.4127L111.608 73.6486ZM119.96 73.6486H120.62V91.0123H119.96V73.6486ZM129.396 74.5451C129.396 79.5938 129.396 85.2087 129.396 91.0595H128.736V74.3564L129.396 74.5451ZM137.04 138.149H134.209L134.445 97.2405H129.444V92.0503H146.005V97.3349H141.287L139.918 138.385L137.04 138.149ZM124.914 133.714C124.914 129.326 124.914 122.673 124.489 118.992C124.489 118.285 124.489 117.671 124.253 117.247H116.893V138.243H111.561L111.183 107.574V92.0031H124.678C124.914 92.4278 125.103 92.8524 125.291 93.2771C127.08 97.4359 128.302 101.816 128.925 106.3C129.208 107.904 129.396 109.508 129.538 111.018C130.249 119.271 130.47 127.558 130.199 135.837C130.199 136.639 130.199 137.441 130.199 138.149H124.772C124.772 138.149 124.772 136.262 124.725 133.714H124.914ZM125.339 91.2482H124.678C124.678 85.2087 124.678 79.4522 124.678 74.1676H125.339V91.2482ZM103.634 138.432H101.747L100.85 92.1447H107.314V138.479H103.587L103.634 138.432ZM129.444 104.46C129.444 103.374 129.019 102.336 128.783 101.251C128.547 100.166 128.783 99.0335 128.783 97.9483H129.444C129.491 100.26 129.444 102.431 129.444 104.46ZM138.267 90.7764H137.606C137.606 85.3974 137.606 80.3487 137.606 75.9134H138.267C138.267 80.8677 138.267 85.5861 138.267 90.9179V90.7764ZM133.879 90.7764H133.218C133.218 85.1143 133.218 79.7353 133.218 74.9226H133.879C133.879 79.9712 133.926 85.303 133.879 90.9179V90.7764ZM116.327 73.2711V90.8235H115.666V73.4127L116.327 73.2711ZM102.973 90.7764H102.313V73.7901H102.973V90.7764ZM89.8564 90.7764H89.1486C89.1486 85.4918 89.1486 80.4903 89.1486 76.055L89.8564 76.1493C89.8564 80.5374 89.8564 85.5861 89.8564 90.9179V90.7764ZM86.7894 138.904H87.4972C87.969 143.622 88.5352 148.341 89.243 152.729L88.4408 152.257C87.8274 148.199 87.2612 143.67 86.7894 139.045V138.904ZM90.6585 138.904H91.3662C91.7909 144.519 92.3099 149.756 92.9233 154.475L92.2155 154.144C91.555 149.709 91.0831 144.566 90.6585 139.093V138.904ZM95.8959 155.466C94.8107 145.415 94.1973 131.874 93.867 117.718H94.5747C94.9522 131.874 95.5656 145.51 96.6508 155.466H95.8959ZM99.6234 156.362C98.491 141.971 98.0663 118.945 97.972 97.9955H98.6326C98.6326 119.04 99.1988 142.112 100.284 156.456L99.6234 156.362ZM106.984 138.904H107.645C107.645 145.934 107.645 152.257 107.928 157.353H107.267C107.126 152.399 107.031 146.076 106.984 139.093V138.904ZM111.278 157.542V139.093H111.891V157.73L111.278 157.542ZM115.524 138.904H116.185V157.494H115.524V138.904ZM119.96 117.907H120.62C120.62 133.053 120.384 147.397 120.196 157.306H119.488C119.724 147.633 119.865 133.289 119.96 118.096V117.907ZM128.075 138.904H128.736C128.736 145.463 128.217 151.408 127.839 156.315H127.132C127.603 151.644 127.839 145.698 128.075 139.093V138.904ZM133.171 97.9011H133.454C133.454 98.892 133.454 114.84 133.454 126.542C133.124 137.347 132.558 147.539 131.708 155.466H131.001C132.322 141.027 133.03 118.332 133.171 98.0899V97.9011ZM139.918 138.904H140.626C140.202 143.622 139.635 148.01 138.975 152.21L138.22 152.682C138.88 148.529 139.447 143.905 139.918 139.093V138.904ZM146.477 98.0899H147.138V90.8707H146.477C146.477 86.6714 146.477 82.7551 146.477 79.3107L147.185 79.7353C147.99 102.657 146.711 125.604 143.363 148.294C143.136 148.904 142.818 149.477 142.419 149.992C145.097 132.821 146.454 115.469 146.477 98.0899ZM150.724 83.9347C151.025 84.6723 151.277 85.4288 151.479 86.1995C151.776 98.6408 151.319 111.089 150.11 123.475C149.67 125.74 149.198 127.957 148.695 130.128C150.461 114.75 151.076 99.2623 150.535 83.7931L150.724 83.9347Z" fill="#E52328"/>
<path d="M122.885 106.253C122.42 103.368 121.661 100.538 120.62 97.8067C120.539 97.5433 120.428 97.2901 120.29 97.0518H116.751V111.962H123.829C123.829 111.962 123.546 109.178 122.885 106.253ZM119.96 98.7032C120.223 99.3327 120.443 99.979 120.62 100.638C120.62 104.082 120.62 107.574 120.62 111.018H119.96C120.054 106.913 120.054 102.808 120.054 98.7032H119.96Z" fill="#E52328"/>
</g>
<defs>
<clipPath id="clip0_32_362">
<rect width="226.483" height="226.483" fill="white" transform="translate(0.206909 0.655273)"/>
</clipPath>
</defs>
</svg>
