<svg width="227" height="228" viewBox="0 0 227 228" fill="none" xmlns="http://www.w3.org/2000/svg">
<g clip-path="url(#clip0_32_578)">
<path d="M158.612 141.14C158.766 141.307 158.958 141.433 159.172 141.507C159.386 141.581 159.616 141.601 159.839 141.565C160.736 141.565 160.783 140.055 160.783 140.055C160.783 140.055 160.783 136.893 160.783 133.638C160.568 130.855 159.478 128.213 157.669 126.088C157.669 126.088 124.64 89.9453 113.363 89.9453C102.086 89.9453 69.1045 126.088 69.1045 126.088C67.2497 128.193 66.1243 130.841 65.896 133.638C65.896 136.846 66.1319 140.055 66.1319 140.055C66.1319 140.055 66.1319 141.47 67.0756 141.565C67.2993 141.601 67.5284 141.581 67.7426 141.507C67.9567 141.433 68.149 141.307 68.3024 141.14C71.9827 137.931 101.331 112.83 113.363 112.83C125.395 112.83 154.932 137.931 158.612 141.14Z" fill="#E52328"/>
<path d="M67.2643 108.3C67.4841 108.334 67.7088 108.318 67.9213 108.253C68.1339 108.187 68.3288 108.074 68.4911 107.922C72.1715 104.714 101.52 79.612 113.552 79.612C125.584 79.612 154.932 104.714 158.612 107.922C158.775 108.074 158.97 108.187 159.182 108.253C159.395 108.318 159.619 108.334 159.839 108.3C160.736 108.3 160.783 106.837 160.783 106.837C160.783 106.837 160.783 103.629 160.783 100.42C160.575 97.6222 159.484 94.9625 157.669 92.8235C157.669 92.8235 124.64 56.6807 113.363 56.6807C102.086 56.6807 69.1045 92.8235 69.1045 92.8235C67.2433 94.9432 66.1177 97.6081 65.896 100.42C65.896 103.629 66.1319 106.837 66.1319 106.837C66.1319 106.837 66.3678 108.253 67.2643 108.3Z" fill="#E52328"/>
<path d="M137.899 156.145C133.888 156.145 129.83 156.145 129.783 156.145C128.702 155.996 127.601 156.081 126.555 156.394C125.51 156.707 124.543 157.24 123.721 157.957C122.898 158.675 122.239 159.56 121.787 160.554C121.335 161.547 121.101 162.626 121.101 163.718C121.101 164.809 121.335 165.888 121.787 166.881C122.239 167.875 122.898 168.76 123.721 169.478C124.543 170.195 125.51 170.728 126.555 171.041C127.601 171.354 128.702 171.439 129.783 171.291C129.783 171.291 133.888 171.291 137.899 171.291C138.98 171.439 140.081 171.354 141.126 171.041C142.172 170.728 143.139 170.195 143.961 169.478C144.784 168.76 145.443 167.875 145.895 166.881C146.346 165.888 146.58 164.809 146.58 163.718C146.58 162.626 146.346 161.547 145.895 160.554C145.443 159.56 144.784 158.675 143.961 157.957C143.139 157.24 142.172 156.707 141.126 156.394C140.081 156.081 138.98 155.996 137.899 156.145ZM135.115 169.214H132.425C130.927 169.24 129.479 168.676 128.393 167.643C127.307 166.61 126.671 165.192 126.622 163.694C126.646 162.956 126.816 162.231 127.12 161.559C127.425 160.887 127.86 160.282 128.399 159.778C128.938 159.274 129.571 158.881 130.262 158.622C130.953 158.363 131.688 158.243 132.425 158.268H134.973C135.715 158.236 136.455 158.352 137.151 158.608C137.848 158.864 138.486 159.256 139.03 159.761C139.574 160.265 140.013 160.873 140.321 161.548C140.629 162.223 140.8 162.952 140.824 163.694C140.775 165.175 140.152 166.579 139.087 167.61C138.021 168.64 136.597 169.215 135.115 169.214Z" fill="#E52328"/>
<path d="M186.121 156.569H173.522C173.441 156.555 173.357 156.56 173.277 156.582C173.197 156.604 173.123 156.644 173.06 156.698C172.997 156.752 172.946 156.819 172.912 156.895C172.878 156.97 172.861 157.052 172.862 157.135V170.724C172.855 170.796 172.864 170.869 172.887 170.938C172.91 171.006 172.947 171.069 172.996 171.122C173.045 171.176 173.105 171.218 173.171 171.247C173.237 171.276 173.309 171.291 173.381 171.291H178.618V159.683C178.599 159.557 178.613 159.428 178.661 159.31C178.708 159.191 178.787 159.088 178.889 159.01C178.99 158.933 179.111 158.884 179.238 158.87C179.364 158.856 179.493 158.876 179.609 158.928H185.413C185.986 158.97 186.545 159.126 187.057 159.387C187.569 159.648 188.023 160.009 188.392 160.449C188.762 160.889 189.04 161.399 189.209 161.948C189.378 162.498 189.435 163.075 189.376 163.647V170.724C189.376 170.803 189.392 170.881 189.423 170.953C189.455 171.025 189.501 171.089 189.558 171.142C189.616 171.196 189.684 171.236 189.758 171.262C189.833 171.287 189.911 171.297 189.99 171.291H194.708V163.883C194.516 161.784 193.51 159.843 191.905 158.476C190.3 157.109 188.224 156.425 186.121 156.569Z" fill="#E52328"/>
<path d="M92.0831 156.569H70.4256C70.2755 156.569 70.1315 156.629 70.0253 156.735C69.9191 156.841 69.8594 156.985 69.8594 157.135V159.494H75.0497C75.9013 159.506 76.7155 159.847 77.3222 160.445C77.9289 161.042 78.2811 161.852 78.3054 162.703V170.724C78.3054 170.874 78.365 171.018 78.4712 171.125C78.5774 171.231 78.7214 171.29 78.8716 171.29H84.109V160.013C84.109 159.813 84.1885 159.621 84.3301 159.48C84.4717 159.338 84.6637 159.259 84.8639 159.259H92.6021V156.899C92.5621 156.796 92.4902 156.708 92.3968 156.649C92.3034 156.59 92.1935 156.562 92.0831 156.569Z" fill="#E52328"/>
<path d="M66.3678 156.569H61.6495C61.4993 156.569 61.3553 156.629 61.2491 156.735C61.1429 156.841 61.0833 156.985 61.0833 157.136V170.725C61.0833 170.875 61.1429 171.019 61.2491 171.125C61.3553 171.231 61.4993 171.291 61.6495 171.291H66.8869V157.136C66.8777 156.996 66.8213 156.864 66.727 156.761C66.6326 156.658 66.5059 156.591 66.3678 156.569Z" fill="#E52328"/>
<path d="M114.259 165.723C115.413 165.559 116.472 164.998 117.256 164.137C118.04 163.276 118.499 162.168 118.553 161.004C118.376 159.615 117.668 158.347 116.577 157.468C115.487 156.589 114.098 156.165 112.702 156.286H98.5472C98.1489 156.28 97.7534 156.353 97.3841 156.503C97.0149 156.652 96.6794 156.874 96.3978 157.156C96.1161 157.438 95.8939 157.773 95.7444 158.143C95.5949 158.512 95.5211 158.907 95.5275 159.306V170.724C95.5275 170.874 95.5871 171.018 95.6933 171.125C95.7995 171.231 95.9435 171.29 96.0937 171.29H101.331V166.006H106.474C107.999 165.898 109.507 166.383 110.685 167.358C111.862 168.333 112.619 169.725 112.797 171.243H118.553C118.415 170.017 117.941 168.852 117.184 167.878C116.426 166.904 115.414 166.158 114.259 165.723ZM110.579 163.269H101.52V160.297C101.513 160.115 101.544 159.934 101.611 159.765C101.677 159.596 101.778 159.443 101.906 159.314C102.034 159.186 102.188 159.085 102.357 159.019C102.526 158.952 102.707 158.922 102.888 158.928H110.626C111.202 158.928 111.754 159.157 112.161 159.564C112.568 159.971 112.797 160.523 112.797 161.099C112.797 161.674 112.568 162.226 112.161 162.633C111.754 163.04 111.202 163.269 110.626 163.269H110.579Z" fill="#E52328"/>
<path d="M44.0027 158.22C44.8504 158.147 45.7029 158.147 46.5506 158.22C47.5735 158.211 48.582 158.461 49.4816 158.948C50.3811 159.435 51.1423 160.143 51.6937 161.004C51.6937 161.004 51.6937 161.287 52.1655 161.287H57.7804C57.0349 159.674 55.8336 158.314 54.3244 157.375C52.8152 156.436 51.0642 155.959 49.2873 156.003C47.2584 156.003 43.6252 156.003 41.2188 156.003C38.9372 155.98 36.7246 156.785 34.9906 158.268C34.1885 158.928 33.5406 159.756 33.0923 160.693C32.644 161.631 32.4062 162.655 32.3954 163.694C32.5412 165.872 33.5388 167.905 35.1725 169.354C36.8062 170.802 38.9444 171.548 41.1245 171.432C44.5217 171.432 44.8992 171.432 49.3816 171.432C51.1715 171.511 52.9415 171.031 54.4464 170.058C55.9512 169.086 57.1164 167.67 57.7804 166.006H52.2127C52.1143 165.998 52.0159 166.021 51.9312 166.071C51.8466 166.122 51.78 166.198 51.7408 166.289C51.2069 167.149 50.4638 167.859 49.581 168.354C48.6982 168.849 47.7043 169.113 46.6922 169.12H44.0027C43.2777 169.12 42.5599 168.977 41.8901 168.7C41.2203 168.422 40.6117 168.016 40.0991 167.503C39.5865 166.99 39.1798 166.382 38.9024 165.712C38.625 165.042 38.4822 164.324 38.4822 163.599C38.4822 162.874 38.625 162.157 38.9024 161.487C39.1798 160.817 39.5865 160.208 40.0991 159.696C40.6117 159.183 41.2203 158.777 41.8901 158.499C42.5599 158.222 43.2777 158.079 44.0027 158.079V158.22Z" fill="#E52328"/>
<path d="M155.309 167.705V164.921H167.153V162.279H155.262V159.731C155.262 159.731 155.262 159.023 156.159 159.023H169.748V156.9C169.748 156.286 169.087 156.333 169.087 156.333H150.214C150.063 156.333 149.919 156.393 149.813 156.499C149.707 156.605 149.647 156.749 149.647 156.9V168.129C149.647 168.524 149.726 168.914 149.878 169.278C150.03 169.642 150.254 169.971 150.535 170.248C150.816 170.525 151.149 170.743 151.515 170.889C151.881 171.036 152.273 171.108 152.667 171.102H169.323C169.47 171.091 169.607 171.028 169.711 170.924C169.815 170.82 169.878 170.682 169.889 170.536V168.46H156.017C155.92 168.46 155.824 168.44 155.735 168.402C155.646 168.363 155.566 168.307 155.499 168.236C155.433 168.165 155.382 168.081 155.349 167.99C155.317 167.899 155.303 167.802 155.309 167.705Z" fill="#E52328"/>
<path d="M158.329 151.001C157.71 150.654 157.01 150.475 156.3 150.482C155.59 150.468 154.888 150.647 154.271 151.001C154.026 151.099 153.816 151.269 153.668 151.487C153.52 151.706 153.441 151.964 153.441 152.228C153.441 152.492 153.52 152.75 153.668 152.969C153.816 153.188 154.026 153.357 154.271 153.455C154.888 153.809 155.59 153.988 156.3 153.974C156.989 153.98 157.67 153.818 158.282 153.502C158.754 153.172 159.32 152.653 159.886 152.653C160.471 152.766 161.012 153.044 161.443 153.455C162.058 153.813 162.761 153.993 163.472 153.974C164.183 153.988 164.885 153.809 165.501 153.455C165.746 153.357 165.957 153.188 166.105 152.969C166.253 152.75 166.332 152.492 166.332 152.228C166.332 151.964 166.253 151.706 166.105 151.487C165.957 151.269 165.746 151.099 165.501 151.001C164.879 150.663 164.181 150.485 163.472 150.485C162.764 150.485 162.066 150.663 161.443 151.001C160.924 151.332 160.5 151.756 159.886 151.756C159.273 151.756 158.896 151.332 158.329 151.001Z" fill="#E52328"/>
</g>
<defs>
<clipPath id="clip0_32_578">
<rect width="226.483" height="226.483" fill="white" transform="translate(0.310364 0.862305)"/>
</clipPath>
</defs>
</svg>
